G04 EAGLE Gerber RS-274X export*
G75*
%MOMM*%
%FSLAX34Y34*%
%LPD*%
%INComponent side*%
%IPPOS*%
%AMOC8*
5,1,8,0,0,1.08239X$1,22.5*%
G01*
%ADD10C,1.500000*%
%ADD11C,1.879600*%
%ADD12C,0.152400*%
%ADD13C,0.525000*%

G36*
X1607920Y30778D02*
X1607920Y30778D01*
X1608015Y30787D01*
X1608041Y30798D01*
X1608069Y30802D01*
X1608153Y30847D01*
X1608240Y30885D01*
X1608261Y30904D01*
X1608286Y30918D01*
X1608351Y30987D01*
X1608422Y31051D01*
X1608436Y31075D01*
X1608455Y31096D01*
X1608495Y31182D01*
X1608542Y31266D01*
X1608547Y31293D01*
X1608559Y31319D01*
X1608569Y31414D01*
X1608587Y31507D01*
X1608583Y31535D01*
X1608586Y31563D01*
X1608566Y31657D01*
X1608552Y31751D01*
X1608538Y31783D01*
X1608534Y31804D01*
X1608517Y31832D01*
X1608485Y31905D01*
X1608066Y32630D01*
X1604999Y44076D01*
X1604999Y55924D01*
X1608066Y67370D01*
X1613990Y77631D01*
X1622369Y86010D01*
X1632630Y91934D01*
X1644076Y95001D01*
X1655924Y95001D01*
X1667370Y91934D01*
X1668095Y91515D01*
X1668185Y91481D01*
X1668271Y91441D01*
X1668299Y91438D01*
X1668325Y91428D01*
X1668421Y91424D01*
X1668515Y91414D01*
X1668543Y91420D01*
X1668571Y91419D01*
X1668663Y91446D01*
X1668756Y91466D01*
X1668780Y91481D01*
X1668807Y91489D01*
X1668885Y91544D01*
X1668967Y91592D01*
X1668985Y91614D01*
X1669008Y91630D01*
X1669065Y91707D01*
X1669127Y91779D01*
X1669137Y91806D01*
X1669154Y91828D01*
X1669183Y91919D01*
X1669219Y92008D01*
X1669223Y92043D01*
X1669229Y92063D01*
X1669229Y92095D01*
X1669237Y92174D01*
X1669237Y407826D01*
X1669222Y407920D01*
X1669213Y408015D01*
X1669202Y408041D01*
X1669198Y408068D01*
X1669153Y408153D01*
X1669115Y408240D01*
X1669096Y408261D01*
X1669082Y408286D01*
X1669013Y408352D01*
X1668949Y408422D01*
X1668925Y408436D01*
X1668904Y408455D01*
X1668818Y408495D01*
X1668734Y408542D01*
X1668707Y408547D01*
X1668681Y408559D01*
X1668586Y408569D01*
X1668493Y408587D01*
X1668465Y408583D01*
X1668437Y408586D01*
X1668343Y408566D01*
X1668249Y408552D01*
X1668217Y408538D01*
X1668196Y408534D01*
X1668168Y408517D01*
X1668095Y408485D01*
X1667370Y408066D01*
X1655924Y404999D01*
X1644076Y404999D01*
X1632630Y408066D01*
X1622369Y413990D01*
X1613990Y422369D01*
X1608066Y432630D01*
X1604999Y444076D01*
X1604999Y455924D01*
X1608066Y467370D01*
X1608485Y468095D01*
X1608519Y468185D01*
X1608559Y468271D01*
X1608562Y468299D01*
X1608572Y468325D01*
X1608575Y468421D01*
X1608586Y468515D01*
X1608580Y468543D01*
X1608581Y468571D01*
X1608554Y468663D01*
X1608534Y468756D01*
X1608519Y468780D01*
X1608511Y468807D01*
X1608456Y468885D01*
X1608408Y468967D01*
X1608386Y468985D01*
X1608370Y469008D01*
X1608293Y469065D01*
X1608221Y469127D01*
X1608194Y469137D01*
X1608172Y469154D01*
X1608081Y469183D01*
X1607992Y469219D01*
X1607957Y469223D01*
X1607937Y469229D01*
X1607904Y469229D01*
X1607826Y469237D01*
X142174Y469237D01*
X142080Y469222D01*
X141985Y469213D01*
X141959Y469202D01*
X141931Y469198D01*
X141847Y469153D01*
X141760Y469115D01*
X141739Y469096D01*
X141714Y469082D01*
X141649Y469013D01*
X141578Y468949D01*
X141564Y468925D01*
X141545Y468904D01*
X141505Y468818D01*
X141458Y468734D01*
X141453Y468707D01*
X141441Y468681D01*
X141431Y468586D01*
X141413Y468493D01*
X141417Y468465D01*
X141414Y468437D01*
X141434Y468343D01*
X141448Y468249D01*
X141462Y468217D01*
X141466Y468196D01*
X141483Y468168D01*
X141515Y468095D01*
X141934Y467370D01*
X145001Y455924D01*
X145001Y444076D01*
X141934Y432630D01*
X136010Y422369D01*
X127631Y413990D01*
X117370Y408066D01*
X105924Y404999D01*
X94076Y404999D01*
X82630Y408066D01*
X81905Y408485D01*
X81815Y408519D01*
X81729Y408559D01*
X81701Y408562D01*
X81675Y408572D01*
X81579Y408576D01*
X81485Y408586D01*
X81457Y408580D01*
X81429Y408581D01*
X81337Y408554D01*
X81244Y408534D01*
X81220Y408519D01*
X81193Y408511D01*
X81115Y408456D01*
X81033Y408408D01*
X81015Y408386D01*
X80992Y408370D01*
X80935Y408293D01*
X80873Y408221D01*
X80863Y408194D01*
X80846Y408172D01*
X80817Y408081D01*
X80781Y407992D01*
X80777Y407957D01*
X80771Y407937D01*
X80771Y407905D01*
X80763Y407826D01*
X80763Y92174D01*
X80778Y92080D01*
X80787Y91985D01*
X80798Y91959D01*
X80802Y91932D01*
X80847Y91847D01*
X80885Y91760D01*
X80904Y91739D01*
X80918Y91714D01*
X80987Y91648D01*
X81051Y91578D01*
X81075Y91564D01*
X81096Y91545D01*
X81182Y91505D01*
X81266Y91458D01*
X81293Y91453D01*
X81319Y91441D01*
X81414Y91431D01*
X81507Y91413D01*
X81535Y91417D01*
X81563Y91414D01*
X81657Y91434D01*
X81751Y91448D01*
X81783Y91462D01*
X81804Y91466D01*
X81832Y91483D01*
X81905Y91515D01*
X82630Y91934D01*
X94076Y95001D01*
X105924Y95001D01*
X117370Y91934D01*
X127631Y86010D01*
X136010Y77631D01*
X141934Y67370D01*
X145001Y55924D01*
X145001Y44076D01*
X141934Y32630D01*
X141515Y31905D01*
X141481Y31815D01*
X141441Y31729D01*
X141438Y31701D01*
X141428Y31675D01*
X141425Y31579D01*
X141414Y31485D01*
X141420Y31457D01*
X141419Y31429D01*
X141446Y31337D01*
X141466Y31244D01*
X141481Y31220D01*
X141489Y31193D01*
X141544Y31115D01*
X141592Y31033D01*
X141614Y31015D01*
X141630Y30992D01*
X141707Y30935D01*
X141779Y30873D01*
X141806Y30863D01*
X141828Y30846D01*
X141919Y30817D01*
X142008Y30781D01*
X142043Y30777D01*
X142063Y30771D01*
X142096Y30771D01*
X142174Y30763D01*
X1607826Y30763D01*
X1607920Y30778D01*
G37*
%LPC*%
G36*
X552399Y100799D02*
X552399Y100799D01*
X552399Y101562D01*
X552396Y101580D01*
X552398Y101598D01*
X552398Y101599D01*
X552398Y101601D01*
X552376Y101703D01*
X552359Y101805D01*
X552350Y101822D01*
X552346Y101842D01*
X552293Y101931D01*
X552244Y102022D01*
X552230Y102036D01*
X552220Y102053D01*
X552141Y102120D01*
X552066Y102191D01*
X552048Y102200D01*
X552033Y102213D01*
X551937Y102252D01*
X551843Y102295D01*
X551823Y102297D01*
X551805Y102305D01*
X551638Y102323D01*
X540554Y102323D01*
X540755Y103596D01*
X541336Y105383D01*
X542189Y107057D01*
X543294Y108578D01*
X544622Y109906D01*
X546143Y111011D01*
X547817Y111864D01*
X549591Y112441D01*
X549681Y112487D01*
X549774Y112528D01*
X549790Y112543D01*
X549810Y112553D01*
X549880Y112626D01*
X549955Y112695D01*
X549966Y112714D01*
X549981Y112730D01*
X550025Y112821D01*
X550074Y112910D01*
X550078Y112932D01*
X550087Y112952D01*
X550099Y113052D01*
X550117Y113152D01*
X550114Y113174D01*
X550117Y113196D01*
X550096Y113295D01*
X550082Y113395D01*
X550072Y113415D01*
X550067Y113437D01*
X550016Y113524D01*
X549970Y113615D01*
X549954Y113630D01*
X549943Y113649D01*
X549867Y113716D01*
X549795Y113787D01*
X549770Y113800D01*
X549758Y113811D01*
X549728Y113824D01*
X549648Y113868D01*
X545349Y115648D01*
X541848Y119149D01*
X540701Y121919D01*
X540639Y122019D01*
X540579Y122119D01*
X540575Y122123D01*
X540571Y122128D01*
X540481Y122203D01*
X540392Y122279D01*
X540387Y122281D01*
X540382Y122285D01*
X540273Y122327D01*
X540164Y122371D01*
X540157Y122372D01*
X540152Y122373D01*
X540134Y122374D01*
X539998Y122389D01*
X462222Y122389D01*
X459766Y124844D01*
X459766Y124845D01*
X358645Y225966D01*
X358571Y226019D01*
X358501Y226079D01*
X358471Y226091D01*
X358445Y226110D01*
X358358Y226137D01*
X358273Y226171D01*
X358232Y226175D01*
X358210Y226182D01*
X358178Y226181D01*
X358106Y226189D01*
X198422Y226189D01*
X174289Y250322D01*
X174289Y265152D01*
X174270Y265267D01*
X174253Y265383D01*
X174251Y265389D01*
X174250Y265395D01*
X174195Y265497D01*
X174142Y265602D01*
X174137Y265607D01*
X174134Y265612D01*
X174050Y265692D01*
X173966Y265774D01*
X173960Y265778D01*
X173956Y265781D01*
X173939Y265789D01*
X173819Y265855D01*
X172125Y266557D01*
X169157Y269525D01*
X167551Y273402D01*
X167551Y277598D01*
X169157Y281475D01*
X172125Y284443D01*
X176002Y286049D01*
X180198Y286049D01*
X184075Y284443D01*
X187043Y281475D01*
X188649Y277598D01*
X188649Y273402D01*
X187043Y269525D01*
X184075Y266557D01*
X182381Y265855D01*
X182281Y265793D01*
X182181Y265734D01*
X182177Y265729D01*
X182172Y265726D01*
X182097Y265635D01*
X182021Y265547D01*
X182019Y265541D01*
X182015Y265536D01*
X181973Y265428D01*
X181929Y265319D01*
X181928Y265311D01*
X181927Y265307D01*
X181926Y265288D01*
X181911Y265152D01*
X181911Y253794D01*
X181913Y253780D01*
X181912Y253770D01*
X181924Y253715D01*
X181925Y253704D01*
X181933Y253613D01*
X181945Y253583D01*
X181950Y253551D01*
X181993Y253470D01*
X182029Y253386D01*
X182055Y253354D01*
X182066Y253334D01*
X182089Y253311D01*
X182134Y253256D01*
X201356Y234034D01*
X201429Y233981D01*
X201499Y233921D01*
X201529Y233909D01*
X201555Y233890D01*
X201642Y233863D01*
X201727Y233829D01*
X201768Y233825D01*
X201790Y233818D01*
X201823Y233819D01*
X201894Y233811D01*
X361578Y233811D01*
X364034Y231356D01*
X364034Y231355D01*
X465155Y130234D01*
X465229Y130181D01*
X465299Y130121D01*
X465329Y130109D01*
X465355Y130090D01*
X465442Y130063D01*
X465527Y130029D01*
X465568Y130025D01*
X465590Y130018D01*
X465622Y130019D01*
X465694Y130011D01*
X539998Y130011D01*
X540112Y130030D01*
X540228Y130047D01*
X540234Y130049D01*
X540240Y130050D01*
X540343Y130105D01*
X540448Y130158D01*
X540452Y130163D01*
X540458Y130166D01*
X540538Y130250D01*
X540620Y130334D01*
X540624Y130340D01*
X540627Y130344D01*
X540635Y130361D01*
X540701Y130481D01*
X541848Y133251D01*
X545349Y136752D01*
X549924Y138647D01*
X554876Y138647D01*
X559451Y136752D01*
X562952Y133251D01*
X564397Y129762D01*
X564434Y129701D01*
X564464Y129636D01*
X564499Y129597D01*
X564526Y129553D01*
X564582Y129507D01*
X564630Y129455D01*
X564676Y129430D01*
X564716Y129396D01*
X564783Y129371D01*
X564846Y129336D01*
X564897Y129327D01*
X564945Y129308D01*
X565017Y129305D01*
X565088Y129292D01*
X565139Y129300D01*
X565191Y129298D01*
X565260Y129318D01*
X565331Y129328D01*
X565377Y129352D01*
X565427Y129366D01*
X565486Y129407D01*
X565550Y129440D01*
X565587Y129477D01*
X565629Y129507D01*
X565672Y129564D01*
X565722Y129615D01*
X565757Y129678D01*
X565776Y129704D01*
X565783Y129726D01*
X565803Y129762D01*
X566501Y131446D01*
X566527Y131559D01*
X566556Y131673D01*
X566555Y131679D01*
X566557Y131685D01*
X566546Y131802D01*
X566537Y131918D01*
X566534Y131924D01*
X566534Y131930D01*
X566486Y132038D01*
X566440Y132144D01*
X566436Y132150D01*
X566434Y132155D01*
X566421Y132169D01*
X566336Y132275D01*
X432644Y265966D01*
X432571Y266019D01*
X432501Y266079D01*
X432471Y266091D01*
X432445Y266110D01*
X432358Y266137D01*
X432273Y266171D01*
X432232Y266175D01*
X432210Y266182D01*
X432177Y266181D01*
X432106Y266189D01*
X233338Y266189D01*
X233274Y266179D01*
X233208Y266178D01*
X233128Y266155D01*
X233096Y266150D01*
X233079Y266140D01*
X233047Y266131D01*
X230198Y264951D01*
X226002Y264951D01*
X222125Y266557D01*
X219157Y269525D01*
X217551Y273402D01*
X217551Y277598D01*
X219157Y281475D01*
X222125Y284443D01*
X226002Y286049D01*
X230198Y286049D01*
X234075Y284443D01*
X237043Y281475D01*
X238649Y277598D01*
X238649Y274572D01*
X238652Y274552D01*
X238650Y274533D01*
X238672Y274431D01*
X238688Y274329D01*
X238698Y274312D01*
X238702Y274292D01*
X238755Y274203D01*
X238804Y274112D01*
X238818Y274098D01*
X238828Y274081D01*
X238907Y274014D01*
X238982Y273942D01*
X239000Y273934D01*
X239015Y273921D01*
X239111Y273882D01*
X239205Y273839D01*
X239225Y273837D01*
X239243Y273829D01*
X239410Y273811D01*
X435578Y273811D01*
X438034Y271356D01*
X571725Y137664D01*
X571819Y137597D01*
X571913Y137527D01*
X571919Y137525D01*
X571924Y137521D01*
X572035Y137487D01*
X572147Y137450D01*
X572154Y137450D01*
X572160Y137449D01*
X572276Y137452D01*
X572393Y137453D01*
X572400Y137455D01*
X572405Y137455D01*
X572423Y137461D01*
X572554Y137499D01*
X575324Y138647D01*
X580276Y138647D01*
X584851Y136752D01*
X588352Y133251D01*
X589797Y129762D01*
X589835Y129701D01*
X589864Y129636D01*
X589899Y129598D01*
X589926Y129553D01*
X589982Y129507D01*
X590030Y129455D01*
X590076Y129430D01*
X590116Y129396D01*
X590183Y129371D01*
X590246Y129336D01*
X590297Y129327D01*
X590345Y129308D01*
X590417Y129305D01*
X590488Y129292D01*
X590539Y129300D01*
X590591Y129298D01*
X590660Y129318D01*
X590731Y129328D01*
X590777Y129352D01*
X590827Y129366D01*
X590886Y129407D01*
X590950Y129440D01*
X590987Y129477D01*
X591029Y129507D01*
X591072Y129564D01*
X591122Y129615D01*
X591157Y129678D01*
X591176Y129704D01*
X591183Y129726D01*
X591203Y129762D01*
X592648Y133251D01*
X596149Y136752D01*
X598919Y137899D01*
X599019Y137961D01*
X599119Y138021D01*
X599123Y138025D01*
X599128Y138029D01*
X599203Y138119D01*
X599279Y138208D01*
X599281Y138213D01*
X599285Y138218D01*
X599327Y138327D01*
X599371Y138436D01*
X599372Y138443D01*
X599373Y138448D01*
X599374Y138466D01*
X599389Y138602D01*
X599389Y257278D01*
X612988Y270877D01*
X613056Y270972D01*
X613126Y271066D01*
X613128Y271072D01*
X613132Y271077D01*
X613166Y271188D01*
X613202Y271300D01*
X613202Y271306D01*
X613204Y271312D01*
X613201Y271429D01*
X613200Y271546D01*
X613198Y271553D01*
X613198Y271558D01*
X613191Y271576D01*
X613153Y271707D01*
X612451Y273402D01*
X612451Y277598D01*
X614057Y281475D01*
X617025Y284443D01*
X620902Y286049D01*
X625098Y286049D01*
X628975Y284443D01*
X631943Y281475D01*
X633549Y277598D01*
X633549Y273402D01*
X631943Y269525D01*
X628975Y266557D01*
X625098Y264951D01*
X620902Y264951D01*
X619207Y265653D01*
X619093Y265680D01*
X618980Y265708D01*
X618974Y265708D01*
X618968Y265709D01*
X618851Y265698D01*
X618735Y265689D01*
X618729Y265687D01*
X618723Y265686D01*
X618615Y265638D01*
X618508Y265593D01*
X618503Y265588D01*
X618498Y265586D01*
X618484Y265574D01*
X618377Y265488D01*
X607234Y254344D01*
X607192Y254286D01*
X607145Y254237D01*
X607137Y254220D01*
X607121Y254201D01*
X607109Y254171D01*
X607090Y254145D01*
X607066Y254067D01*
X607042Y254014D01*
X607040Y254000D01*
X607029Y253973D01*
X607025Y253932D01*
X607018Y253910D01*
X607019Y253877D01*
X607011Y253806D01*
X607011Y138602D01*
X607030Y138488D01*
X607047Y138371D01*
X607049Y138366D01*
X607050Y138360D01*
X607105Y138257D01*
X607158Y138152D01*
X607163Y138148D01*
X607166Y138142D01*
X607250Y138062D01*
X607334Y137980D01*
X607340Y137976D01*
X607344Y137973D01*
X607361Y137965D01*
X607481Y137899D01*
X610251Y136752D01*
X613752Y133251D01*
X615197Y129762D01*
X615235Y129701D01*
X615264Y129636D01*
X615299Y129598D01*
X615326Y129553D01*
X615382Y129507D01*
X615430Y129455D01*
X615476Y129430D01*
X615516Y129396D01*
X615583Y129371D01*
X615646Y129336D01*
X615697Y129327D01*
X615745Y129308D01*
X615817Y129305D01*
X615888Y129292D01*
X615939Y129300D01*
X615991Y129298D01*
X616060Y129318D01*
X616131Y129328D01*
X616177Y129352D01*
X616227Y129366D01*
X616286Y129407D01*
X616350Y129440D01*
X616387Y129477D01*
X616429Y129507D01*
X616472Y129564D01*
X616522Y129615D01*
X616557Y129678D01*
X616576Y129704D01*
X616583Y129726D01*
X616603Y129762D01*
X618048Y133251D01*
X621549Y136752D01*
X624319Y137899D01*
X624419Y137961D01*
X624519Y138021D01*
X624523Y138025D01*
X624528Y138029D01*
X624603Y138119D01*
X624679Y138208D01*
X624681Y138213D01*
X624685Y138218D01*
X624727Y138327D01*
X624771Y138436D01*
X624772Y138443D01*
X624773Y138448D01*
X624774Y138466D01*
X624789Y138602D01*
X624789Y232678D01*
X662988Y270877D01*
X663056Y270972D01*
X663126Y271066D01*
X663128Y271072D01*
X663132Y271077D01*
X663166Y271188D01*
X663202Y271300D01*
X663202Y271306D01*
X663204Y271312D01*
X663201Y271429D01*
X663200Y271546D01*
X663198Y271553D01*
X663198Y271558D01*
X663191Y271576D01*
X663153Y271707D01*
X662451Y273402D01*
X662451Y277598D01*
X664057Y281475D01*
X667025Y284443D01*
X670902Y286049D01*
X675098Y286049D01*
X678975Y284443D01*
X681943Y281475D01*
X683549Y277598D01*
X683549Y273402D01*
X681943Y269525D01*
X678975Y266557D01*
X675098Y264951D01*
X670902Y264951D01*
X669207Y265653D01*
X669093Y265680D01*
X668980Y265708D01*
X668974Y265708D01*
X668968Y265709D01*
X668851Y265698D01*
X668735Y265689D01*
X668729Y265687D01*
X668723Y265686D01*
X668615Y265638D01*
X668508Y265593D01*
X668503Y265588D01*
X668498Y265586D01*
X668484Y265574D01*
X668377Y265488D01*
X632634Y229744D01*
X632581Y229671D01*
X632521Y229601D01*
X632509Y229571D01*
X632490Y229545D01*
X632463Y229458D01*
X632429Y229373D01*
X632425Y229332D01*
X632418Y229310D01*
X632419Y229277D01*
X632411Y229206D01*
X632411Y138602D01*
X632430Y138488D01*
X632447Y138372D01*
X632449Y138366D01*
X632450Y138360D01*
X632505Y138257D01*
X632558Y138152D01*
X632563Y138148D01*
X632566Y138142D01*
X632650Y138062D01*
X632734Y137980D01*
X632740Y137976D01*
X632744Y137973D01*
X632761Y137965D01*
X632881Y137899D01*
X635651Y136752D01*
X639152Y133251D01*
X640597Y129762D01*
X640635Y129701D01*
X640664Y129636D01*
X640699Y129598D01*
X640726Y129553D01*
X640782Y129507D01*
X640830Y129455D01*
X640876Y129430D01*
X640916Y129396D01*
X640983Y129371D01*
X641046Y129336D01*
X641097Y129327D01*
X641145Y129308D01*
X641217Y129305D01*
X641288Y129292D01*
X641339Y129300D01*
X641391Y129298D01*
X641460Y129318D01*
X641531Y129328D01*
X641577Y129352D01*
X641627Y129366D01*
X641686Y129407D01*
X641750Y129440D01*
X641787Y129477D01*
X641829Y129507D01*
X641872Y129564D01*
X641922Y129615D01*
X641957Y129678D01*
X641976Y129704D01*
X641983Y129726D01*
X642003Y129762D01*
X643448Y133251D01*
X646949Y136752D01*
X651524Y138647D01*
X656476Y138647D01*
X659246Y137499D01*
X659359Y137473D01*
X659473Y137444D01*
X659479Y137445D01*
X659485Y137443D01*
X659602Y137454D01*
X659718Y137463D01*
X659724Y137466D01*
X659730Y137466D01*
X659838Y137514D01*
X659944Y137560D01*
X659950Y137564D01*
X659955Y137566D01*
X659969Y137579D01*
X660075Y137664D01*
X773766Y251356D01*
X776222Y253811D01*
X1063206Y253811D01*
X1063296Y253825D01*
X1063387Y253833D01*
X1063417Y253845D01*
X1063449Y253850D01*
X1063530Y253893D01*
X1063614Y253929D01*
X1063646Y253955D01*
X1063666Y253966D01*
X1063689Y253989D01*
X1063744Y254034D01*
X1070588Y260877D01*
X1070655Y260970D01*
X1070677Y260993D01*
X1070685Y261011D01*
X1070726Y261066D01*
X1070728Y261072D01*
X1070732Y261077D01*
X1070763Y261178D01*
X1070781Y261216D01*
X1070784Y261242D01*
X1070802Y261300D01*
X1070802Y261306D01*
X1070804Y261312D01*
X1070802Y261406D01*
X1070808Y261461D01*
X1070800Y261494D01*
X1070800Y261546D01*
X1070798Y261553D01*
X1070798Y261558D01*
X1070791Y261576D01*
X1070757Y261693D01*
X1070756Y261701D01*
X1070754Y261703D01*
X1070753Y261707D01*
X1070051Y263402D01*
X1070051Y267598D01*
X1071657Y271475D01*
X1074625Y274443D01*
X1078502Y276049D01*
X1082698Y276049D01*
X1086575Y274443D01*
X1089543Y271475D01*
X1091149Y267598D01*
X1091149Y263402D01*
X1089543Y259525D01*
X1086575Y256557D01*
X1082698Y254951D01*
X1078502Y254951D01*
X1076807Y255653D01*
X1076693Y255680D01*
X1076580Y255708D01*
X1076574Y255708D01*
X1076568Y255709D01*
X1076451Y255698D01*
X1076335Y255689D01*
X1076329Y255687D01*
X1076323Y255686D01*
X1076215Y255638D01*
X1076108Y255593D01*
X1076103Y255588D01*
X1076098Y255586D01*
X1076084Y255574D01*
X1075977Y255488D01*
X1069134Y248644D01*
X1066678Y246189D01*
X779694Y246189D01*
X779604Y246175D01*
X779513Y246167D01*
X779483Y246155D01*
X779451Y246150D01*
X779370Y246107D01*
X779286Y246071D01*
X779254Y246045D01*
X779234Y246034D01*
X779211Y246011D01*
X779156Y245966D01*
X665464Y132275D01*
X665397Y132181D01*
X665327Y132087D01*
X665325Y132081D01*
X665321Y132076D01*
X665287Y131965D01*
X665250Y131853D01*
X665250Y131846D01*
X665249Y131840D01*
X665252Y131724D01*
X665253Y131607D01*
X665255Y131600D01*
X665255Y131595D01*
X665261Y131577D01*
X665299Y131446D01*
X665997Y129762D01*
X666035Y129701D01*
X666064Y129636D01*
X666099Y129598D01*
X666126Y129553D01*
X666182Y129507D01*
X666230Y129455D01*
X666276Y129430D01*
X666316Y129396D01*
X666383Y129371D01*
X666446Y129336D01*
X666497Y129327D01*
X666545Y129308D01*
X666617Y129305D01*
X666688Y129292D01*
X666739Y129300D01*
X666791Y129298D01*
X666860Y129318D01*
X666931Y129328D01*
X666977Y129352D01*
X667027Y129366D01*
X667086Y129407D01*
X667150Y129440D01*
X667187Y129477D01*
X667229Y129507D01*
X667272Y129564D01*
X667322Y129615D01*
X667357Y129678D01*
X667376Y129704D01*
X667383Y129726D01*
X667403Y129762D01*
X668848Y133251D01*
X672349Y136752D01*
X676924Y138647D01*
X681876Y138647D01*
X684646Y137499D01*
X684759Y137473D01*
X684873Y137444D01*
X684879Y137445D01*
X684885Y137443D01*
X685002Y137454D01*
X685118Y137463D01*
X685124Y137466D01*
X685130Y137466D01*
X685238Y137514D01*
X685344Y137560D01*
X685350Y137564D01*
X685355Y137566D01*
X685369Y137579D01*
X685475Y137664D01*
X779166Y231355D01*
X781622Y233811D01*
X1108106Y233811D01*
X1108196Y233825D01*
X1108287Y233833D01*
X1108317Y233845D01*
X1108349Y233850D01*
X1108430Y233893D01*
X1108514Y233929D01*
X1108546Y233955D01*
X1108566Y233966D01*
X1108589Y233989D01*
X1108644Y234034D01*
X1126566Y251956D01*
X1126619Y252029D01*
X1126679Y252099D01*
X1126691Y252129D01*
X1126710Y252155D01*
X1126737Y252242D01*
X1126771Y252327D01*
X1126775Y252368D01*
X1126782Y252390D01*
X1126781Y252423D01*
X1126789Y252494D01*
X1126789Y255152D01*
X1126770Y255267D01*
X1126753Y255383D01*
X1126751Y255389D01*
X1126750Y255395D01*
X1126695Y255497D01*
X1126642Y255602D01*
X1126637Y255607D01*
X1126634Y255612D01*
X1126550Y255692D01*
X1126466Y255774D01*
X1126460Y255778D01*
X1126456Y255781D01*
X1126439Y255789D01*
X1126319Y255855D01*
X1124625Y256557D01*
X1121657Y259525D01*
X1120051Y263402D01*
X1120051Y267598D01*
X1121657Y271475D01*
X1124625Y274443D01*
X1128502Y276049D01*
X1132698Y276049D01*
X1136575Y274443D01*
X1139543Y271475D01*
X1141149Y267598D01*
X1141149Y263402D01*
X1139543Y259525D01*
X1136575Y256557D01*
X1134881Y255855D01*
X1134781Y255793D01*
X1134681Y255734D01*
X1134677Y255729D01*
X1134672Y255726D01*
X1134597Y255635D01*
X1134521Y255547D01*
X1134519Y255541D01*
X1134515Y255536D01*
X1134473Y255428D01*
X1134429Y255319D01*
X1134428Y255311D01*
X1134427Y255307D01*
X1134426Y255288D01*
X1134411Y255152D01*
X1134411Y249022D01*
X1111578Y226189D01*
X785094Y226189D01*
X785004Y226175D01*
X784913Y226167D01*
X784883Y226155D01*
X784851Y226150D01*
X784770Y226107D01*
X784686Y226071D01*
X784654Y226045D01*
X784634Y226034D01*
X784611Y226011D01*
X784556Y225966D01*
X690864Y132275D01*
X690797Y132181D01*
X690727Y132087D01*
X690725Y132081D01*
X690721Y132076D01*
X690687Y131965D01*
X690650Y131853D01*
X690650Y131846D01*
X690649Y131840D01*
X690652Y131724D01*
X690653Y131607D01*
X690655Y131600D01*
X690655Y131595D01*
X690661Y131577D01*
X690699Y131446D01*
X691397Y129762D01*
X691435Y129701D01*
X691464Y129636D01*
X691499Y129598D01*
X691526Y129553D01*
X691582Y129507D01*
X691630Y129455D01*
X691676Y129430D01*
X691716Y129396D01*
X691783Y129371D01*
X691846Y129336D01*
X691897Y129327D01*
X691945Y129308D01*
X692017Y129305D01*
X692088Y129292D01*
X692139Y129300D01*
X692191Y129298D01*
X692260Y129318D01*
X692331Y129328D01*
X692377Y129352D01*
X692427Y129366D01*
X692486Y129407D01*
X692550Y129440D01*
X692587Y129477D01*
X692629Y129507D01*
X692672Y129564D01*
X692722Y129615D01*
X692757Y129678D01*
X692776Y129704D01*
X692783Y129726D01*
X692803Y129762D01*
X694248Y133251D01*
X697749Y136752D01*
X702324Y138647D01*
X707276Y138647D01*
X710046Y137499D01*
X710159Y137473D01*
X710273Y137444D01*
X710279Y137445D01*
X710285Y137443D01*
X710402Y137454D01*
X710518Y137463D01*
X710524Y137466D01*
X710530Y137466D01*
X710638Y137514D01*
X710744Y137560D01*
X710750Y137564D01*
X710755Y137566D01*
X710769Y137579D01*
X710875Y137664D01*
X784566Y211356D01*
X787022Y213811D01*
X1470806Y213811D01*
X1470896Y213825D01*
X1470987Y213833D01*
X1471017Y213845D01*
X1471049Y213850D01*
X1471130Y213893D01*
X1471214Y213929D01*
X1471246Y213955D01*
X1471266Y213966D01*
X1471289Y213989D01*
X1471344Y214034D01*
X1518188Y260877D01*
X1518255Y260970D01*
X1518277Y260993D01*
X1518285Y261011D01*
X1518326Y261066D01*
X1518328Y261072D01*
X1518332Y261077D01*
X1518363Y261178D01*
X1518381Y261216D01*
X1518384Y261242D01*
X1518402Y261300D01*
X1518402Y261306D01*
X1518404Y261312D01*
X1518402Y261406D01*
X1518408Y261461D01*
X1518400Y261494D01*
X1518400Y261546D01*
X1518398Y261553D01*
X1518398Y261558D01*
X1518391Y261576D01*
X1518357Y261693D01*
X1518356Y261701D01*
X1518354Y261703D01*
X1518353Y261707D01*
X1517651Y263402D01*
X1517651Y267598D01*
X1519257Y271475D01*
X1522225Y274443D01*
X1526102Y276049D01*
X1530298Y276049D01*
X1534175Y274443D01*
X1537143Y271475D01*
X1538749Y267598D01*
X1538749Y263402D01*
X1537143Y259525D01*
X1534175Y256557D01*
X1530298Y254951D01*
X1526102Y254951D01*
X1524407Y255653D01*
X1524293Y255680D01*
X1524180Y255708D01*
X1524174Y255708D01*
X1524168Y255709D01*
X1524051Y255698D01*
X1523935Y255689D01*
X1523929Y255687D01*
X1523923Y255686D01*
X1523815Y255638D01*
X1523708Y255593D01*
X1523703Y255588D01*
X1523698Y255586D01*
X1523684Y255574D01*
X1523577Y255488D01*
X1476734Y208644D01*
X1474278Y206189D01*
X790494Y206189D01*
X790404Y206175D01*
X790313Y206167D01*
X790283Y206155D01*
X790251Y206150D01*
X790170Y206107D01*
X790086Y206071D01*
X790054Y206045D01*
X790034Y206034D01*
X790011Y206011D01*
X789956Y205966D01*
X716264Y132275D01*
X716197Y132181D01*
X716127Y132087D01*
X716125Y132081D01*
X716121Y132076D01*
X716087Y131965D01*
X716050Y131853D01*
X716050Y131846D01*
X716049Y131840D01*
X716052Y131724D01*
X716053Y131607D01*
X716055Y131600D01*
X716055Y131595D01*
X716061Y131577D01*
X716099Y131446D01*
X716797Y129762D01*
X716835Y129701D01*
X716864Y129636D01*
X716899Y129597D01*
X716926Y129553D01*
X716982Y129507D01*
X717030Y129455D01*
X717076Y129430D01*
X717116Y129396D01*
X717183Y129371D01*
X717246Y129336D01*
X717297Y129327D01*
X717345Y129308D01*
X717417Y129305D01*
X717488Y129292D01*
X717539Y129300D01*
X717591Y129298D01*
X717660Y129318D01*
X717731Y129328D01*
X717777Y129352D01*
X717827Y129366D01*
X717886Y129407D01*
X717950Y129440D01*
X717987Y129477D01*
X718029Y129507D01*
X718072Y129564D01*
X718122Y129615D01*
X718157Y129678D01*
X718176Y129704D01*
X718183Y129726D01*
X718203Y129762D01*
X719648Y133251D01*
X723149Y136752D01*
X727724Y138647D01*
X732676Y138647D01*
X735446Y137499D01*
X735559Y137473D01*
X735673Y137444D01*
X735679Y137445D01*
X735685Y137443D01*
X735802Y137454D01*
X735918Y137463D01*
X735924Y137466D01*
X735930Y137466D01*
X736038Y137514D01*
X736144Y137560D01*
X736150Y137564D01*
X736155Y137566D01*
X736168Y137579D01*
X736275Y137664D01*
X792422Y193811D01*
X1518106Y193811D01*
X1518196Y193825D01*
X1518287Y193833D01*
X1518317Y193845D01*
X1518349Y193850D01*
X1518430Y193893D01*
X1518514Y193929D01*
X1518546Y193955D01*
X1518566Y193966D01*
X1518589Y193989D01*
X1518644Y194034D01*
X1574166Y249556D01*
X1574219Y249629D01*
X1574279Y249699D01*
X1574291Y249729D01*
X1574310Y249755D01*
X1574337Y249842D01*
X1574371Y249927D01*
X1574375Y249968D01*
X1574382Y249990D01*
X1574381Y250023D01*
X1574389Y250094D01*
X1574389Y255152D01*
X1574370Y255267D01*
X1574353Y255383D01*
X1574351Y255389D01*
X1574350Y255395D01*
X1574295Y255497D01*
X1574242Y255602D01*
X1574237Y255607D01*
X1574234Y255612D01*
X1574150Y255692D01*
X1574066Y255774D01*
X1574060Y255778D01*
X1574056Y255781D01*
X1574039Y255789D01*
X1573919Y255855D01*
X1572225Y256557D01*
X1569257Y259525D01*
X1567651Y263402D01*
X1567651Y267598D01*
X1569257Y271475D01*
X1572225Y274443D01*
X1576102Y276049D01*
X1580298Y276049D01*
X1584175Y274443D01*
X1587143Y271475D01*
X1588749Y267598D01*
X1588749Y263402D01*
X1587143Y259525D01*
X1584175Y256557D01*
X1582481Y255855D01*
X1582381Y255793D01*
X1582281Y255734D01*
X1582277Y255729D01*
X1582272Y255726D01*
X1582197Y255635D01*
X1582121Y255547D01*
X1582119Y255541D01*
X1582115Y255536D01*
X1582073Y255428D01*
X1582029Y255319D01*
X1582028Y255311D01*
X1582027Y255307D01*
X1582026Y255288D01*
X1582011Y255152D01*
X1582011Y246622D01*
X1521578Y186189D01*
X795894Y186189D01*
X795804Y186175D01*
X795713Y186167D01*
X795683Y186155D01*
X795651Y186150D01*
X795570Y186107D01*
X795486Y186071D01*
X795454Y186045D01*
X795434Y186034D01*
X795411Y186011D01*
X795356Y185966D01*
X741664Y132275D01*
X741597Y132181D01*
X741527Y132087D01*
X741525Y132081D01*
X741521Y132075D01*
X741487Y131965D01*
X741450Y131853D01*
X741450Y131846D01*
X741449Y131840D01*
X741452Y131724D01*
X741453Y131607D01*
X741455Y131600D01*
X741455Y131595D01*
X741461Y131577D01*
X741499Y131446D01*
X742647Y128676D01*
X742647Y123724D01*
X740752Y119149D01*
X737251Y115648D01*
X732952Y113868D01*
X732866Y113814D01*
X732777Y113766D01*
X732762Y113750D01*
X732743Y113738D01*
X732679Y113660D01*
X732610Y113586D01*
X732601Y113566D01*
X732587Y113549D01*
X732550Y113454D01*
X732509Y113362D01*
X732506Y113340D01*
X732498Y113319D01*
X732494Y113218D01*
X732484Y113117D01*
X732489Y113096D01*
X732488Y113073D01*
X732516Y112976D01*
X732539Y112877D01*
X732550Y112858D01*
X732556Y112837D01*
X732614Y112754D01*
X732667Y112668D01*
X732684Y112653D01*
X732697Y112635D01*
X732778Y112575D01*
X732856Y112510D01*
X732881Y112498D01*
X732894Y112488D01*
X732925Y112478D01*
X733009Y112441D01*
X734783Y111864D01*
X736457Y111011D01*
X737978Y109906D01*
X739306Y108578D01*
X740411Y107057D01*
X741264Y105383D01*
X741845Y103596D01*
X742046Y102323D01*
X730962Y102323D01*
X730942Y102320D01*
X730923Y102322D01*
X730821Y102300D01*
X730719Y102283D01*
X730702Y102274D01*
X730682Y102270D01*
X730593Y102217D01*
X730502Y102168D01*
X730488Y102154D01*
X730471Y102144D01*
X730404Y102065D01*
X730333Y101990D01*
X730324Y101972D01*
X730311Y101957D01*
X730273Y101861D01*
X730229Y101767D01*
X730227Y101747D01*
X730219Y101729D01*
X730201Y101562D01*
X730201Y100799D01*
X730199Y100799D01*
X730199Y101562D01*
X730196Y101580D01*
X730198Y101598D01*
X730198Y101599D01*
X730198Y101601D01*
X730176Y101703D01*
X730159Y101805D01*
X730150Y101822D01*
X730146Y101842D01*
X730093Y101931D01*
X730044Y102022D01*
X730030Y102036D01*
X730020Y102053D01*
X729941Y102120D01*
X729866Y102191D01*
X729848Y102200D01*
X729833Y102213D01*
X729737Y102252D01*
X729643Y102295D01*
X729623Y102297D01*
X729605Y102305D01*
X729438Y102323D01*
X718354Y102323D01*
X718555Y103596D01*
X719136Y105383D01*
X719989Y107057D01*
X721094Y108578D01*
X722422Y109906D01*
X723943Y111011D01*
X725617Y111864D01*
X727391Y112441D01*
X727482Y112487D01*
X727574Y112528D01*
X727590Y112543D01*
X727610Y112553D01*
X727681Y112626D01*
X727755Y112695D01*
X727766Y112714D01*
X727781Y112730D01*
X727825Y112821D01*
X727874Y112910D01*
X727878Y112932D01*
X727887Y112952D01*
X727899Y113052D01*
X727917Y113152D01*
X727914Y113174D01*
X727917Y113196D01*
X727896Y113295D01*
X727882Y113396D01*
X727872Y113415D01*
X727867Y113437D01*
X727816Y113524D01*
X727770Y113615D01*
X727754Y113630D01*
X727743Y113649D01*
X727667Y113716D01*
X727595Y113787D01*
X727570Y113800D01*
X727558Y113811D01*
X727528Y113824D01*
X727448Y113868D01*
X723149Y115648D01*
X719648Y119149D01*
X718203Y122638D01*
X718165Y122699D01*
X718136Y122764D01*
X718101Y122802D01*
X718074Y122847D01*
X718018Y122893D01*
X717970Y122945D01*
X717924Y122970D01*
X717884Y123004D01*
X717817Y123029D01*
X717754Y123064D01*
X717703Y123073D01*
X717655Y123092D01*
X717583Y123095D01*
X717512Y123108D01*
X717461Y123100D01*
X717409Y123102D01*
X717340Y123082D01*
X717269Y123072D01*
X717223Y123048D01*
X717173Y123034D01*
X717114Y122993D01*
X717050Y122960D01*
X717013Y122923D01*
X716971Y122893D01*
X716928Y122836D01*
X716878Y122785D01*
X716843Y122722D01*
X716824Y122696D01*
X716817Y122674D01*
X716797Y122638D01*
X715352Y119149D01*
X711851Y115648D01*
X707552Y113868D01*
X707466Y113814D01*
X707377Y113766D01*
X707362Y113750D01*
X707343Y113738D01*
X707279Y113660D01*
X707210Y113586D01*
X707201Y113566D01*
X707187Y113549D01*
X707150Y113454D01*
X707109Y113362D01*
X707106Y113340D01*
X707098Y113319D01*
X707094Y113218D01*
X707084Y113117D01*
X707089Y113096D01*
X707088Y113073D01*
X707116Y112976D01*
X707139Y112877D01*
X707150Y112858D01*
X707157Y112837D01*
X707214Y112754D01*
X707267Y112668D01*
X707284Y112653D01*
X707297Y112635D01*
X707378Y112575D01*
X707456Y112510D01*
X707481Y112498D01*
X707494Y112488D01*
X707525Y112478D01*
X707609Y112441D01*
X709383Y111864D01*
X711057Y111011D01*
X712578Y109906D01*
X713906Y108578D01*
X715011Y107057D01*
X715864Y105383D01*
X716445Y103596D01*
X716646Y102323D01*
X705562Y102323D01*
X705542Y102320D01*
X705523Y102322D01*
X705421Y102300D01*
X705319Y102283D01*
X705302Y102274D01*
X705282Y102270D01*
X705193Y102217D01*
X705102Y102168D01*
X705088Y102154D01*
X705071Y102144D01*
X705004Y102065D01*
X704933Y101990D01*
X704924Y101972D01*
X704911Y101957D01*
X704873Y101861D01*
X704829Y101767D01*
X704827Y101747D01*
X704819Y101729D01*
X704801Y101562D01*
X704801Y100799D01*
X704799Y100799D01*
X704799Y101562D01*
X704796Y101580D01*
X704798Y101598D01*
X704798Y101599D01*
X704798Y101601D01*
X704776Y101703D01*
X704759Y101805D01*
X704750Y101822D01*
X704746Y101842D01*
X704693Y101931D01*
X704644Y102022D01*
X704630Y102036D01*
X704620Y102053D01*
X704541Y102120D01*
X704466Y102191D01*
X704448Y102200D01*
X704433Y102213D01*
X704337Y102252D01*
X704243Y102295D01*
X704223Y102297D01*
X704205Y102305D01*
X704038Y102323D01*
X692954Y102323D01*
X693155Y103596D01*
X693736Y105383D01*
X694589Y107057D01*
X695694Y108578D01*
X697022Y109906D01*
X698543Y111011D01*
X700217Y111864D01*
X701991Y112441D01*
X702081Y112487D01*
X702174Y112528D01*
X702190Y112543D01*
X702210Y112553D01*
X702280Y112626D01*
X702355Y112695D01*
X702366Y112714D01*
X702381Y112730D01*
X702425Y112821D01*
X702474Y112910D01*
X702478Y112932D01*
X702487Y112952D01*
X702499Y113052D01*
X702517Y113152D01*
X702514Y113174D01*
X702517Y113196D01*
X702496Y113295D01*
X702482Y113395D01*
X702472Y113415D01*
X702467Y113437D01*
X702416Y113524D01*
X702370Y113615D01*
X702354Y113630D01*
X702343Y113649D01*
X702267Y113716D01*
X702195Y113787D01*
X702170Y113800D01*
X702158Y113811D01*
X702128Y113824D01*
X702048Y113868D01*
X697749Y115648D01*
X694248Y119149D01*
X692803Y122638D01*
X692765Y122699D01*
X692736Y122764D01*
X692701Y122802D01*
X692674Y122847D01*
X692618Y122892D01*
X692570Y122945D01*
X692524Y122970D01*
X692484Y123004D01*
X692417Y123029D01*
X692354Y123064D01*
X692303Y123073D01*
X692255Y123092D01*
X692183Y123095D01*
X692112Y123108D01*
X692061Y123100D01*
X692009Y123102D01*
X691940Y123082D01*
X691869Y123072D01*
X691823Y123048D01*
X691773Y123034D01*
X691714Y122993D01*
X691650Y122960D01*
X691613Y122923D01*
X691571Y122893D01*
X691528Y122836D01*
X691478Y122785D01*
X691443Y122722D01*
X691424Y122696D01*
X691417Y122674D01*
X691397Y122638D01*
X689952Y119149D01*
X686451Y115648D01*
X682152Y113868D01*
X682066Y113814D01*
X681977Y113766D01*
X681962Y113750D01*
X681943Y113738D01*
X681879Y113660D01*
X681810Y113586D01*
X681801Y113566D01*
X681787Y113549D01*
X681750Y113454D01*
X681709Y113362D01*
X681706Y113340D01*
X681698Y113319D01*
X681694Y113218D01*
X681684Y113117D01*
X681689Y113096D01*
X681688Y113073D01*
X681716Y112976D01*
X681739Y112877D01*
X681750Y112858D01*
X681757Y112837D01*
X681814Y112754D01*
X681867Y112668D01*
X681884Y112653D01*
X681897Y112635D01*
X681978Y112575D01*
X682056Y112510D01*
X682081Y112498D01*
X682094Y112488D01*
X682125Y112478D01*
X682209Y112441D01*
X683983Y111864D01*
X685657Y111011D01*
X687178Y109906D01*
X688506Y108578D01*
X689611Y107057D01*
X690464Y105383D01*
X691045Y103596D01*
X691246Y102323D01*
X680162Y102323D01*
X680142Y102320D01*
X680123Y102322D01*
X680021Y102300D01*
X679919Y102283D01*
X679902Y102274D01*
X679882Y102270D01*
X679793Y102217D01*
X679702Y102168D01*
X679688Y102154D01*
X679671Y102144D01*
X679604Y102065D01*
X679533Y101990D01*
X679524Y101972D01*
X679511Y101957D01*
X679473Y101861D01*
X679429Y101767D01*
X679427Y101747D01*
X679419Y101729D01*
X679401Y101562D01*
X679401Y100799D01*
X679399Y100799D01*
X679399Y101562D01*
X679396Y101580D01*
X679398Y101598D01*
X679398Y101599D01*
X679398Y101601D01*
X679376Y101703D01*
X679359Y101805D01*
X679350Y101822D01*
X679346Y101842D01*
X679293Y101931D01*
X679244Y102022D01*
X679230Y102036D01*
X679220Y102053D01*
X679141Y102120D01*
X679066Y102191D01*
X679048Y102200D01*
X679033Y102213D01*
X678937Y102252D01*
X678843Y102295D01*
X678823Y102297D01*
X678805Y102305D01*
X678638Y102323D01*
X667554Y102323D01*
X667755Y103596D01*
X668336Y105383D01*
X669189Y107057D01*
X670294Y108578D01*
X671622Y109906D01*
X673143Y111011D01*
X674817Y111864D01*
X676591Y112441D01*
X676681Y112487D01*
X676774Y112528D01*
X676790Y112543D01*
X676810Y112553D01*
X676880Y112626D01*
X676955Y112695D01*
X676966Y112714D01*
X676981Y112730D01*
X677025Y112821D01*
X677074Y112910D01*
X677078Y112932D01*
X677087Y112952D01*
X677099Y113052D01*
X677117Y113152D01*
X677114Y113174D01*
X677117Y113196D01*
X677096Y113295D01*
X677082Y113395D01*
X677072Y113415D01*
X677067Y113437D01*
X677016Y113524D01*
X676970Y113615D01*
X676954Y113630D01*
X676943Y113649D01*
X676867Y113716D01*
X676795Y113787D01*
X676770Y113800D01*
X676758Y113811D01*
X676728Y113824D01*
X676648Y113868D01*
X672349Y115648D01*
X668848Y119149D01*
X667403Y122638D01*
X667365Y122699D01*
X667336Y122764D01*
X667301Y122802D01*
X667274Y122847D01*
X667218Y122892D01*
X667170Y122945D01*
X667124Y122970D01*
X667084Y123004D01*
X667017Y123029D01*
X666954Y123064D01*
X666903Y123073D01*
X666855Y123092D01*
X666783Y123095D01*
X666712Y123108D01*
X666661Y123100D01*
X666609Y123102D01*
X666540Y123082D01*
X666469Y123072D01*
X666423Y123048D01*
X666373Y123034D01*
X666314Y122993D01*
X666250Y122960D01*
X666213Y122923D01*
X666171Y122893D01*
X666128Y122836D01*
X666078Y122785D01*
X666043Y122722D01*
X666024Y122696D01*
X666017Y122674D01*
X665997Y122638D01*
X664552Y119149D01*
X661051Y115648D01*
X656752Y113868D01*
X656666Y113814D01*
X656577Y113766D01*
X656562Y113750D01*
X656543Y113738D01*
X656479Y113660D01*
X656410Y113586D01*
X656401Y113566D01*
X656387Y113549D01*
X656350Y113454D01*
X656309Y113362D01*
X656306Y113340D01*
X656298Y113319D01*
X656294Y113218D01*
X656284Y113117D01*
X656289Y113096D01*
X656288Y113073D01*
X656316Y112976D01*
X656339Y112877D01*
X656350Y112858D01*
X656357Y112837D01*
X656414Y112754D01*
X656467Y112668D01*
X656484Y112653D01*
X656497Y112635D01*
X656578Y112575D01*
X656656Y112510D01*
X656681Y112498D01*
X656694Y112488D01*
X656725Y112478D01*
X656809Y112441D01*
X658583Y111864D01*
X660257Y111011D01*
X661778Y109906D01*
X663106Y108578D01*
X664211Y107057D01*
X665064Y105383D01*
X665645Y103596D01*
X665846Y102323D01*
X654762Y102323D01*
X654742Y102320D01*
X654723Y102322D01*
X654621Y102300D01*
X654519Y102283D01*
X654502Y102274D01*
X654482Y102270D01*
X654393Y102217D01*
X654302Y102168D01*
X654288Y102154D01*
X654271Y102144D01*
X654204Y102065D01*
X654133Y101990D01*
X654124Y101972D01*
X654111Y101957D01*
X654073Y101861D01*
X654029Y101767D01*
X654027Y101747D01*
X654019Y101729D01*
X654001Y101562D01*
X654001Y100799D01*
X653999Y100799D01*
X653999Y101562D01*
X653996Y101580D01*
X653998Y101598D01*
X653998Y101599D01*
X653998Y101601D01*
X653976Y101703D01*
X653959Y101805D01*
X653950Y101822D01*
X653946Y101842D01*
X653893Y101931D01*
X653844Y102022D01*
X653830Y102036D01*
X653820Y102053D01*
X653741Y102120D01*
X653666Y102191D01*
X653648Y102200D01*
X653633Y102213D01*
X653537Y102252D01*
X653443Y102295D01*
X653423Y102297D01*
X653405Y102305D01*
X653238Y102323D01*
X642154Y102323D01*
X642355Y103596D01*
X642936Y105383D01*
X643789Y107057D01*
X644894Y108578D01*
X646222Y109906D01*
X647743Y111011D01*
X649417Y111864D01*
X651191Y112441D01*
X651281Y112487D01*
X651374Y112528D01*
X651390Y112543D01*
X651410Y112553D01*
X651480Y112626D01*
X651555Y112695D01*
X651566Y112714D01*
X651581Y112730D01*
X651625Y112821D01*
X651674Y112910D01*
X651678Y112932D01*
X651687Y112952D01*
X651699Y113052D01*
X651717Y113152D01*
X651714Y113174D01*
X651717Y113196D01*
X651696Y113295D01*
X651682Y113395D01*
X651672Y113415D01*
X651667Y113437D01*
X651616Y113524D01*
X651570Y113615D01*
X651554Y113630D01*
X651543Y113649D01*
X651467Y113716D01*
X651395Y113787D01*
X651370Y113800D01*
X651358Y113811D01*
X651328Y113824D01*
X651248Y113868D01*
X646949Y115648D01*
X643448Y119149D01*
X642003Y122638D01*
X641965Y122699D01*
X641936Y122764D01*
X641901Y122803D01*
X641874Y122847D01*
X641818Y122893D01*
X641770Y122945D01*
X641724Y122970D01*
X641684Y123004D01*
X641617Y123029D01*
X641554Y123064D01*
X641503Y123073D01*
X641455Y123092D01*
X641383Y123095D01*
X641312Y123108D01*
X641261Y123100D01*
X641209Y123102D01*
X641140Y123082D01*
X641069Y123072D01*
X641023Y123048D01*
X640973Y123034D01*
X640914Y122993D01*
X640850Y122960D01*
X640813Y122923D01*
X640771Y122893D01*
X640728Y122836D01*
X640678Y122785D01*
X640643Y122722D01*
X640624Y122696D01*
X640617Y122674D01*
X640597Y122638D01*
X639152Y119149D01*
X635651Y115648D01*
X631352Y113868D01*
X631266Y113814D01*
X631177Y113766D01*
X631162Y113750D01*
X631143Y113738D01*
X631079Y113660D01*
X631010Y113586D01*
X631001Y113566D01*
X630987Y113549D01*
X630950Y113454D01*
X630909Y113362D01*
X630906Y113340D01*
X630898Y113319D01*
X630894Y113218D01*
X630884Y113117D01*
X630889Y113096D01*
X630888Y113073D01*
X630916Y112976D01*
X630939Y112877D01*
X630950Y112858D01*
X630957Y112837D01*
X631014Y112754D01*
X631067Y112668D01*
X631084Y112653D01*
X631097Y112635D01*
X631178Y112575D01*
X631256Y112510D01*
X631281Y112498D01*
X631294Y112488D01*
X631325Y112478D01*
X631409Y112441D01*
X633183Y111864D01*
X634857Y111011D01*
X636378Y109906D01*
X637706Y108578D01*
X638811Y107057D01*
X639664Y105383D01*
X640245Y103596D01*
X640446Y102323D01*
X629362Y102323D01*
X629342Y102320D01*
X629323Y102322D01*
X629221Y102300D01*
X629119Y102283D01*
X629102Y102274D01*
X629082Y102270D01*
X628993Y102217D01*
X628902Y102168D01*
X628888Y102154D01*
X628871Y102144D01*
X628804Y102065D01*
X628733Y101990D01*
X628724Y101972D01*
X628711Y101957D01*
X628673Y101861D01*
X628629Y101767D01*
X628627Y101747D01*
X628619Y101729D01*
X628601Y101562D01*
X628601Y100799D01*
X628599Y100799D01*
X628599Y101562D01*
X628596Y101580D01*
X628598Y101598D01*
X628598Y101599D01*
X628598Y101601D01*
X628576Y101703D01*
X628559Y101805D01*
X628550Y101822D01*
X628546Y101842D01*
X628493Y101931D01*
X628444Y102022D01*
X628430Y102036D01*
X628420Y102053D01*
X628341Y102120D01*
X628266Y102191D01*
X628248Y102200D01*
X628233Y102213D01*
X628137Y102252D01*
X628043Y102295D01*
X628023Y102297D01*
X628005Y102305D01*
X627838Y102323D01*
X616754Y102323D01*
X616955Y103596D01*
X617536Y105383D01*
X618389Y107057D01*
X619494Y108578D01*
X620822Y109906D01*
X622343Y111011D01*
X624017Y111864D01*
X625791Y112441D01*
X625881Y112487D01*
X625974Y112528D01*
X625990Y112543D01*
X626010Y112553D01*
X626080Y112626D01*
X626155Y112695D01*
X626166Y112714D01*
X626181Y112730D01*
X626225Y112821D01*
X626274Y112910D01*
X626278Y112932D01*
X626287Y112952D01*
X626299Y113052D01*
X626317Y113152D01*
X626314Y113174D01*
X626317Y113196D01*
X626296Y113295D01*
X626282Y113395D01*
X626272Y113415D01*
X626267Y113437D01*
X626216Y113524D01*
X626170Y113615D01*
X626154Y113630D01*
X626143Y113649D01*
X626067Y113716D01*
X625995Y113787D01*
X625970Y113800D01*
X625958Y113811D01*
X625928Y113824D01*
X625848Y113868D01*
X621549Y115648D01*
X618048Y119149D01*
X616603Y122638D01*
X616565Y122699D01*
X616536Y122764D01*
X616501Y122803D01*
X616474Y122847D01*
X616418Y122893D01*
X616370Y122945D01*
X616324Y122970D01*
X616284Y123004D01*
X616217Y123029D01*
X616154Y123064D01*
X616103Y123073D01*
X616055Y123092D01*
X615983Y123095D01*
X615912Y123108D01*
X615861Y123100D01*
X615809Y123102D01*
X615740Y123082D01*
X615669Y123072D01*
X615623Y123048D01*
X615573Y123034D01*
X615514Y122993D01*
X615450Y122960D01*
X615413Y122923D01*
X615371Y122893D01*
X615328Y122836D01*
X615278Y122785D01*
X615243Y122722D01*
X615224Y122696D01*
X615217Y122674D01*
X615197Y122638D01*
X613752Y119149D01*
X610251Y115648D01*
X605952Y113868D01*
X605866Y113814D01*
X605777Y113766D01*
X605762Y113750D01*
X605743Y113738D01*
X605679Y113660D01*
X605610Y113586D01*
X605601Y113566D01*
X605587Y113549D01*
X605550Y113454D01*
X605509Y113362D01*
X605506Y113340D01*
X605498Y113319D01*
X605494Y113218D01*
X605484Y113117D01*
X605489Y113096D01*
X605488Y113073D01*
X605516Y112976D01*
X605539Y112877D01*
X605550Y112858D01*
X605557Y112837D01*
X605614Y112754D01*
X605667Y112668D01*
X605684Y112653D01*
X605697Y112635D01*
X605778Y112575D01*
X605856Y112510D01*
X605881Y112498D01*
X605894Y112488D01*
X605925Y112478D01*
X606009Y112441D01*
X607783Y111864D01*
X609457Y111011D01*
X610978Y109906D01*
X612306Y108578D01*
X613411Y107057D01*
X614264Y105383D01*
X614845Y103596D01*
X615046Y102323D01*
X603962Y102323D01*
X603942Y102320D01*
X603923Y102322D01*
X603821Y102300D01*
X603719Y102283D01*
X603702Y102274D01*
X603682Y102270D01*
X603593Y102217D01*
X603502Y102168D01*
X603488Y102154D01*
X603471Y102144D01*
X603404Y102065D01*
X603333Y101990D01*
X603324Y101972D01*
X603311Y101957D01*
X603273Y101861D01*
X603229Y101767D01*
X603227Y101747D01*
X603219Y101729D01*
X603201Y101562D01*
X603201Y100799D01*
X603199Y100799D01*
X603199Y101562D01*
X603196Y101580D01*
X603198Y101598D01*
X603198Y101599D01*
X603198Y101601D01*
X603176Y101703D01*
X603159Y101805D01*
X603150Y101822D01*
X603146Y101842D01*
X603093Y101931D01*
X603044Y102022D01*
X603030Y102036D01*
X603020Y102053D01*
X602941Y102120D01*
X602866Y102191D01*
X602848Y102200D01*
X602833Y102213D01*
X602737Y102252D01*
X602643Y102295D01*
X602623Y102297D01*
X602605Y102305D01*
X602438Y102323D01*
X591354Y102323D01*
X591555Y103596D01*
X592136Y105383D01*
X592989Y107057D01*
X594094Y108578D01*
X595422Y109906D01*
X596943Y111011D01*
X598617Y111864D01*
X600391Y112441D01*
X600481Y112487D01*
X600574Y112528D01*
X600590Y112543D01*
X600610Y112553D01*
X600681Y112626D01*
X600755Y112695D01*
X600766Y112714D01*
X600781Y112730D01*
X600825Y112821D01*
X600874Y112910D01*
X600878Y112932D01*
X600887Y112952D01*
X600899Y113052D01*
X600917Y113152D01*
X600914Y113174D01*
X600917Y113196D01*
X600896Y113295D01*
X600882Y113395D01*
X600872Y113415D01*
X600867Y113437D01*
X600816Y113524D01*
X600770Y113615D01*
X600754Y113630D01*
X600743Y113649D01*
X600667Y113716D01*
X600595Y113787D01*
X600570Y113800D01*
X600558Y113811D01*
X600528Y113824D01*
X600448Y113868D01*
X596149Y115648D01*
X592648Y119149D01*
X591203Y122638D01*
X591165Y122699D01*
X591136Y122764D01*
X591101Y122803D01*
X591074Y122847D01*
X591018Y122893D01*
X590970Y122945D01*
X590924Y122970D01*
X590884Y123004D01*
X590817Y123029D01*
X590754Y123064D01*
X590703Y123073D01*
X590655Y123092D01*
X590583Y123095D01*
X590512Y123108D01*
X590461Y123100D01*
X590409Y123102D01*
X590340Y123082D01*
X590269Y123072D01*
X590223Y123048D01*
X590173Y123034D01*
X590114Y122993D01*
X590050Y122960D01*
X590013Y122923D01*
X589971Y122893D01*
X589928Y122836D01*
X589878Y122785D01*
X589843Y122722D01*
X589824Y122696D01*
X589817Y122674D01*
X589797Y122638D01*
X588352Y119149D01*
X584851Y115648D01*
X580552Y113868D01*
X580466Y113814D01*
X580377Y113766D01*
X580362Y113750D01*
X580343Y113738D01*
X580279Y113660D01*
X580210Y113586D01*
X580201Y113566D01*
X580187Y113549D01*
X580150Y113454D01*
X580109Y113362D01*
X580106Y113340D01*
X580098Y113319D01*
X580094Y113218D01*
X580084Y113117D01*
X580089Y113096D01*
X580088Y113073D01*
X580116Y112976D01*
X580139Y112877D01*
X580150Y112858D01*
X580156Y112837D01*
X580214Y112754D01*
X580267Y112668D01*
X580284Y112653D01*
X580297Y112635D01*
X580378Y112575D01*
X580456Y112510D01*
X580481Y112498D01*
X580494Y112488D01*
X580525Y112478D01*
X580609Y112441D01*
X582383Y111864D01*
X584057Y111011D01*
X585578Y109906D01*
X586906Y108578D01*
X588011Y107057D01*
X588864Y105383D01*
X589445Y103596D01*
X589646Y102323D01*
X578562Y102323D01*
X578542Y102320D01*
X578523Y102322D01*
X578421Y102300D01*
X578319Y102283D01*
X578302Y102274D01*
X578282Y102270D01*
X578193Y102217D01*
X578102Y102168D01*
X578088Y102154D01*
X578071Y102144D01*
X578004Y102065D01*
X577933Y101990D01*
X577924Y101972D01*
X577911Y101957D01*
X577873Y101861D01*
X577829Y101767D01*
X577827Y101747D01*
X577819Y101729D01*
X577801Y101562D01*
X577801Y100799D01*
X577799Y100799D01*
X577799Y101562D01*
X577796Y101580D01*
X577798Y101598D01*
X577798Y101599D01*
X577798Y101601D01*
X577776Y101703D01*
X577759Y101805D01*
X577750Y101822D01*
X577746Y101842D01*
X577693Y101931D01*
X577644Y102022D01*
X577630Y102036D01*
X577620Y102053D01*
X577541Y102120D01*
X577466Y102191D01*
X577448Y102200D01*
X577433Y102213D01*
X577337Y102252D01*
X577243Y102295D01*
X577223Y102297D01*
X577205Y102305D01*
X577038Y102323D01*
X565954Y102323D01*
X566155Y103596D01*
X566736Y105383D01*
X567589Y107057D01*
X568694Y108578D01*
X570022Y109906D01*
X571543Y111011D01*
X573217Y111864D01*
X574991Y112441D01*
X575082Y112487D01*
X575174Y112528D01*
X575190Y112543D01*
X575210Y112553D01*
X575281Y112626D01*
X575355Y112695D01*
X575366Y112714D01*
X575381Y112730D01*
X575425Y112821D01*
X575474Y112910D01*
X575478Y112932D01*
X575487Y112952D01*
X575499Y113052D01*
X575517Y113152D01*
X575514Y113174D01*
X575517Y113196D01*
X575496Y113295D01*
X575482Y113396D01*
X575472Y113415D01*
X575467Y113437D01*
X575416Y113524D01*
X575370Y113615D01*
X575354Y113630D01*
X575343Y113649D01*
X575267Y113716D01*
X575195Y113787D01*
X575170Y113800D01*
X575158Y113811D01*
X575128Y113824D01*
X575048Y113868D01*
X570749Y115648D01*
X567248Y119149D01*
X565803Y122638D01*
X565765Y122699D01*
X565736Y122764D01*
X565701Y122802D01*
X565674Y122847D01*
X565618Y122893D01*
X565570Y122945D01*
X565524Y122970D01*
X565484Y123004D01*
X565417Y123029D01*
X565354Y123064D01*
X565303Y123073D01*
X565255Y123092D01*
X565183Y123095D01*
X565112Y123108D01*
X565061Y123100D01*
X565009Y123102D01*
X564940Y123082D01*
X564869Y123072D01*
X564823Y123048D01*
X564773Y123034D01*
X564714Y122993D01*
X564650Y122960D01*
X564613Y122923D01*
X564571Y122893D01*
X564528Y122836D01*
X564478Y122785D01*
X564443Y122722D01*
X564424Y122696D01*
X564417Y122674D01*
X564397Y122638D01*
X562952Y119149D01*
X559451Y115648D01*
X555152Y113868D01*
X555066Y113814D01*
X554977Y113766D01*
X554962Y113750D01*
X554943Y113738D01*
X554879Y113660D01*
X554810Y113586D01*
X554801Y113566D01*
X554787Y113549D01*
X554750Y113454D01*
X554709Y113362D01*
X554706Y113340D01*
X554698Y113319D01*
X554694Y113218D01*
X554684Y113117D01*
X554689Y113096D01*
X554688Y113073D01*
X554716Y112976D01*
X554739Y112877D01*
X554750Y112858D01*
X554757Y112837D01*
X554814Y112754D01*
X554867Y112668D01*
X554884Y112653D01*
X554897Y112635D01*
X554978Y112575D01*
X555056Y112510D01*
X555081Y112498D01*
X555094Y112488D01*
X555125Y112478D01*
X555209Y112441D01*
X556983Y111864D01*
X558657Y111011D01*
X560178Y109906D01*
X561506Y108578D01*
X562611Y107057D01*
X563464Y105383D01*
X564045Y103596D01*
X564246Y102323D01*
X553162Y102323D01*
X553142Y102320D01*
X553123Y102322D01*
X553021Y102300D01*
X552919Y102283D01*
X552902Y102274D01*
X552882Y102270D01*
X552793Y102217D01*
X552702Y102168D01*
X552688Y102154D01*
X552671Y102144D01*
X552604Y102065D01*
X552533Y101990D01*
X552524Y101972D01*
X552511Y101957D01*
X552473Y101861D01*
X552429Y101767D01*
X552427Y101747D01*
X552419Y101729D01*
X552401Y101562D01*
X552401Y100799D01*
X552399Y100799D01*
G37*
%LPD*%
%LPC*%
G36*
X999999Y99999D02*
X999999Y99999D01*
X999999Y100762D01*
X999996Y100782D01*
X999998Y100801D01*
X999976Y100903D01*
X999959Y101005D01*
X999950Y101022D01*
X999946Y101042D01*
X999893Y101131D01*
X999844Y101222D01*
X999830Y101236D01*
X999820Y101253D01*
X999741Y101320D01*
X999666Y101391D01*
X999648Y101400D01*
X999633Y101413D01*
X999537Y101452D01*
X999443Y101495D01*
X999423Y101497D01*
X999405Y101505D01*
X999238Y101523D01*
X988154Y101523D01*
X988355Y102796D01*
X988936Y104583D01*
X989789Y106257D01*
X990894Y107778D01*
X992222Y109106D01*
X993743Y110211D01*
X995417Y111064D01*
X997191Y111641D01*
X997281Y111687D01*
X997374Y111728D01*
X997390Y111743D01*
X997410Y111753D01*
X997481Y111826D01*
X997555Y111895D01*
X997566Y111914D01*
X997581Y111930D01*
X997625Y112021D01*
X997674Y112110D01*
X997678Y112132D01*
X997687Y112152D01*
X997699Y112252D01*
X997717Y112352D01*
X997714Y112374D01*
X997717Y112396D01*
X997696Y112495D01*
X997682Y112595D01*
X997672Y112615D01*
X997667Y112637D01*
X997616Y112724D01*
X997570Y112815D01*
X997554Y112830D01*
X997543Y112849D01*
X997467Y112916D01*
X997395Y112987D01*
X997370Y113000D01*
X997358Y113011D01*
X997328Y113024D01*
X997248Y113068D01*
X992949Y114848D01*
X989448Y118349D01*
X987553Y122924D01*
X987553Y127876D01*
X989448Y132451D01*
X992949Y135952D01*
X997524Y137847D01*
X1002476Y137847D01*
X1007051Y135952D01*
X1010552Y132451D01*
X1011997Y128962D01*
X1012035Y128901D01*
X1012064Y128836D01*
X1012099Y128798D01*
X1012126Y128753D01*
X1012182Y128707D01*
X1012230Y128655D01*
X1012276Y128630D01*
X1012316Y128596D01*
X1012383Y128571D01*
X1012446Y128536D01*
X1012497Y128527D01*
X1012545Y128508D01*
X1012617Y128505D01*
X1012688Y128492D01*
X1012739Y128500D01*
X1012791Y128498D01*
X1012860Y128518D01*
X1012931Y128528D01*
X1012977Y128552D01*
X1013027Y128566D01*
X1013086Y128607D01*
X1013150Y128640D01*
X1013187Y128677D01*
X1013229Y128707D01*
X1013272Y128764D01*
X1013322Y128815D01*
X1013357Y128878D01*
X1013376Y128904D01*
X1013383Y128926D01*
X1013403Y128962D01*
X1014848Y132451D01*
X1018349Y135952D01*
X1022924Y137847D01*
X1027876Y137847D01*
X1032451Y135952D01*
X1035952Y132451D01*
X1037397Y128962D01*
X1037435Y128901D01*
X1037464Y128836D01*
X1037499Y128798D01*
X1037526Y128753D01*
X1037582Y128707D01*
X1037630Y128655D01*
X1037676Y128630D01*
X1037716Y128596D01*
X1037783Y128571D01*
X1037846Y128536D01*
X1037897Y128527D01*
X1037945Y128508D01*
X1038017Y128505D01*
X1038088Y128492D01*
X1038139Y128500D01*
X1038191Y128498D01*
X1038260Y128518D01*
X1038331Y128528D01*
X1038377Y128552D01*
X1038427Y128566D01*
X1038486Y128607D01*
X1038550Y128640D01*
X1038587Y128677D01*
X1038629Y128707D01*
X1038672Y128764D01*
X1038722Y128815D01*
X1038757Y128878D01*
X1038776Y128904D01*
X1038783Y128926D01*
X1038803Y128962D01*
X1040248Y132451D01*
X1043749Y135952D01*
X1048324Y137847D01*
X1053276Y137847D01*
X1057851Y135952D01*
X1061352Y132451D01*
X1062797Y128962D01*
X1062835Y128901D01*
X1062864Y128836D01*
X1062899Y128798D01*
X1062926Y128753D01*
X1062982Y128707D01*
X1063030Y128655D01*
X1063076Y128630D01*
X1063116Y128596D01*
X1063183Y128571D01*
X1063246Y128536D01*
X1063297Y128527D01*
X1063345Y128508D01*
X1063417Y128505D01*
X1063488Y128492D01*
X1063539Y128500D01*
X1063591Y128498D01*
X1063660Y128518D01*
X1063731Y128528D01*
X1063777Y128552D01*
X1063827Y128566D01*
X1063886Y128607D01*
X1063950Y128640D01*
X1063987Y128677D01*
X1064029Y128707D01*
X1064072Y128764D01*
X1064122Y128815D01*
X1064157Y128878D01*
X1064176Y128904D01*
X1064183Y128926D01*
X1064203Y128962D01*
X1065648Y132451D01*
X1069149Y135952D01*
X1073724Y137847D01*
X1078676Y137847D01*
X1081446Y136699D01*
X1081559Y136673D01*
X1081673Y136644D01*
X1081679Y136645D01*
X1081685Y136643D01*
X1081802Y136654D01*
X1081918Y136663D01*
X1081924Y136666D01*
X1081930Y136666D01*
X1082038Y136714D01*
X1082144Y136760D01*
X1082150Y136764D01*
X1082155Y136766D01*
X1082168Y136779D01*
X1082275Y136864D01*
X1119222Y173811D01*
X1538106Y173811D01*
X1538196Y173825D01*
X1538287Y173833D01*
X1538317Y173845D01*
X1538349Y173850D01*
X1538430Y173893D01*
X1538514Y173929D01*
X1538546Y173955D01*
X1538566Y173966D01*
X1538589Y173989D01*
X1538644Y174034D01*
X1595966Y231356D01*
X1596019Y231429D01*
X1596079Y231499D01*
X1596091Y231529D01*
X1596110Y231555D01*
X1596137Y231642D01*
X1596171Y231727D01*
X1596175Y231768D01*
X1596182Y231790D01*
X1596181Y231823D01*
X1596189Y231894D01*
X1596189Y288106D01*
X1596175Y288196D01*
X1596167Y288287D01*
X1596155Y288317D01*
X1596150Y288349D01*
X1596107Y288430D01*
X1596071Y288514D01*
X1596045Y288546D01*
X1596034Y288566D01*
X1596011Y288589D01*
X1595966Y288644D01*
X1591906Y292704D01*
X1591833Y292757D01*
X1591763Y292817D01*
X1591733Y292829D01*
X1591707Y292848D01*
X1591620Y292875D01*
X1591535Y292909D01*
X1591494Y292913D01*
X1591472Y292920D01*
X1591439Y292919D01*
X1591368Y292927D01*
X1590495Y292927D01*
X1562627Y320795D01*
X1562627Y360205D01*
X1574166Y371744D01*
X1574219Y371818D01*
X1574279Y371888D01*
X1574291Y371918D01*
X1574310Y371944D01*
X1574337Y372031D01*
X1574371Y372116D01*
X1574375Y372157D01*
X1574382Y372179D01*
X1574381Y372211D01*
X1574389Y372283D01*
X1574389Y400152D01*
X1574370Y400267D01*
X1574353Y400383D01*
X1574351Y400389D01*
X1574350Y400395D01*
X1574295Y400497D01*
X1574242Y400602D01*
X1574237Y400607D01*
X1574234Y400612D01*
X1574150Y400692D01*
X1574066Y400774D01*
X1574060Y400778D01*
X1574056Y400781D01*
X1574039Y400789D01*
X1573919Y400855D01*
X1572225Y401557D01*
X1569257Y404525D01*
X1567651Y408402D01*
X1567651Y412598D01*
X1569257Y416475D01*
X1572225Y419443D01*
X1576102Y421049D01*
X1580298Y421049D01*
X1584175Y419443D01*
X1587143Y416475D01*
X1588749Y412598D01*
X1588749Y408402D01*
X1587143Y404525D01*
X1584175Y401557D01*
X1582481Y400855D01*
X1582381Y400793D01*
X1582281Y400734D01*
X1582277Y400729D01*
X1582272Y400726D01*
X1582197Y400635D01*
X1582121Y400547D01*
X1582119Y400541D01*
X1582115Y400536D01*
X1582073Y400428D01*
X1582029Y400319D01*
X1582028Y400311D01*
X1582027Y400307D01*
X1582026Y400288D01*
X1582011Y400152D01*
X1582011Y374961D01*
X1582022Y374890D01*
X1582024Y374818D01*
X1582042Y374769D01*
X1582050Y374718D01*
X1582084Y374655D01*
X1582109Y374587D01*
X1582141Y374547D01*
X1582166Y374501D01*
X1582218Y374451D01*
X1582262Y374395D01*
X1582306Y374367D01*
X1582344Y374331D01*
X1582409Y374301D01*
X1582469Y374262D01*
X1582520Y374250D01*
X1582567Y374228D01*
X1582638Y374220D01*
X1582708Y374202D01*
X1582760Y374206D01*
X1582811Y374201D01*
X1582882Y374216D01*
X1582953Y374221D01*
X1583001Y374242D01*
X1583052Y374253D01*
X1583113Y374290D01*
X1583179Y374318D01*
X1583235Y374362D01*
X1583263Y374379D01*
X1583278Y374397D01*
X1583310Y374422D01*
X1583797Y374909D01*
X1593602Y380570D01*
X1604539Y383501D01*
X1615861Y383501D01*
X1626798Y380570D01*
X1636603Y374909D01*
X1644609Y366903D01*
X1650270Y357098D01*
X1653201Y346161D01*
X1653201Y334839D01*
X1650270Y323902D01*
X1644609Y314097D01*
X1636603Y306091D01*
X1626798Y300430D01*
X1615861Y297499D01*
X1604539Y297499D01*
X1598200Y299198D01*
X1598153Y299202D01*
X1598107Y299217D01*
X1598031Y299215D01*
X1597956Y299222D01*
X1597909Y299211D01*
X1597861Y299210D01*
X1597790Y299184D01*
X1597716Y299167D01*
X1597675Y299142D01*
X1597630Y299126D01*
X1597571Y299078D01*
X1597506Y299039D01*
X1597475Y299002D01*
X1597438Y298972D01*
X1597397Y298908D01*
X1597348Y298850D01*
X1597331Y298805D01*
X1597305Y298765D01*
X1597286Y298692D01*
X1597259Y298621D01*
X1597257Y298573D01*
X1597245Y298527D01*
X1597251Y298451D01*
X1597247Y298375D01*
X1597260Y298329D01*
X1597264Y298281D01*
X1597294Y298212D01*
X1597314Y298139D01*
X1597342Y298099D01*
X1597360Y298055D01*
X1597441Y297954D01*
X1597454Y297936D01*
X1597459Y297932D01*
X1597465Y297924D01*
X1603811Y291578D01*
X1603811Y228422D01*
X1541578Y166189D01*
X1122694Y166189D01*
X1122604Y166175D01*
X1122513Y166167D01*
X1122483Y166155D01*
X1122451Y166150D01*
X1122370Y166107D01*
X1122286Y166071D01*
X1122254Y166045D01*
X1122234Y166034D01*
X1122211Y166011D01*
X1122156Y165966D01*
X1087664Y131475D01*
X1087597Y131381D01*
X1087527Y131287D01*
X1087525Y131281D01*
X1087521Y131275D01*
X1087487Y131165D01*
X1087450Y131053D01*
X1087450Y131046D01*
X1087449Y131040D01*
X1087452Y130924D01*
X1087453Y130807D01*
X1087455Y130800D01*
X1087455Y130795D01*
X1087461Y130777D01*
X1087499Y130646D01*
X1088197Y128962D01*
X1088235Y128901D01*
X1088264Y128836D01*
X1088299Y128798D01*
X1088326Y128753D01*
X1088382Y128707D01*
X1088430Y128655D01*
X1088476Y128630D01*
X1088516Y128596D01*
X1088583Y128571D01*
X1088646Y128536D01*
X1088697Y128527D01*
X1088745Y128508D01*
X1088817Y128505D01*
X1088888Y128492D01*
X1088939Y128500D01*
X1088991Y128498D01*
X1089060Y128518D01*
X1089131Y128528D01*
X1089177Y128552D01*
X1089227Y128566D01*
X1089286Y128607D01*
X1089350Y128640D01*
X1089387Y128677D01*
X1089429Y128707D01*
X1089472Y128764D01*
X1089522Y128815D01*
X1089557Y128878D01*
X1089576Y128904D01*
X1089583Y128926D01*
X1089603Y128962D01*
X1091048Y132451D01*
X1094549Y135952D01*
X1099124Y137847D01*
X1104076Y137847D01*
X1108651Y135952D01*
X1112152Y132451D01*
X1113597Y128962D01*
X1113635Y128901D01*
X1113664Y128836D01*
X1113699Y128797D01*
X1113726Y128753D01*
X1113782Y128707D01*
X1113830Y128655D01*
X1113876Y128630D01*
X1113916Y128596D01*
X1113983Y128571D01*
X1114046Y128536D01*
X1114097Y128527D01*
X1114145Y128508D01*
X1114217Y128505D01*
X1114288Y128492D01*
X1114339Y128500D01*
X1114391Y128498D01*
X1114460Y128518D01*
X1114531Y128528D01*
X1114577Y128552D01*
X1114627Y128566D01*
X1114686Y128607D01*
X1114750Y128640D01*
X1114787Y128677D01*
X1114829Y128707D01*
X1114872Y128764D01*
X1114922Y128815D01*
X1114957Y128878D01*
X1114976Y128904D01*
X1114983Y128926D01*
X1115003Y128962D01*
X1116448Y132451D01*
X1119949Y135952D01*
X1124524Y137847D01*
X1129476Y137847D01*
X1134051Y135952D01*
X1137552Y132451D01*
X1138997Y128962D01*
X1139035Y128901D01*
X1139064Y128836D01*
X1139099Y128798D01*
X1139126Y128753D01*
X1139182Y128707D01*
X1139230Y128655D01*
X1139276Y128630D01*
X1139316Y128596D01*
X1139383Y128571D01*
X1139446Y128536D01*
X1139497Y128527D01*
X1139545Y128508D01*
X1139617Y128505D01*
X1139688Y128492D01*
X1139739Y128500D01*
X1139791Y128498D01*
X1139860Y128518D01*
X1139931Y128528D01*
X1139977Y128552D01*
X1140027Y128566D01*
X1140086Y128607D01*
X1140150Y128640D01*
X1140187Y128677D01*
X1140229Y128707D01*
X1140272Y128764D01*
X1140322Y128815D01*
X1140357Y128878D01*
X1140376Y128904D01*
X1140383Y128926D01*
X1140403Y128962D01*
X1141848Y132451D01*
X1145349Y135952D01*
X1149924Y137847D01*
X1154876Y137847D01*
X1159451Y135952D01*
X1162952Y132451D01*
X1164397Y128962D01*
X1164435Y128901D01*
X1164464Y128836D01*
X1164499Y128798D01*
X1164526Y128753D01*
X1164582Y128707D01*
X1164630Y128655D01*
X1164676Y128630D01*
X1164716Y128596D01*
X1164783Y128571D01*
X1164846Y128536D01*
X1164897Y128527D01*
X1164945Y128508D01*
X1165017Y128505D01*
X1165088Y128492D01*
X1165139Y128500D01*
X1165191Y128498D01*
X1165260Y128518D01*
X1165331Y128528D01*
X1165377Y128552D01*
X1165427Y128566D01*
X1165486Y128607D01*
X1165550Y128640D01*
X1165587Y128677D01*
X1165629Y128707D01*
X1165672Y128764D01*
X1165722Y128815D01*
X1165757Y128878D01*
X1165776Y128904D01*
X1165783Y128926D01*
X1165803Y128962D01*
X1167248Y132451D01*
X1170749Y135952D01*
X1175324Y137847D01*
X1180276Y137847D01*
X1184851Y135952D01*
X1188352Y132451D01*
X1190247Y127876D01*
X1190247Y122924D01*
X1188352Y118349D01*
X1184851Y114848D01*
X1180552Y113068D01*
X1180466Y113014D01*
X1180377Y112966D01*
X1180362Y112950D01*
X1180343Y112938D01*
X1180279Y112860D01*
X1180210Y112786D01*
X1180201Y112766D01*
X1180187Y112749D01*
X1180150Y112654D01*
X1180109Y112562D01*
X1180106Y112540D01*
X1180098Y112519D01*
X1180094Y112418D01*
X1180084Y112317D01*
X1180089Y112296D01*
X1180088Y112273D01*
X1180116Y112176D01*
X1180139Y112077D01*
X1180150Y112058D01*
X1180157Y112037D01*
X1180214Y111954D01*
X1180267Y111868D01*
X1180284Y111853D01*
X1180297Y111835D01*
X1180378Y111775D01*
X1180456Y111710D01*
X1180481Y111698D01*
X1180494Y111688D01*
X1180525Y111678D01*
X1180609Y111641D01*
X1182383Y111064D01*
X1184057Y110211D01*
X1185578Y109106D01*
X1186906Y107778D01*
X1188011Y106257D01*
X1188864Y104583D01*
X1189445Y102796D01*
X1189646Y101523D01*
X1178562Y101523D01*
X1178542Y101520D01*
X1178523Y101522D01*
X1178421Y101500D01*
X1178319Y101483D01*
X1178302Y101474D01*
X1178282Y101470D01*
X1178193Y101417D01*
X1178102Y101368D01*
X1178088Y101354D01*
X1178071Y101344D01*
X1178004Y101265D01*
X1177933Y101190D01*
X1177924Y101172D01*
X1177911Y101157D01*
X1177873Y101061D01*
X1177829Y100967D01*
X1177827Y100947D01*
X1177819Y100929D01*
X1177801Y100762D01*
X1177801Y99999D01*
X1177799Y99999D01*
X1177799Y100762D01*
X1177796Y100782D01*
X1177798Y100801D01*
X1177776Y100903D01*
X1177759Y101005D01*
X1177750Y101022D01*
X1177746Y101042D01*
X1177693Y101131D01*
X1177644Y101222D01*
X1177630Y101236D01*
X1177620Y101253D01*
X1177541Y101320D01*
X1177466Y101391D01*
X1177448Y101400D01*
X1177433Y101413D01*
X1177337Y101452D01*
X1177243Y101495D01*
X1177223Y101497D01*
X1177205Y101505D01*
X1177038Y101523D01*
X1165954Y101523D01*
X1166155Y102796D01*
X1166736Y104583D01*
X1167589Y106257D01*
X1168694Y107778D01*
X1170022Y109106D01*
X1171543Y110211D01*
X1173217Y111064D01*
X1174991Y111641D01*
X1175081Y111687D01*
X1175174Y111728D01*
X1175190Y111743D01*
X1175210Y111753D01*
X1175280Y111826D01*
X1175355Y111895D01*
X1175366Y111914D01*
X1175381Y111930D01*
X1175425Y112021D01*
X1175474Y112110D01*
X1175478Y112132D01*
X1175487Y112152D01*
X1175499Y112252D01*
X1175517Y112352D01*
X1175514Y112374D01*
X1175517Y112396D01*
X1175496Y112495D01*
X1175482Y112595D01*
X1175472Y112615D01*
X1175467Y112637D01*
X1175416Y112724D01*
X1175370Y112815D01*
X1175354Y112830D01*
X1175343Y112849D01*
X1175267Y112916D01*
X1175195Y112987D01*
X1175170Y113000D01*
X1175158Y113011D01*
X1175128Y113024D01*
X1175048Y113068D01*
X1170749Y114848D01*
X1167248Y118349D01*
X1165803Y121838D01*
X1165765Y121899D01*
X1165736Y121964D01*
X1165701Y122003D01*
X1165674Y122047D01*
X1165618Y122093D01*
X1165570Y122145D01*
X1165524Y122170D01*
X1165484Y122204D01*
X1165417Y122229D01*
X1165354Y122264D01*
X1165303Y122273D01*
X1165255Y122292D01*
X1165183Y122295D01*
X1165112Y122308D01*
X1165061Y122300D01*
X1165009Y122302D01*
X1164940Y122282D01*
X1164869Y122272D01*
X1164823Y122248D01*
X1164773Y122234D01*
X1164714Y122193D01*
X1164650Y122160D01*
X1164613Y122123D01*
X1164571Y122093D01*
X1164528Y122036D01*
X1164478Y121985D01*
X1164443Y121922D01*
X1164424Y121896D01*
X1164417Y121874D01*
X1164397Y121838D01*
X1162952Y118349D01*
X1159451Y114848D01*
X1155152Y113068D01*
X1155066Y113014D01*
X1154977Y112966D01*
X1154962Y112950D01*
X1154943Y112938D01*
X1154879Y112860D01*
X1154810Y112786D01*
X1154801Y112766D01*
X1154787Y112749D01*
X1154750Y112654D01*
X1154709Y112562D01*
X1154706Y112540D01*
X1154698Y112519D01*
X1154694Y112418D01*
X1154684Y112317D01*
X1154689Y112296D01*
X1154688Y112273D01*
X1154716Y112176D01*
X1154739Y112077D01*
X1154750Y112058D01*
X1154757Y112037D01*
X1154814Y111954D01*
X1154867Y111868D01*
X1154884Y111853D01*
X1154897Y111835D01*
X1154978Y111775D01*
X1155056Y111710D01*
X1155081Y111698D01*
X1155094Y111688D01*
X1155125Y111678D01*
X1155209Y111641D01*
X1156983Y111064D01*
X1158657Y110211D01*
X1160178Y109106D01*
X1161506Y107778D01*
X1162611Y106257D01*
X1163464Y104583D01*
X1164045Y102796D01*
X1164246Y101523D01*
X1153162Y101523D01*
X1153142Y101520D01*
X1153123Y101522D01*
X1153021Y101500D01*
X1152919Y101483D01*
X1152902Y101474D01*
X1152882Y101470D01*
X1152793Y101417D01*
X1152702Y101368D01*
X1152688Y101354D01*
X1152671Y101344D01*
X1152604Y101265D01*
X1152533Y101190D01*
X1152524Y101172D01*
X1152511Y101157D01*
X1152473Y101061D01*
X1152429Y100967D01*
X1152427Y100947D01*
X1152419Y100929D01*
X1152401Y100762D01*
X1152401Y99999D01*
X1152399Y99999D01*
X1152399Y100762D01*
X1152396Y100782D01*
X1152398Y100801D01*
X1152376Y100903D01*
X1152359Y101005D01*
X1152350Y101022D01*
X1152346Y101042D01*
X1152293Y101131D01*
X1152244Y101222D01*
X1152230Y101236D01*
X1152220Y101253D01*
X1152141Y101320D01*
X1152066Y101391D01*
X1152048Y101400D01*
X1152033Y101413D01*
X1151937Y101452D01*
X1151843Y101495D01*
X1151823Y101497D01*
X1151805Y101505D01*
X1151638Y101523D01*
X1140554Y101523D01*
X1140755Y102796D01*
X1141336Y104583D01*
X1142189Y106257D01*
X1143294Y107778D01*
X1144622Y109106D01*
X1146143Y110211D01*
X1147817Y111064D01*
X1149591Y111641D01*
X1149681Y111687D01*
X1149774Y111728D01*
X1149790Y111743D01*
X1149810Y111753D01*
X1149881Y111826D01*
X1149955Y111895D01*
X1149966Y111914D01*
X1149981Y111930D01*
X1150025Y112021D01*
X1150074Y112110D01*
X1150078Y112132D01*
X1150087Y112152D01*
X1150099Y112252D01*
X1150117Y112352D01*
X1150114Y112374D01*
X1150117Y112396D01*
X1150096Y112495D01*
X1150082Y112595D01*
X1150072Y112615D01*
X1150067Y112637D01*
X1150016Y112724D01*
X1149970Y112815D01*
X1149954Y112830D01*
X1149943Y112849D01*
X1149867Y112916D01*
X1149795Y112987D01*
X1149770Y113000D01*
X1149758Y113011D01*
X1149728Y113024D01*
X1149648Y113068D01*
X1145349Y114848D01*
X1141848Y118349D01*
X1140403Y121838D01*
X1140365Y121899D01*
X1140336Y121964D01*
X1140301Y122003D01*
X1140274Y122047D01*
X1140218Y122093D01*
X1140170Y122145D01*
X1140124Y122170D01*
X1140084Y122204D01*
X1140017Y122229D01*
X1139954Y122264D01*
X1139903Y122273D01*
X1139855Y122292D01*
X1139783Y122295D01*
X1139712Y122308D01*
X1139661Y122300D01*
X1139609Y122302D01*
X1139540Y122282D01*
X1139469Y122272D01*
X1139423Y122248D01*
X1139373Y122234D01*
X1139314Y122193D01*
X1139250Y122160D01*
X1139213Y122123D01*
X1139171Y122093D01*
X1139128Y122036D01*
X1139078Y121985D01*
X1139043Y121922D01*
X1139024Y121896D01*
X1139017Y121874D01*
X1138997Y121838D01*
X1137552Y118349D01*
X1134051Y114848D01*
X1129752Y113068D01*
X1129666Y113014D01*
X1129577Y112966D01*
X1129562Y112950D01*
X1129543Y112938D01*
X1129479Y112860D01*
X1129410Y112786D01*
X1129401Y112766D01*
X1129387Y112749D01*
X1129350Y112654D01*
X1129309Y112562D01*
X1129306Y112540D01*
X1129298Y112519D01*
X1129294Y112418D01*
X1129284Y112317D01*
X1129289Y112296D01*
X1129288Y112273D01*
X1129316Y112176D01*
X1129339Y112077D01*
X1129350Y112058D01*
X1129356Y112037D01*
X1129414Y111954D01*
X1129467Y111868D01*
X1129484Y111853D01*
X1129497Y111835D01*
X1129578Y111775D01*
X1129656Y111710D01*
X1129681Y111698D01*
X1129694Y111688D01*
X1129725Y111678D01*
X1129809Y111641D01*
X1131583Y111064D01*
X1133257Y110211D01*
X1134778Y109106D01*
X1136106Y107778D01*
X1137211Y106257D01*
X1138064Y104583D01*
X1138645Y102796D01*
X1138846Y101523D01*
X1127762Y101523D01*
X1127742Y101520D01*
X1127723Y101522D01*
X1127621Y101500D01*
X1127519Y101483D01*
X1127502Y101474D01*
X1127482Y101470D01*
X1127393Y101417D01*
X1127302Y101368D01*
X1127288Y101354D01*
X1127271Y101344D01*
X1127204Y101265D01*
X1127133Y101190D01*
X1127124Y101172D01*
X1127111Y101157D01*
X1127073Y101061D01*
X1127029Y100967D01*
X1127027Y100947D01*
X1127019Y100929D01*
X1127001Y100762D01*
X1127001Y99999D01*
X1126999Y99999D01*
X1126999Y100762D01*
X1126996Y100782D01*
X1126998Y100801D01*
X1126976Y100903D01*
X1126959Y101005D01*
X1126950Y101022D01*
X1126946Y101042D01*
X1126893Y101131D01*
X1126844Y101222D01*
X1126830Y101236D01*
X1126820Y101253D01*
X1126741Y101320D01*
X1126666Y101391D01*
X1126648Y101400D01*
X1126633Y101413D01*
X1126537Y101452D01*
X1126443Y101495D01*
X1126423Y101497D01*
X1126405Y101505D01*
X1126238Y101523D01*
X1115154Y101523D01*
X1115355Y102796D01*
X1115936Y104583D01*
X1116789Y106257D01*
X1117894Y107778D01*
X1119222Y109106D01*
X1120743Y110211D01*
X1122417Y111064D01*
X1124191Y111641D01*
X1124282Y111687D01*
X1124374Y111728D01*
X1124390Y111743D01*
X1124410Y111753D01*
X1124481Y111826D01*
X1124555Y111895D01*
X1124566Y111914D01*
X1124581Y111930D01*
X1124625Y112021D01*
X1124674Y112110D01*
X1124678Y112132D01*
X1124687Y112152D01*
X1124699Y112252D01*
X1124717Y112352D01*
X1124714Y112374D01*
X1124717Y112396D01*
X1124696Y112495D01*
X1124682Y112596D01*
X1124672Y112615D01*
X1124667Y112637D01*
X1124616Y112724D01*
X1124570Y112815D01*
X1124554Y112830D01*
X1124543Y112849D01*
X1124467Y112916D01*
X1124395Y112987D01*
X1124370Y113000D01*
X1124358Y113011D01*
X1124328Y113024D01*
X1124248Y113068D01*
X1119949Y114848D01*
X1116448Y118349D01*
X1115003Y121838D01*
X1114965Y121899D01*
X1114936Y121964D01*
X1114901Y122002D01*
X1114874Y122047D01*
X1114818Y122093D01*
X1114770Y122145D01*
X1114724Y122170D01*
X1114684Y122204D01*
X1114617Y122229D01*
X1114554Y122264D01*
X1114503Y122273D01*
X1114455Y122292D01*
X1114383Y122295D01*
X1114312Y122308D01*
X1114261Y122300D01*
X1114209Y122302D01*
X1114140Y122282D01*
X1114069Y122272D01*
X1114023Y122248D01*
X1113973Y122234D01*
X1113914Y122193D01*
X1113850Y122160D01*
X1113813Y122123D01*
X1113771Y122093D01*
X1113728Y122036D01*
X1113678Y121985D01*
X1113643Y121922D01*
X1113624Y121896D01*
X1113617Y121874D01*
X1113597Y121838D01*
X1112152Y118349D01*
X1108651Y114848D01*
X1104352Y113068D01*
X1104266Y113014D01*
X1104177Y112966D01*
X1104162Y112950D01*
X1104143Y112938D01*
X1104079Y112860D01*
X1104010Y112786D01*
X1104001Y112766D01*
X1103987Y112749D01*
X1103950Y112654D01*
X1103909Y112562D01*
X1103906Y112540D01*
X1103898Y112519D01*
X1103894Y112418D01*
X1103884Y112317D01*
X1103889Y112296D01*
X1103888Y112273D01*
X1103916Y112176D01*
X1103939Y112077D01*
X1103950Y112058D01*
X1103957Y112037D01*
X1104014Y111954D01*
X1104067Y111868D01*
X1104084Y111853D01*
X1104097Y111835D01*
X1104178Y111775D01*
X1104256Y111710D01*
X1104281Y111698D01*
X1104294Y111688D01*
X1104325Y111678D01*
X1104409Y111641D01*
X1106183Y111064D01*
X1107857Y110211D01*
X1109378Y109106D01*
X1110706Y107778D01*
X1111811Y106257D01*
X1112664Y104583D01*
X1113245Y102796D01*
X1113446Y101523D01*
X1102362Y101523D01*
X1102342Y101520D01*
X1102323Y101522D01*
X1102221Y101500D01*
X1102119Y101483D01*
X1102102Y101474D01*
X1102082Y101470D01*
X1101993Y101417D01*
X1101902Y101368D01*
X1101888Y101354D01*
X1101871Y101344D01*
X1101804Y101265D01*
X1101733Y101190D01*
X1101724Y101172D01*
X1101711Y101157D01*
X1101673Y101061D01*
X1101629Y100967D01*
X1101627Y100947D01*
X1101619Y100929D01*
X1101601Y100762D01*
X1101601Y99999D01*
X1101599Y99999D01*
X1101599Y100762D01*
X1101596Y100782D01*
X1101598Y100801D01*
X1101576Y100903D01*
X1101559Y101005D01*
X1101550Y101022D01*
X1101546Y101042D01*
X1101493Y101131D01*
X1101444Y101222D01*
X1101430Y101236D01*
X1101420Y101253D01*
X1101341Y101320D01*
X1101266Y101391D01*
X1101248Y101400D01*
X1101233Y101413D01*
X1101137Y101452D01*
X1101043Y101495D01*
X1101023Y101497D01*
X1101005Y101505D01*
X1100838Y101523D01*
X1089754Y101523D01*
X1089955Y102796D01*
X1090536Y104583D01*
X1091389Y106257D01*
X1092494Y107778D01*
X1093822Y109106D01*
X1095343Y110211D01*
X1097017Y111064D01*
X1098791Y111641D01*
X1098881Y111687D01*
X1098974Y111728D01*
X1098990Y111743D01*
X1099010Y111753D01*
X1099080Y111826D01*
X1099155Y111895D01*
X1099166Y111914D01*
X1099181Y111930D01*
X1099225Y112021D01*
X1099274Y112110D01*
X1099278Y112132D01*
X1099287Y112152D01*
X1099299Y112252D01*
X1099317Y112352D01*
X1099314Y112374D01*
X1099317Y112396D01*
X1099296Y112495D01*
X1099282Y112595D01*
X1099272Y112615D01*
X1099267Y112637D01*
X1099216Y112724D01*
X1099170Y112815D01*
X1099154Y112830D01*
X1099143Y112849D01*
X1099067Y112916D01*
X1098995Y112987D01*
X1098970Y113000D01*
X1098958Y113011D01*
X1098928Y113024D01*
X1098848Y113068D01*
X1094549Y114848D01*
X1091048Y118349D01*
X1089603Y121838D01*
X1089565Y121899D01*
X1089536Y121964D01*
X1089501Y122002D01*
X1089474Y122047D01*
X1089418Y122092D01*
X1089370Y122145D01*
X1089324Y122170D01*
X1089284Y122204D01*
X1089217Y122229D01*
X1089154Y122264D01*
X1089103Y122273D01*
X1089055Y122292D01*
X1088983Y122295D01*
X1088912Y122308D01*
X1088861Y122300D01*
X1088809Y122302D01*
X1088740Y122282D01*
X1088669Y122272D01*
X1088623Y122248D01*
X1088573Y122234D01*
X1088514Y122193D01*
X1088450Y122160D01*
X1088413Y122123D01*
X1088371Y122093D01*
X1088328Y122036D01*
X1088278Y121985D01*
X1088243Y121922D01*
X1088224Y121896D01*
X1088217Y121874D01*
X1088197Y121838D01*
X1086752Y118349D01*
X1083251Y114848D01*
X1078952Y113068D01*
X1078866Y113014D01*
X1078777Y112966D01*
X1078762Y112950D01*
X1078743Y112938D01*
X1078679Y112860D01*
X1078610Y112786D01*
X1078601Y112766D01*
X1078587Y112749D01*
X1078550Y112654D01*
X1078509Y112562D01*
X1078506Y112540D01*
X1078498Y112519D01*
X1078494Y112418D01*
X1078484Y112317D01*
X1078489Y112296D01*
X1078488Y112273D01*
X1078516Y112176D01*
X1078539Y112077D01*
X1078550Y112058D01*
X1078557Y112037D01*
X1078614Y111954D01*
X1078667Y111868D01*
X1078684Y111853D01*
X1078697Y111835D01*
X1078778Y111775D01*
X1078856Y111710D01*
X1078881Y111698D01*
X1078894Y111688D01*
X1078925Y111678D01*
X1079009Y111641D01*
X1080783Y111064D01*
X1082457Y110211D01*
X1083978Y109106D01*
X1085306Y107778D01*
X1086411Y106257D01*
X1087264Y104583D01*
X1087845Y102796D01*
X1088046Y101523D01*
X1076962Y101523D01*
X1076942Y101520D01*
X1076923Y101522D01*
X1076821Y101500D01*
X1076719Y101483D01*
X1076702Y101474D01*
X1076682Y101470D01*
X1076593Y101417D01*
X1076502Y101368D01*
X1076488Y101354D01*
X1076471Y101344D01*
X1076404Y101265D01*
X1076333Y101190D01*
X1076324Y101172D01*
X1076311Y101157D01*
X1076273Y101061D01*
X1076229Y100967D01*
X1076227Y100947D01*
X1076219Y100929D01*
X1076201Y100762D01*
X1076201Y99999D01*
X1076199Y99999D01*
X1076199Y100762D01*
X1076196Y100782D01*
X1076198Y100801D01*
X1076176Y100903D01*
X1076159Y101005D01*
X1076150Y101022D01*
X1076146Y101042D01*
X1076093Y101131D01*
X1076044Y101222D01*
X1076030Y101236D01*
X1076020Y101253D01*
X1075941Y101320D01*
X1075866Y101391D01*
X1075848Y101400D01*
X1075833Y101413D01*
X1075737Y101452D01*
X1075643Y101495D01*
X1075623Y101497D01*
X1075605Y101505D01*
X1075438Y101523D01*
X1064354Y101523D01*
X1064555Y102796D01*
X1065136Y104583D01*
X1065989Y106257D01*
X1067094Y107778D01*
X1068422Y109106D01*
X1069943Y110211D01*
X1071617Y111064D01*
X1073391Y111641D01*
X1073481Y111687D01*
X1073574Y111728D01*
X1073590Y111743D01*
X1073610Y111753D01*
X1073680Y111826D01*
X1073755Y111895D01*
X1073766Y111914D01*
X1073781Y111930D01*
X1073825Y112021D01*
X1073874Y112110D01*
X1073878Y112132D01*
X1073887Y112152D01*
X1073899Y112252D01*
X1073917Y112352D01*
X1073914Y112374D01*
X1073917Y112396D01*
X1073896Y112495D01*
X1073882Y112595D01*
X1073872Y112615D01*
X1073867Y112637D01*
X1073816Y112724D01*
X1073770Y112815D01*
X1073754Y112830D01*
X1073743Y112849D01*
X1073667Y112916D01*
X1073595Y112987D01*
X1073570Y113000D01*
X1073558Y113011D01*
X1073528Y113024D01*
X1073448Y113068D01*
X1069149Y114848D01*
X1065648Y118349D01*
X1064203Y121838D01*
X1064165Y121899D01*
X1064136Y121964D01*
X1064101Y122002D01*
X1064074Y122047D01*
X1064018Y122092D01*
X1063970Y122145D01*
X1063924Y122170D01*
X1063884Y122204D01*
X1063817Y122229D01*
X1063754Y122264D01*
X1063703Y122273D01*
X1063655Y122292D01*
X1063583Y122295D01*
X1063512Y122308D01*
X1063461Y122300D01*
X1063409Y122302D01*
X1063340Y122282D01*
X1063269Y122272D01*
X1063223Y122248D01*
X1063173Y122234D01*
X1063114Y122193D01*
X1063050Y122160D01*
X1063013Y122123D01*
X1062971Y122093D01*
X1062928Y122036D01*
X1062878Y121985D01*
X1062843Y121922D01*
X1062824Y121896D01*
X1062817Y121874D01*
X1062797Y121838D01*
X1061352Y118349D01*
X1057851Y114848D01*
X1053552Y113068D01*
X1053466Y113014D01*
X1053377Y112966D01*
X1053362Y112950D01*
X1053343Y112938D01*
X1053279Y112860D01*
X1053210Y112786D01*
X1053201Y112766D01*
X1053187Y112749D01*
X1053150Y112654D01*
X1053109Y112562D01*
X1053106Y112540D01*
X1053098Y112519D01*
X1053094Y112418D01*
X1053084Y112317D01*
X1053089Y112296D01*
X1053088Y112273D01*
X1053116Y112176D01*
X1053139Y112077D01*
X1053150Y112058D01*
X1053157Y112037D01*
X1053214Y111954D01*
X1053267Y111868D01*
X1053284Y111853D01*
X1053297Y111835D01*
X1053378Y111775D01*
X1053456Y111710D01*
X1053481Y111698D01*
X1053494Y111688D01*
X1053525Y111678D01*
X1053609Y111641D01*
X1055383Y111064D01*
X1057057Y110211D01*
X1058578Y109106D01*
X1059906Y107778D01*
X1061011Y106257D01*
X1061864Y104583D01*
X1062445Y102796D01*
X1062646Y101523D01*
X1051562Y101523D01*
X1051542Y101520D01*
X1051523Y101522D01*
X1051421Y101500D01*
X1051319Y101483D01*
X1051302Y101474D01*
X1051282Y101470D01*
X1051193Y101417D01*
X1051102Y101368D01*
X1051088Y101354D01*
X1051071Y101344D01*
X1051004Y101265D01*
X1050933Y101190D01*
X1050924Y101172D01*
X1050911Y101157D01*
X1050873Y101061D01*
X1050829Y100967D01*
X1050827Y100947D01*
X1050819Y100929D01*
X1050801Y100762D01*
X1050801Y99999D01*
X1050799Y99999D01*
X1050799Y100762D01*
X1050796Y100782D01*
X1050798Y100801D01*
X1050776Y100903D01*
X1050759Y101005D01*
X1050750Y101022D01*
X1050746Y101042D01*
X1050693Y101131D01*
X1050644Y101222D01*
X1050630Y101236D01*
X1050620Y101253D01*
X1050541Y101320D01*
X1050466Y101391D01*
X1050448Y101400D01*
X1050433Y101413D01*
X1050337Y101452D01*
X1050243Y101495D01*
X1050223Y101497D01*
X1050205Y101505D01*
X1050038Y101523D01*
X1038954Y101523D01*
X1039155Y102796D01*
X1039736Y104583D01*
X1040589Y106257D01*
X1041694Y107778D01*
X1043022Y109106D01*
X1044543Y110211D01*
X1046217Y111064D01*
X1047991Y111641D01*
X1048081Y111687D01*
X1048174Y111728D01*
X1048190Y111743D01*
X1048210Y111753D01*
X1048280Y111826D01*
X1048355Y111895D01*
X1048366Y111914D01*
X1048381Y111930D01*
X1048425Y112021D01*
X1048474Y112110D01*
X1048478Y112132D01*
X1048487Y112152D01*
X1048499Y112252D01*
X1048517Y112352D01*
X1048514Y112374D01*
X1048517Y112396D01*
X1048496Y112495D01*
X1048482Y112595D01*
X1048472Y112615D01*
X1048467Y112637D01*
X1048416Y112724D01*
X1048370Y112815D01*
X1048354Y112830D01*
X1048343Y112849D01*
X1048267Y112916D01*
X1048195Y112987D01*
X1048170Y113000D01*
X1048158Y113011D01*
X1048128Y113024D01*
X1048048Y113068D01*
X1043749Y114848D01*
X1040248Y118349D01*
X1038803Y121838D01*
X1038765Y121899D01*
X1038736Y121964D01*
X1038701Y122003D01*
X1038674Y122047D01*
X1038618Y122093D01*
X1038570Y122145D01*
X1038524Y122170D01*
X1038484Y122204D01*
X1038417Y122229D01*
X1038354Y122264D01*
X1038303Y122273D01*
X1038255Y122292D01*
X1038183Y122295D01*
X1038112Y122308D01*
X1038061Y122300D01*
X1038009Y122302D01*
X1037940Y122282D01*
X1037869Y122272D01*
X1037823Y122248D01*
X1037773Y122234D01*
X1037714Y122193D01*
X1037650Y122160D01*
X1037613Y122123D01*
X1037571Y122093D01*
X1037528Y122036D01*
X1037478Y121985D01*
X1037443Y121922D01*
X1037424Y121896D01*
X1037417Y121874D01*
X1037397Y121838D01*
X1035952Y118349D01*
X1032451Y114848D01*
X1028152Y113068D01*
X1028066Y113014D01*
X1027977Y112966D01*
X1027962Y112950D01*
X1027943Y112938D01*
X1027879Y112860D01*
X1027810Y112786D01*
X1027801Y112766D01*
X1027787Y112749D01*
X1027750Y112654D01*
X1027709Y112562D01*
X1027706Y112540D01*
X1027698Y112519D01*
X1027694Y112418D01*
X1027684Y112317D01*
X1027689Y112296D01*
X1027688Y112273D01*
X1027716Y112176D01*
X1027739Y112077D01*
X1027750Y112058D01*
X1027757Y112037D01*
X1027814Y111954D01*
X1027867Y111868D01*
X1027884Y111853D01*
X1027897Y111835D01*
X1027978Y111775D01*
X1028056Y111710D01*
X1028081Y111698D01*
X1028094Y111688D01*
X1028125Y111678D01*
X1028209Y111641D01*
X1029983Y111064D01*
X1031657Y110211D01*
X1033178Y109106D01*
X1034506Y107778D01*
X1035611Y106257D01*
X1036464Y104583D01*
X1037045Y102796D01*
X1037246Y101523D01*
X1026162Y101523D01*
X1026142Y101520D01*
X1026123Y101522D01*
X1026021Y101500D01*
X1025919Y101483D01*
X1025902Y101474D01*
X1025882Y101470D01*
X1025793Y101417D01*
X1025702Y101368D01*
X1025688Y101354D01*
X1025671Y101344D01*
X1025604Y101265D01*
X1025533Y101190D01*
X1025524Y101172D01*
X1025511Y101157D01*
X1025473Y101061D01*
X1025429Y100967D01*
X1025427Y100947D01*
X1025419Y100929D01*
X1025401Y100762D01*
X1025401Y99999D01*
X1025399Y99999D01*
X1025399Y100762D01*
X1025396Y100782D01*
X1025398Y100801D01*
X1025376Y100903D01*
X1025359Y101005D01*
X1025350Y101022D01*
X1025346Y101042D01*
X1025293Y101131D01*
X1025244Y101222D01*
X1025230Y101236D01*
X1025220Y101253D01*
X1025141Y101320D01*
X1025066Y101391D01*
X1025048Y101400D01*
X1025033Y101413D01*
X1024937Y101452D01*
X1024843Y101495D01*
X1024823Y101497D01*
X1024805Y101505D01*
X1024638Y101523D01*
X1013554Y101523D01*
X1013755Y102796D01*
X1014336Y104583D01*
X1015189Y106257D01*
X1016294Y107778D01*
X1017622Y109106D01*
X1019143Y110211D01*
X1020817Y111064D01*
X1022591Y111641D01*
X1022681Y111687D01*
X1022774Y111728D01*
X1022790Y111743D01*
X1022810Y111753D01*
X1022880Y111826D01*
X1022955Y111895D01*
X1022966Y111914D01*
X1022981Y111930D01*
X1023025Y112021D01*
X1023074Y112110D01*
X1023078Y112132D01*
X1023087Y112152D01*
X1023099Y112252D01*
X1023117Y112352D01*
X1023114Y112374D01*
X1023117Y112396D01*
X1023096Y112495D01*
X1023082Y112595D01*
X1023072Y112615D01*
X1023067Y112637D01*
X1023016Y112724D01*
X1022970Y112815D01*
X1022954Y112830D01*
X1022943Y112849D01*
X1022867Y112916D01*
X1022795Y112987D01*
X1022770Y113000D01*
X1022758Y113011D01*
X1022728Y113024D01*
X1022648Y113068D01*
X1018349Y114848D01*
X1014848Y118349D01*
X1013403Y121838D01*
X1013365Y121899D01*
X1013336Y121964D01*
X1013301Y122003D01*
X1013274Y122047D01*
X1013218Y122093D01*
X1013170Y122145D01*
X1013124Y122170D01*
X1013084Y122204D01*
X1013017Y122229D01*
X1012954Y122264D01*
X1012903Y122273D01*
X1012855Y122292D01*
X1012783Y122295D01*
X1012712Y122308D01*
X1012661Y122300D01*
X1012609Y122302D01*
X1012540Y122282D01*
X1012469Y122272D01*
X1012423Y122248D01*
X1012373Y122234D01*
X1012314Y122193D01*
X1012250Y122160D01*
X1012213Y122123D01*
X1012171Y122093D01*
X1012128Y122036D01*
X1012078Y121985D01*
X1012043Y121922D01*
X1012024Y121896D01*
X1012017Y121874D01*
X1011997Y121838D01*
X1010552Y118349D01*
X1007051Y114848D01*
X1002752Y113068D01*
X1002666Y113014D01*
X1002577Y112966D01*
X1002562Y112950D01*
X1002543Y112938D01*
X1002479Y112860D01*
X1002410Y112786D01*
X1002401Y112766D01*
X1002387Y112749D01*
X1002350Y112654D01*
X1002309Y112562D01*
X1002306Y112540D01*
X1002298Y112519D01*
X1002294Y112418D01*
X1002284Y112317D01*
X1002289Y112296D01*
X1002288Y112273D01*
X1002316Y112176D01*
X1002339Y112077D01*
X1002350Y112058D01*
X1002357Y112037D01*
X1002414Y111954D01*
X1002467Y111868D01*
X1002484Y111853D01*
X1002497Y111835D01*
X1002578Y111775D01*
X1002656Y111710D01*
X1002681Y111698D01*
X1002694Y111688D01*
X1002725Y111678D01*
X1002809Y111641D01*
X1004583Y111064D01*
X1006257Y110211D01*
X1007778Y109106D01*
X1009106Y107778D01*
X1010211Y106257D01*
X1011064Y104583D01*
X1011645Y102796D01*
X1011846Y101523D01*
X1000762Y101523D01*
X1000742Y101520D01*
X1000723Y101522D01*
X1000621Y101500D01*
X1000519Y101483D01*
X1000502Y101474D01*
X1000482Y101470D01*
X1000393Y101417D01*
X1000302Y101368D01*
X1000288Y101354D01*
X1000271Y101344D01*
X1000204Y101265D01*
X1000133Y101190D01*
X1000124Y101172D01*
X1000111Y101157D01*
X1000073Y101061D01*
X1000029Y100967D01*
X1000027Y100947D01*
X1000019Y100929D01*
X1000001Y100762D01*
X1000001Y99999D01*
X999999Y99999D01*
G37*
%LPD*%
%LPC*%
G36*
X768871Y294326D02*
X768871Y294326D01*
X766786Y295190D01*
X766010Y295966D01*
X765936Y296019D01*
X765866Y296079D01*
X765836Y296091D01*
X765810Y296110D01*
X765723Y296137D01*
X765638Y296171D01*
X765597Y296175D01*
X765575Y296182D01*
X765543Y296181D01*
X765472Y296189D01*
X370910Y296189D01*
X317211Y349889D01*
X302241Y364859D01*
X302202Y364887D01*
X302169Y364922D01*
X302103Y364958D01*
X302041Y365002D01*
X301995Y365017D01*
X301953Y365039D01*
X301878Y365053D01*
X301806Y365075D01*
X301758Y365074D01*
X301711Y365082D01*
X301636Y365070D01*
X301560Y365068D01*
X301515Y365052D01*
X301468Y365045D01*
X301400Y365010D01*
X301329Y364984D01*
X301292Y364954D01*
X301249Y364932D01*
X301196Y364878D01*
X301137Y364830D01*
X301111Y364790D01*
X301078Y364755D01*
X301045Y364687D01*
X301004Y364623D01*
X300992Y364577D01*
X300972Y364534D01*
X300962Y364458D01*
X300944Y364385D01*
X300948Y364337D01*
X300942Y364289D01*
X300961Y364162D01*
X300963Y364140D01*
X300966Y364134D01*
X300967Y364124D01*
X303101Y356161D01*
X303101Y344839D01*
X300170Y333902D01*
X294509Y324097D01*
X286503Y316091D01*
X276698Y310430D01*
X265761Y307499D01*
X254439Y307499D01*
X243502Y310430D01*
X233697Y316091D01*
X225691Y324097D01*
X220030Y333902D01*
X217099Y344839D01*
X217099Y356161D01*
X220030Y367098D01*
X225691Y376903D01*
X233697Y384909D01*
X243502Y390570D01*
X249436Y392160D01*
X249523Y392199D01*
X249612Y392232D01*
X249634Y392250D01*
X249660Y392261D01*
X249730Y392326D01*
X249804Y392386D01*
X249820Y392410D01*
X249840Y392429D01*
X249886Y392512D01*
X249937Y392593D01*
X249944Y392620D01*
X249958Y392645D01*
X249974Y392739D01*
X249997Y392831D01*
X249995Y392859D01*
X250000Y392887D01*
X249986Y392982D01*
X249978Y393076D01*
X249967Y393102D01*
X249963Y393130D01*
X249919Y393215D01*
X249882Y393303D01*
X249860Y393330D01*
X249850Y393349D01*
X249827Y393372D01*
X249777Y393434D01*
X232723Y410488D01*
X232628Y410556D01*
X232534Y410626D01*
X232528Y410628D01*
X232523Y410632D01*
X232412Y410666D01*
X232300Y410702D01*
X232294Y410702D01*
X232288Y410704D01*
X232171Y410701D01*
X232054Y410700D01*
X232047Y410698D01*
X232042Y410698D01*
X232024Y410691D01*
X231893Y410653D01*
X230198Y409951D01*
X226002Y409951D01*
X222125Y411557D01*
X219157Y414525D01*
X217551Y418402D01*
X217551Y422598D01*
X219157Y426475D01*
X222125Y429443D01*
X226002Y431049D01*
X230198Y431049D01*
X234075Y429443D01*
X237043Y426475D01*
X238649Y422598D01*
X238649Y418402D01*
X237947Y416707D01*
X237920Y416593D01*
X237892Y416480D01*
X237892Y416474D01*
X237891Y416468D01*
X237902Y416351D01*
X237911Y416235D01*
X237913Y416229D01*
X237914Y416223D01*
X237962Y416115D01*
X238007Y416008D01*
X238012Y416003D01*
X238014Y415998D01*
X238026Y415984D01*
X238112Y415877D01*
X255694Y398296D01*
X255767Y398243D01*
X255837Y398183D01*
X255867Y398171D01*
X255893Y398152D01*
X255980Y398125D01*
X256065Y398091D01*
X256106Y398087D01*
X256128Y398080D01*
X256161Y398081D01*
X256232Y398073D01*
X279805Y398073D01*
X373844Y304034D01*
X373918Y303981D01*
X373988Y303921D01*
X374018Y303909D01*
X374044Y303890D01*
X374131Y303863D01*
X374216Y303829D01*
X374257Y303825D01*
X374279Y303818D01*
X374311Y303819D01*
X374383Y303811D01*
X765472Y303811D01*
X765562Y303825D01*
X765653Y303833D01*
X765682Y303845D01*
X765714Y303850D01*
X765795Y303893D01*
X765879Y303929D01*
X765911Y303955D01*
X765932Y303966D01*
X765954Y303989D01*
X766010Y304034D01*
X766786Y304810D01*
X768871Y305674D01*
X771129Y305674D01*
X773214Y304810D01*
X774810Y303214D01*
X775674Y301129D01*
X775674Y298871D01*
X774810Y296786D01*
X773214Y295190D01*
X771129Y294326D01*
X768871Y294326D01*
G37*
%LPD*%
%LPC*%
G36*
X1042939Y297499D02*
X1042939Y297499D01*
X1032002Y300430D01*
X1022197Y306091D01*
X1014191Y314097D01*
X1008530Y323902D01*
X1005599Y334839D01*
X1005599Y346161D01*
X1008530Y357098D01*
X1014191Y366903D01*
X1022197Y374909D01*
X1032002Y380570D01*
X1042939Y383501D01*
X1054261Y383501D01*
X1065198Y380570D01*
X1075003Y374909D01*
X1083009Y366903D01*
X1088670Y357098D01*
X1091601Y346161D01*
X1091601Y334839D01*
X1088670Y323902D01*
X1083009Y314097D01*
X1075003Y306091D01*
X1065198Y300430D01*
X1054261Y297499D01*
X1042939Y297499D01*
G37*
%LPD*%
%LPC*%
G36*
X1156939Y297499D02*
X1156939Y297499D01*
X1146002Y300430D01*
X1136197Y306091D01*
X1128191Y314097D01*
X1122530Y323902D01*
X1119599Y334839D01*
X1119599Y346161D01*
X1122530Y357098D01*
X1128191Y366903D01*
X1136197Y374909D01*
X1146002Y380570D01*
X1156939Y383501D01*
X1168261Y383501D01*
X1179198Y380570D01*
X1189003Y374909D01*
X1197009Y366903D01*
X1202670Y357098D01*
X1205601Y346161D01*
X1205601Y334839D01*
X1202670Y323902D01*
X1197009Y314097D01*
X1189003Y306091D01*
X1179198Y300430D01*
X1168261Y297499D01*
X1156939Y297499D01*
G37*
%LPD*%
%LPC*%
G36*
X140439Y307499D02*
X140439Y307499D01*
X129502Y310430D01*
X119697Y316091D01*
X111691Y324097D01*
X106030Y333902D01*
X103099Y344839D01*
X103099Y356161D01*
X106030Y367098D01*
X111691Y376903D01*
X119697Y384909D01*
X129502Y390570D01*
X140439Y393501D01*
X151761Y393501D01*
X162698Y390570D01*
X172503Y384909D01*
X180509Y376903D01*
X186170Y367098D01*
X189101Y356161D01*
X189101Y344839D01*
X186170Y333902D01*
X180509Y324097D01*
X172503Y316091D01*
X162698Y310430D01*
X151761Y307499D01*
X140439Y307499D01*
G37*
%LPD*%
%LPC*%
G36*
X1490539Y297499D02*
X1490539Y297499D01*
X1479602Y300430D01*
X1469797Y306091D01*
X1461791Y314097D01*
X1456130Y323902D01*
X1453199Y334839D01*
X1453199Y346161D01*
X1456130Y357098D01*
X1461791Y366903D01*
X1469797Y374909D01*
X1479602Y380570D01*
X1490539Y383501D01*
X1501861Y383501D01*
X1512798Y380570D01*
X1522603Y374909D01*
X1530609Y366903D01*
X1536270Y357098D01*
X1539201Y346161D01*
X1539201Y334839D01*
X1536270Y323902D01*
X1530609Y314097D01*
X1522603Y306091D01*
X1512798Y300430D01*
X1501861Y297499D01*
X1490539Y297499D01*
G37*
%LPD*%
%LPC*%
G36*
X585339Y307499D02*
X585339Y307499D01*
X574402Y310430D01*
X564597Y316091D01*
X556591Y324097D01*
X550930Y333902D01*
X547999Y344839D01*
X547999Y356161D01*
X550930Y367098D01*
X556591Y376903D01*
X564597Y384909D01*
X574402Y390570D01*
X585339Y393501D01*
X596661Y393501D01*
X607598Y390570D01*
X617403Y384909D01*
X625409Y376903D01*
X631070Y367098D01*
X634001Y356161D01*
X634001Y344839D01*
X631070Y333902D01*
X625409Y324097D01*
X617403Y316091D01*
X607598Y310430D01*
X596661Y307499D01*
X585339Y307499D01*
G37*
%LPD*%
%LPC*%
G36*
X699339Y307499D02*
X699339Y307499D01*
X688402Y310430D01*
X678597Y316091D01*
X670591Y324097D01*
X664930Y333902D01*
X661999Y344839D01*
X661999Y356161D01*
X664930Y367098D01*
X670591Y376903D01*
X678597Y384909D01*
X688402Y390570D01*
X699339Y393501D01*
X710661Y393501D01*
X721598Y390570D01*
X731403Y384909D01*
X739409Y376903D01*
X745070Y367098D01*
X748001Y356161D01*
X748001Y344839D01*
X745070Y333902D01*
X739409Y324097D01*
X731403Y316091D01*
X721598Y310430D01*
X710661Y307499D01*
X699339Y307499D01*
G37*
%LPD*%
%LPC*%
G36*
X670902Y409951D02*
X670902Y409951D01*
X667025Y411557D01*
X664057Y414525D01*
X662451Y418402D01*
X662451Y422598D01*
X664057Y426475D01*
X667025Y429443D01*
X670902Y431049D01*
X675098Y431049D01*
X678975Y429443D01*
X681943Y426475D01*
X683549Y422598D01*
X683549Y418402D01*
X681943Y414525D01*
X678975Y411557D01*
X675098Y409951D01*
X670902Y409951D01*
G37*
%LPD*%
%LPC*%
G36*
X1128502Y399951D02*
X1128502Y399951D01*
X1124625Y401557D01*
X1121657Y404525D01*
X1120051Y408402D01*
X1120051Y412598D01*
X1121657Y416475D01*
X1124625Y419443D01*
X1128502Y421049D01*
X1132698Y421049D01*
X1136575Y419443D01*
X1139543Y416475D01*
X1141149Y412598D01*
X1141149Y408402D01*
X1139543Y404525D01*
X1136575Y401557D01*
X1132698Y399951D01*
X1128502Y399951D01*
G37*
%LPD*%
%LPC*%
G36*
X630123Y99277D02*
X630123Y99277D01*
X640446Y99277D01*
X640245Y98004D01*
X639664Y96217D01*
X638811Y94543D01*
X637706Y93022D01*
X636378Y91694D01*
X634857Y90589D01*
X633183Y89736D01*
X631396Y89155D01*
X630123Y88954D01*
X630123Y99277D01*
G37*
%LPD*%
%LPC*%
G36*
X680923Y99277D02*
X680923Y99277D01*
X691246Y99277D01*
X691045Y98004D01*
X690464Y96217D01*
X689611Y94543D01*
X688506Y93022D01*
X687178Y91694D01*
X685657Y90589D01*
X683983Y89736D01*
X682196Y89155D01*
X680923Y88954D01*
X680923Y99277D01*
G37*
%LPD*%
%LPC*%
G36*
X1153923Y98477D02*
X1153923Y98477D01*
X1164246Y98477D01*
X1164045Y97204D01*
X1163464Y95417D01*
X1162611Y93743D01*
X1161506Y92222D01*
X1160178Y90894D01*
X1158657Y89789D01*
X1156983Y88936D01*
X1155196Y88355D01*
X1153923Y88154D01*
X1153923Y98477D01*
G37*
%LPD*%
%LPC*%
G36*
X655523Y99277D02*
X655523Y99277D01*
X665846Y99277D01*
X665645Y98004D01*
X665064Y96217D01*
X664211Y94543D01*
X663106Y93022D01*
X661778Y91694D01*
X660257Y90589D01*
X658583Y89736D01*
X656796Y89155D01*
X655523Y88954D01*
X655523Y99277D01*
G37*
%LPD*%
%LPC*%
G36*
X1026923Y98477D02*
X1026923Y98477D01*
X1037246Y98477D01*
X1037045Y97204D01*
X1036464Y95417D01*
X1035611Y93743D01*
X1034506Y92222D01*
X1033178Y90894D01*
X1031657Y89789D01*
X1029983Y88936D01*
X1028196Y88355D01*
X1026923Y88154D01*
X1026923Y98477D01*
G37*
%LPD*%
%LPC*%
G36*
X706323Y99277D02*
X706323Y99277D01*
X716646Y99277D01*
X716445Y98004D01*
X715864Y96217D01*
X715011Y94543D01*
X713906Y93022D01*
X712578Y91694D01*
X711057Y90589D01*
X709383Y89736D01*
X707596Y89155D01*
X706323Y88954D01*
X706323Y99277D01*
G37*
%LPD*%
%LPC*%
G36*
X731723Y99277D02*
X731723Y99277D01*
X742046Y99277D01*
X741845Y98004D01*
X741264Y96217D01*
X740411Y94543D01*
X739306Y93022D01*
X737978Y91694D01*
X736457Y90589D01*
X734783Y89736D01*
X732996Y89155D01*
X731723Y88954D01*
X731723Y99277D01*
G37*
%LPD*%
%LPC*%
G36*
X553923Y99277D02*
X553923Y99277D01*
X564246Y99277D01*
X564045Y98004D01*
X563464Y96217D01*
X562611Y94543D01*
X561506Y93022D01*
X560178Y91694D01*
X558657Y90589D01*
X556983Y89736D01*
X555196Y89155D01*
X553923Y88954D01*
X553923Y99277D01*
G37*
%LPD*%
%LPC*%
G36*
X604723Y99277D02*
X604723Y99277D01*
X615046Y99277D01*
X614845Y98004D01*
X614264Y96217D01*
X613411Y94543D01*
X612306Y93022D01*
X610978Y91694D01*
X609457Y90589D01*
X607783Y89736D01*
X605996Y89155D01*
X604723Y88954D01*
X604723Y99277D01*
G37*
%LPD*%
%LPC*%
G36*
X579323Y99277D02*
X579323Y99277D01*
X589646Y99277D01*
X589445Y98004D01*
X588864Y96217D01*
X588011Y94543D01*
X586906Y93022D01*
X585578Y91694D01*
X584057Y90589D01*
X582383Y89736D01*
X580596Y89155D01*
X579323Y88954D01*
X579323Y99277D01*
G37*
%LPD*%
%LPC*%
G36*
X1001523Y98477D02*
X1001523Y98477D01*
X1011846Y98477D01*
X1011645Y97204D01*
X1011064Y95417D01*
X1010211Y93743D01*
X1009106Y92222D01*
X1007778Y90894D01*
X1006257Y89789D01*
X1004583Y88936D01*
X1002796Y88355D01*
X1001523Y88154D01*
X1001523Y98477D01*
G37*
%LPD*%
%LPC*%
G36*
X1103123Y98477D02*
X1103123Y98477D01*
X1113446Y98477D01*
X1113245Y97204D01*
X1112664Y95417D01*
X1111811Y93743D01*
X1110706Y92222D01*
X1109378Y90894D01*
X1107857Y89789D01*
X1106183Y88936D01*
X1104396Y88355D01*
X1103123Y88154D01*
X1103123Y98477D01*
G37*
%LPD*%
%LPC*%
G36*
X1179323Y98477D02*
X1179323Y98477D01*
X1189646Y98477D01*
X1189445Y97204D01*
X1188864Y95417D01*
X1188011Y93743D01*
X1186906Y92222D01*
X1185578Y90894D01*
X1184057Y89789D01*
X1182383Y88936D01*
X1180596Y88355D01*
X1179323Y88154D01*
X1179323Y98477D01*
G37*
%LPD*%
%LPC*%
G36*
X1128523Y98477D02*
X1128523Y98477D01*
X1138846Y98477D01*
X1138645Y97204D01*
X1138064Y95417D01*
X1137211Y93743D01*
X1136106Y92222D01*
X1134778Y90894D01*
X1133257Y89789D01*
X1131583Y88936D01*
X1129796Y88355D01*
X1128523Y88154D01*
X1128523Y98477D01*
G37*
%LPD*%
%LPC*%
G36*
X1077723Y98477D02*
X1077723Y98477D01*
X1088046Y98477D01*
X1087845Y97204D01*
X1087264Y95417D01*
X1086411Y93743D01*
X1085306Y92222D01*
X1083978Y90894D01*
X1082457Y89789D01*
X1080783Y88936D01*
X1078996Y88355D01*
X1077723Y88154D01*
X1077723Y98477D01*
G37*
%LPD*%
%LPC*%
G36*
X1052323Y98477D02*
X1052323Y98477D01*
X1062646Y98477D01*
X1062445Y97204D01*
X1061864Y95417D01*
X1061011Y93743D01*
X1059906Y92222D01*
X1058578Y90894D01*
X1057057Y89789D01*
X1055383Y88936D01*
X1053596Y88355D01*
X1052323Y88154D01*
X1052323Y98477D01*
G37*
%LPD*%
%LPC*%
G36*
X702004Y89155D02*
X702004Y89155D01*
X700217Y89736D01*
X698543Y90589D01*
X697022Y91694D01*
X695694Y93022D01*
X694589Y94543D01*
X693736Y96217D01*
X693155Y98004D01*
X692954Y99277D01*
X703277Y99277D01*
X703277Y88954D01*
X702004Y89155D01*
G37*
%LPD*%
%LPC*%
G36*
X676604Y89155D02*
X676604Y89155D01*
X674817Y89736D01*
X673143Y90589D01*
X671622Y91694D01*
X670294Y93022D01*
X669189Y94543D01*
X668336Y96217D01*
X667755Y98004D01*
X667554Y99277D01*
X677877Y99277D01*
X677877Y88954D01*
X676604Y89155D01*
G37*
%LPD*%
%LPC*%
G36*
X1022604Y88355D02*
X1022604Y88355D01*
X1020817Y88936D01*
X1019143Y89789D01*
X1017622Y90894D01*
X1016294Y92222D01*
X1015189Y93743D01*
X1014336Y95417D01*
X1013755Y97204D01*
X1013554Y98477D01*
X1023877Y98477D01*
X1023877Y88154D01*
X1022604Y88355D01*
G37*
%LPD*%
%LPC*%
G36*
X549604Y89155D02*
X549604Y89155D01*
X547817Y89736D01*
X546143Y90589D01*
X544622Y91694D01*
X543294Y93022D01*
X542189Y94543D01*
X541336Y96217D01*
X540755Y98004D01*
X540554Y99277D01*
X550877Y99277D01*
X550877Y88954D01*
X549604Y89155D01*
G37*
%LPD*%
%LPC*%
G36*
X575004Y89155D02*
X575004Y89155D01*
X573217Y89736D01*
X571543Y90589D01*
X570022Y91694D01*
X568694Y93022D01*
X567589Y94543D01*
X566736Y96217D01*
X566155Y98004D01*
X565954Y99277D01*
X576277Y99277D01*
X576277Y88954D01*
X575004Y89155D01*
G37*
%LPD*%
%LPC*%
G36*
X651204Y89155D02*
X651204Y89155D01*
X649417Y89736D01*
X647743Y90589D01*
X646222Y91694D01*
X644894Y93022D01*
X643789Y94543D01*
X642936Y96217D01*
X642355Y98004D01*
X642154Y99277D01*
X652477Y99277D01*
X652477Y88954D01*
X651204Y89155D01*
G37*
%LPD*%
%LPC*%
G36*
X1175004Y88355D02*
X1175004Y88355D01*
X1173217Y88936D01*
X1171543Y89789D01*
X1170022Y90894D01*
X1168694Y92222D01*
X1167589Y93743D01*
X1166736Y95417D01*
X1166155Y97204D01*
X1165954Y98477D01*
X1176277Y98477D01*
X1176277Y88154D01*
X1175004Y88355D01*
G37*
%LPD*%
%LPC*%
G36*
X1149604Y88355D02*
X1149604Y88355D01*
X1147817Y88936D01*
X1146143Y89789D01*
X1144622Y90894D01*
X1143294Y92222D01*
X1142189Y93743D01*
X1141336Y95417D01*
X1140755Y97204D01*
X1140554Y98477D01*
X1150877Y98477D01*
X1150877Y88154D01*
X1149604Y88355D01*
G37*
%LPD*%
%LPC*%
G36*
X625804Y89155D02*
X625804Y89155D01*
X624017Y89736D01*
X622343Y90589D01*
X620822Y91694D01*
X619494Y93022D01*
X618389Y94543D01*
X617536Y96217D01*
X616955Y98004D01*
X616754Y99277D01*
X627077Y99277D01*
X627077Y88954D01*
X625804Y89155D01*
G37*
%LPD*%
%LPC*%
G36*
X1124204Y88355D02*
X1124204Y88355D01*
X1122417Y88936D01*
X1120743Y89789D01*
X1119222Y90894D01*
X1117894Y92222D01*
X1116789Y93743D01*
X1115936Y95417D01*
X1115355Y97204D01*
X1115154Y98477D01*
X1125477Y98477D01*
X1125477Y88154D01*
X1124204Y88355D01*
G37*
%LPD*%
%LPC*%
G36*
X1098804Y88355D02*
X1098804Y88355D01*
X1097017Y88936D01*
X1095343Y89789D01*
X1093822Y90894D01*
X1092494Y92222D01*
X1091389Y93743D01*
X1090536Y95417D01*
X1089955Y97204D01*
X1089754Y98477D01*
X1100077Y98477D01*
X1100077Y88154D01*
X1098804Y88355D01*
G37*
%LPD*%
%LPC*%
G36*
X997204Y88355D02*
X997204Y88355D01*
X995417Y88936D01*
X993743Y89789D01*
X992222Y90894D01*
X990894Y92222D01*
X989789Y93743D01*
X988936Y95417D01*
X988355Y97204D01*
X988154Y98477D01*
X998477Y98477D01*
X998477Y88154D01*
X997204Y88355D01*
G37*
%LPD*%
%LPC*%
G36*
X1073404Y88355D02*
X1073404Y88355D01*
X1071617Y88936D01*
X1069943Y89789D01*
X1068422Y90894D01*
X1067094Y92222D01*
X1065989Y93743D01*
X1065136Y95417D01*
X1064555Y97204D01*
X1064354Y98477D01*
X1074677Y98477D01*
X1074677Y88154D01*
X1073404Y88355D01*
G37*
%LPD*%
%LPC*%
G36*
X600404Y89155D02*
X600404Y89155D01*
X598617Y89736D01*
X596943Y90589D01*
X595422Y91694D01*
X594094Y93022D01*
X592989Y94543D01*
X592136Y96217D01*
X591555Y98004D01*
X591354Y99277D01*
X601677Y99277D01*
X601677Y88954D01*
X600404Y89155D01*
G37*
%LPD*%
%LPC*%
G36*
X1048004Y88355D02*
X1048004Y88355D01*
X1046217Y88936D01*
X1044543Y89789D01*
X1043022Y90894D01*
X1041694Y92222D01*
X1040589Y93743D01*
X1039736Y95417D01*
X1039155Y97204D01*
X1038954Y98477D01*
X1049277Y98477D01*
X1049277Y88154D01*
X1048004Y88355D01*
G37*
%LPD*%
%LPC*%
G36*
X727404Y89155D02*
X727404Y89155D01*
X725617Y89736D01*
X723943Y90589D01*
X722422Y91694D01*
X721094Y93022D01*
X719989Y94543D01*
X719136Y96217D01*
X718555Y98004D01*
X718354Y99277D01*
X728677Y99277D01*
X728677Y88954D01*
X727404Y89155D01*
G37*
%LPD*%
%LPC*%
G36*
X1107123Y267023D02*
X1107123Y267023D01*
X1107123Y275425D01*
X1107951Y275294D01*
X1109454Y274805D01*
X1110863Y274088D01*
X1112141Y273159D01*
X1113259Y272041D01*
X1114188Y270763D01*
X1114905Y269354D01*
X1115394Y267851D01*
X1115525Y267023D01*
X1107123Y267023D01*
G37*
%LPD*%
%LPC*%
G36*
X179623Y422023D02*
X179623Y422023D01*
X179623Y430425D01*
X180451Y430294D01*
X181954Y429805D01*
X183363Y429088D01*
X184641Y428159D01*
X185759Y427041D01*
X186688Y425763D01*
X187405Y424354D01*
X187894Y422851D01*
X188025Y422023D01*
X179623Y422023D01*
G37*
%LPD*%
%LPC*%
G36*
X1082123Y412023D02*
X1082123Y412023D01*
X1082123Y420425D01*
X1082951Y420294D01*
X1084454Y419805D01*
X1085863Y419088D01*
X1087141Y418159D01*
X1088259Y417041D01*
X1089188Y415763D01*
X1089905Y414354D01*
X1090394Y412851D01*
X1090525Y412023D01*
X1082123Y412023D01*
G37*
%LPD*%
%LPC*%
G36*
X1554723Y267023D02*
X1554723Y267023D01*
X1554723Y275425D01*
X1555551Y275294D01*
X1557054Y274805D01*
X1558463Y274088D01*
X1559741Y273159D01*
X1560859Y272041D01*
X1561788Y270763D01*
X1562505Y269354D01*
X1562994Y267851D01*
X1563125Y267023D01*
X1554723Y267023D01*
G37*
%LPD*%
%LPC*%
G36*
X1529723Y412023D02*
X1529723Y412023D01*
X1529723Y420425D01*
X1530551Y420294D01*
X1532054Y419805D01*
X1533463Y419088D01*
X1534741Y418159D01*
X1535859Y417041D01*
X1536788Y415763D01*
X1537505Y414354D01*
X1537994Y412851D01*
X1538125Y412023D01*
X1529723Y412023D01*
G37*
%LPD*%
%LPC*%
G36*
X649523Y277023D02*
X649523Y277023D01*
X649523Y285425D01*
X650351Y285294D01*
X651854Y284805D01*
X653263Y284088D01*
X654541Y283159D01*
X655659Y282041D01*
X656588Y280763D01*
X657305Y279354D01*
X657794Y277851D01*
X657925Y277023D01*
X649523Y277023D01*
G37*
%LPD*%
%LPC*%
G36*
X624523Y422023D02*
X624523Y422023D01*
X624523Y430425D01*
X625351Y430294D01*
X626854Y429805D01*
X628263Y429088D01*
X629541Y428159D01*
X630659Y427041D01*
X631588Y425763D01*
X632305Y424354D01*
X632794Y422851D01*
X632925Y422023D01*
X624523Y422023D01*
G37*
%LPD*%
%LPC*%
G36*
X204623Y277023D02*
X204623Y277023D01*
X204623Y285425D01*
X205451Y285294D01*
X206954Y284805D01*
X208363Y284088D01*
X209641Y283159D01*
X210759Y282041D01*
X211688Y280763D01*
X212405Y279354D01*
X212894Y277851D01*
X213025Y277023D01*
X204623Y277023D01*
G37*
%LPD*%
%LPC*%
G36*
X179623Y418977D02*
X179623Y418977D01*
X188025Y418977D01*
X187894Y418149D01*
X187405Y416646D01*
X186688Y415237D01*
X185759Y413959D01*
X184641Y412841D01*
X183363Y411912D01*
X181954Y411195D01*
X180451Y410706D01*
X179623Y410575D01*
X179623Y418977D01*
G37*
%LPD*%
%LPC*%
G36*
X1082123Y408977D02*
X1082123Y408977D01*
X1090525Y408977D01*
X1090394Y408149D01*
X1089905Y406646D01*
X1089188Y405237D01*
X1088259Y403959D01*
X1087141Y402841D01*
X1085863Y401912D01*
X1084454Y401195D01*
X1082951Y400706D01*
X1082123Y400575D01*
X1082123Y408977D01*
G37*
%LPD*%
%LPC*%
G36*
X1529723Y408977D02*
X1529723Y408977D01*
X1538125Y408977D01*
X1537994Y408149D01*
X1537505Y406646D01*
X1536788Y405237D01*
X1535859Y403959D01*
X1534741Y402841D01*
X1533463Y401912D01*
X1532054Y401195D01*
X1530551Y400706D01*
X1529723Y400575D01*
X1529723Y408977D01*
G37*
%LPD*%
%LPC*%
G36*
X193175Y277023D02*
X193175Y277023D01*
X193306Y277851D01*
X193795Y279354D01*
X194512Y280763D01*
X195441Y282041D01*
X196559Y283159D01*
X197837Y284088D01*
X199246Y284805D01*
X200749Y285294D01*
X201577Y285425D01*
X201577Y277023D01*
X193175Y277023D01*
G37*
%LPD*%
%LPC*%
G36*
X1095675Y267023D02*
X1095675Y267023D01*
X1095806Y267851D01*
X1096295Y269354D01*
X1097012Y270763D01*
X1097941Y272041D01*
X1099059Y273159D01*
X1100337Y274088D01*
X1101746Y274805D01*
X1103249Y275294D01*
X1104077Y275425D01*
X1104077Y267023D01*
X1095675Y267023D01*
G37*
%LPD*%
%LPC*%
G36*
X1543275Y267023D02*
X1543275Y267023D01*
X1543406Y267851D01*
X1543895Y269354D01*
X1544612Y270763D01*
X1545541Y272041D01*
X1546659Y273159D01*
X1547937Y274088D01*
X1549346Y274805D01*
X1550849Y275294D01*
X1551677Y275425D01*
X1551677Y267023D01*
X1543275Y267023D01*
G37*
%LPD*%
%LPC*%
G36*
X638075Y277023D02*
X638075Y277023D01*
X638206Y277851D01*
X638695Y279354D01*
X639412Y280763D01*
X640341Y282041D01*
X641459Y283159D01*
X642737Y284088D01*
X644146Y284805D01*
X645649Y285294D01*
X646477Y285425D01*
X646477Y277023D01*
X638075Y277023D01*
G37*
%LPD*%
%LPC*%
G36*
X649523Y273977D02*
X649523Y273977D01*
X657925Y273977D01*
X657794Y273149D01*
X657305Y271646D01*
X656588Y270237D01*
X655659Y268959D01*
X654541Y267841D01*
X653263Y266912D01*
X651854Y266195D01*
X650351Y265706D01*
X649523Y265575D01*
X649523Y273977D01*
G37*
%LPD*%
%LPC*%
G36*
X1107123Y263977D02*
X1107123Y263977D01*
X1115525Y263977D01*
X1115394Y263149D01*
X1114905Y261646D01*
X1114188Y260237D01*
X1113259Y258959D01*
X1112141Y257841D01*
X1110863Y256912D01*
X1109454Y256195D01*
X1107951Y255706D01*
X1107123Y255575D01*
X1107123Y263977D01*
G37*
%LPD*%
%LPC*%
G36*
X1554723Y263977D02*
X1554723Y263977D01*
X1563125Y263977D01*
X1562994Y263149D01*
X1562505Y261646D01*
X1561788Y260237D01*
X1560859Y258959D01*
X1559741Y257841D01*
X1558463Y256912D01*
X1557054Y256195D01*
X1555551Y255706D01*
X1554723Y255575D01*
X1554723Y263977D01*
G37*
%LPD*%
%LPC*%
G36*
X204623Y273977D02*
X204623Y273977D01*
X213025Y273977D01*
X212894Y273149D01*
X212405Y271646D01*
X211688Y270237D01*
X210759Y268959D01*
X209641Y267841D01*
X208363Y266912D01*
X206954Y266195D01*
X205451Y265706D01*
X204623Y265575D01*
X204623Y273977D01*
G37*
%LPD*%
%LPC*%
G36*
X168175Y422023D02*
X168175Y422023D01*
X168306Y422851D01*
X168795Y424354D01*
X169512Y425763D01*
X170441Y427041D01*
X171559Y428159D01*
X172837Y429088D01*
X174246Y429805D01*
X175749Y430294D01*
X176577Y430425D01*
X176577Y422023D01*
X168175Y422023D01*
G37*
%LPD*%
%LPC*%
G36*
X613075Y422023D02*
X613075Y422023D01*
X613206Y422851D01*
X613695Y424354D01*
X614412Y425763D01*
X615341Y427041D01*
X616459Y428159D01*
X617737Y429088D01*
X619146Y429805D01*
X620649Y430294D01*
X621477Y430425D01*
X621477Y422023D01*
X613075Y422023D01*
G37*
%LPD*%
%LPC*%
G36*
X1070675Y412023D02*
X1070675Y412023D01*
X1070806Y412851D01*
X1071295Y414354D01*
X1072012Y415763D01*
X1072941Y417041D01*
X1074059Y418159D01*
X1075337Y419088D01*
X1076746Y419805D01*
X1078249Y420294D01*
X1079077Y420425D01*
X1079077Y412023D01*
X1070675Y412023D01*
G37*
%LPD*%
%LPC*%
G36*
X1518275Y412023D02*
X1518275Y412023D01*
X1518406Y412851D01*
X1518895Y414354D01*
X1519612Y415763D01*
X1520541Y417041D01*
X1521659Y418159D01*
X1522937Y419088D01*
X1524346Y419805D01*
X1525849Y420294D01*
X1526677Y420425D01*
X1526677Y412023D01*
X1518275Y412023D01*
G37*
%LPD*%
%LPC*%
G36*
X624523Y418977D02*
X624523Y418977D01*
X632925Y418977D01*
X632794Y418149D01*
X632305Y416646D01*
X631588Y415237D01*
X630659Y413959D01*
X629541Y412841D01*
X628263Y411912D01*
X626854Y411195D01*
X625351Y410706D01*
X624523Y410575D01*
X624523Y418977D01*
G37*
%LPD*%
%LPC*%
G36*
X1078249Y400706D02*
X1078249Y400706D01*
X1076746Y401195D01*
X1075337Y401912D01*
X1074059Y402841D01*
X1072941Y403959D01*
X1072012Y405237D01*
X1071295Y406646D01*
X1070806Y408149D01*
X1070675Y408977D01*
X1079077Y408977D01*
X1079077Y400575D01*
X1078249Y400706D01*
G37*
%LPD*%
%LPC*%
G36*
X1525849Y400706D02*
X1525849Y400706D01*
X1524346Y401195D01*
X1522937Y401912D01*
X1521659Y402841D01*
X1520541Y403959D01*
X1519612Y405237D01*
X1518895Y406646D01*
X1518406Y408149D01*
X1518275Y408977D01*
X1526677Y408977D01*
X1526677Y400575D01*
X1525849Y400706D01*
G37*
%LPD*%
%LPC*%
G36*
X175749Y410706D02*
X175749Y410706D01*
X174246Y411195D01*
X172837Y411912D01*
X171559Y412841D01*
X170441Y413959D01*
X169512Y415237D01*
X168795Y416646D01*
X168306Y418149D01*
X168175Y418977D01*
X176577Y418977D01*
X176577Y410575D01*
X175749Y410706D01*
G37*
%LPD*%
%LPC*%
G36*
X620649Y410706D02*
X620649Y410706D01*
X619146Y411195D01*
X617737Y411912D01*
X616459Y412841D01*
X615341Y413959D01*
X614412Y415237D01*
X613695Y416646D01*
X613206Y418149D01*
X613075Y418977D01*
X621477Y418977D01*
X621477Y410575D01*
X620649Y410706D01*
G37*
%LPD*%
%LPC*%
G36*
X645649Y265706D02*
X645649Y265706D01*
X644146Y266195D01*
X642737Y266912D01*
X641459Y267841D01*
X640341Y268959D01*
X639412Y270237D01*
X638695Y271646D01*
X638206Y273149D01*
X638075Y273977D01*
X646477Y273977D01*
X646477Y265575D01*
X645649Y265706D01*
G37*
%LPD*%
%LPC*%
G36*
X1103249Y255706D02*
X1103249Y255706D01*
X1101746Y256195D01*
X1100337Y256912D01*
X1099059Y257841D01*
X1097941Y258959D01*
X1097012Y260237D01*
X1096295Y261646D01*
X1095806Y263149D01*
X1095675Y263977D01*
X1104077Y263977D01*
X1104077Y255575D01*
X1103249Y255706D01*
G37*
%LPD*%
%LPC*%
G36*
X200749Y265706D02*
X200749Y265706D01*
X199246Y266195D01*
X197837Y266912D01*
X196559Y267841D01*
X195441Y268959D01*
X194512Y270237D01*
X193795Y271646D01*
X193306Y273149D01*
X193175Y273977D01*
X201577Y273977D01*
X201577Y265575D01*
X200749Y265706D01*
G37*
%LPD*%
%LPC*%
G36*
X1550849Y255706D02*
X1550849Y255706D01*
X1549346Y256195D01*
X1547937Y256912D01*
X1546659Y257841D01*
X1545541Y258959D01*
X1544612Y260237D01*
X1543895Y261646D01*
X1543406Y263149D01*
X1543275Y263977D01*
X1551677Y263977D01*
X1551677Y255575D01*
X1550849Y255706D01*
G37*
%LPD*%
%LPC*%
G36*
X647999Y275499D02*
X647999Y275499D01*
X647999Y275501D01*
X648001Y275501D01*
X648001Y275499D01*
X647999Y275499D01*
G37*
%LPD*%
%LPC*%
G36*
X203099Y275499D02*
X203099Y275499D01*
X203099Y275501D01*
X203101Y275501D01*
X203101Y275499D01*
X203099Y275499D01*
G37*
%LPD*%
%LPC*%
G36*
X1528199Y410499D02*
X1528199Y410499D01*
X1528199Y410501D01*
X1528201Y410501D01*
X1528201Y410499D01*
X1528199Y410499D01*
G37*
%LPD*%
%LPC*%
G36*
X178099Y420499D02*
X178099Y420499D01*
X178099Y420501D01*
X178101Y420501D01*
X178101Y420499D01*
X178099Y420499D01*
G37*
%LPD*%
%LPC*%
G36*
X1080599Y410499D02*
X1080599Y410499D01*
X1080599Y410501D01*
X1080601Y410501D01*
X1080601Y410499D01*
X1080599Y410499D01*
G37*
%LPD*%
%LPC*%
G36*
X622999Y420499D02*
X622999Y420499D01*
X622999Y420501D01*
X623001Y420501D01*
X623001Y420499D01*
X622999Y420499D01*
G37*
%LPD*%
%LPC*%
G36*
X1105599Y265499D02*
X1105599Y265499D01*
X1105599Y265501D01*
X1105601Y265501D01*
X1105601Y265499D01*
X1105599Y265499D01*
G37*
%LPD*%
%LPC*%
G36*
X1553199Y265499D02*
X1553199Y265499D01*
X1553199Y265501D01*
X1553201Y265501D01*
X1553201Y265499D01*
X1553199Y265499D01*
G37*
%LPD*%
D10*
X178100Y275500D03*
X203100Y275500D03*
X228100Y275500D03*
X178100Y420500D03*
X228100Y420500D03*
X623000Y275500D03*
X648000Y275500D03*
X673000Y275500D03*
X623000Y420500D03*
X673000Y420500D03*
X1080600Y265500D03*
X1105600Y265500D03*
X1130600Y265500D03*
X1080600Y410500D03*
X1130600Y410500D03*
X1528200Y265500D03*
X1553200Y265500D03*
X1578200Y265500D03*
X1528200Y410500D03*
X1578200Y410500D03*
D11*
X552400Y100800D03*
X552400Y126200D03*
X577800Y100800D03*
X577800Y126200D03*
X603200Y100800D03*
X603200Y126200D03*
X628600Y100800D03*
X628600Y126200D03*
X654000Y100800D03*
X654000Y126200D03*
X679400Y100800D03*
X679400Y126200D03*
X704800Y100800D03*
X704800Y126200D03*
X730200Y100800D03*
X730200Y126200D03*
X1000000Y100000D03*
X1000000Y125400D03*
X1025400Y100000D03*
X1025400Y125400D03*
X1050800Y100000D03*
X1050800Y125400D03*
X1076200Y100000D03*
X1076200Y125400D03*
X1101600Y100000D03*
X1101600Y125400D03*
X1127000Y100000D03*
X1127000Y125400D03*
X1152400Y100000D03*
X1152400Y125400D03*
X1177800Y100000D03*
X1177800Y125400D03*
D12*
X552400Y126200D02*
X463800Y126200D01*
X360000Y230000D01*
X200000Y230000D01*
X178100Y251900D01*
X178100Y275500D01*
X434000Y270000D02*
X577800Y126200D01*
X233600Y270000D02*
X228100Y275500D01*
X233600Y270000D02*
X434000Y270000D01*
X603200Y255700D02*
X603200Y126200D01*
X603200Y255700D02*
X623000Y275500D01*
X628600Y231100D02*
X628600Y126200D01*
X628600Y231100D02*
X673000Y275500D01*
X777800Y250000D02*
X654000Y126200D01*
X1065100Y250000D02*
X1080600Y265500D01*
X1065100Y250000D02*
X777800Y250000D01*
X783200Y230000D02*
X679400Y126200D01*
X783200Y230000D02*
X1110000Y230000D01*
X1130600Y250600D01*
X1130600Y265500D01*
X788600Y210000D02*
X704800Y126200D01*
X1472700Y210000D02*
X1528200Y265500D01*
X1472700Y210000D02*
X788600Y210000D01*
X794000Y190000D02*
X730200Y126200D01*
X794000Y190000D02*
X1520000Y190000D01*
X1578200Y248200D01*
X1578200Y265500D01*
X254338Y394262D02*
X228100Y420500D01*
X254338Y394262D02*
X278227Y394262D01*
X321244Y351244D01*
X322489Y350000D01*
D13*
X770000Y300000D03*
D12*
X372489Y300000D02*
X322489Y350000D01*
X372489Y300000D02*
X770000Y300000D01*
X1076200Y125400D02*
X1120800Y170000D01*
X1540000Y170000D02*
X1600000Y230000D01*
X1600000Y290000D01*
X1593262Y296738D01*
X1592073Y296738D01*
X1566438Y322373D02*
X1566438Y358627D01*
X1578200Y370389D01*
X1578200Y410500D01*
X1540000Y170000D02*
X1120800Y170000D01*
X1566438Y322373D02*
X1592073Y296738D01*
M02*
