G04 EAGLE Gerber RS-274X export*
G75*
%MOMM*%
%FSLAX34Y34*%
%LPD*%
%INSolder stop mask CMP*%
%IPPOS*%
%AMOC8*
5,1,8,0,0,1.08239X$1,22.5*%
G01*
%ADD10C,1.703200*%
%ADD11C,2.803200*%
%ADD12C,2.082800*%
%ADD13C,3.203200*%


D10*
X178100Y275500D03*
X203100Y275500D03*
X228100Y275500D03*
X178100Y420500D03*
X228100Y420500D03*
D11*
X260100Y350500D03*
X146100Y350500D03*
D10*
X623000Y275500D03*
X648000Y275500D03*
X673000Y275500D03*
X623000Y420500D03*
X673000Y420500D03*
D11*
X705000Y350500D03*
X591000Y350500D03*
D10*
X1080600Y265500D03*
X1105600Y265500D03*
X1130600Y265500D03*
X1080600Y410500D03*
X1130600Y410500D03*
D11*
X1162600Y340500D03*
X1048600Y340500D03*
D10*
X1528200Y265500D03*
X1553200Y265500D03*
X1578200Y265500D03*
X1528200Y410500D03*
X1578200Y410500D03*
D11*
X1610200Y340500D03*
X1496200Y340500D03*
D12*
X552400Y100800D03*
X552400Y126200D03*
X577800Y100800D03*
X577800Y126200D03*
X603200Y100800D03*
X603200Y126200D03*
X628600Y100800D03*
X628600Y126200D03*
X654000Y100800D03*
X654000Y126200D03*
X679400Y100800D03*
X679400Y126200D03*
X704800Y100800D03*
X704800Y126200D03*
X730200Y100800D03*
X730200Y126200D03*
X1000000Y100000D03*
X1000000Y125400D03*
X1025400Y100000D03*
X1025400Y125400D03*
X1050800Y100000D03*
X1050800Y125400D03*
X1076200Y100000D03*
X1076200Y125400D03*
X1101600Y100000D03*
X1101600Y125400D03*
X1127000Y100000D03*
X1127000Y125400D03*
X1152400Y100000D03*
X1152400Y125400D03*
X1177800Y100000D03*
X1177800Y125400D03*
D13*
X1650000Y50000D03*
X100000Y50000D03*
X100000Y450000D03*
X1650000Y450000D03*
M02*
