G04 EAGLE Gerber RS-274X export*
G75*
%MOMM*%
%FSLAX34Y34*%
%LPD*%
%INSilk screen CMP*%
%IPPOS*%
%AMOC8*
5,1,8,0,0,1.08239X$1,22.5*%
G01*
%ADD10C,0.152400*%
%ADD11C,0.000000*%
%ADD12C,0.101600*%
%ADD13C,0.203200*%
%ADD14C,0.127000*%


D10*
X50000Y0D02*
X50000Y500000D01*
X1700000Y500000D01*
X1700000Y0D01*
X50000Y0D01*
X210762Y125278D02*
X210762Y132502D01*
X210764Y132635D01*
X210770Y132767D01*
X210780Y132899D01*
X210793Y133031D01*
X210811Y133163D01*
X210832Y133293D01*
X210857Y133424D01*
X210886Y133553D01*
X210919Y133681D01*
X210955Y133809D01*
X210995Y133935D01*
X211039Y134060D01*
X211087Y134184D01*
X211138Y134306D01*
X211193Y134427D01*
X211251Y134546D01*
X211313Y134664D01*
X211378Y134779D01*
X211447Y134893D01*
X211518Y135004D01*
X211594Y135113D01*
X211672Y135220D01*
X211753Y135325D01*
X211838Y135427D01*
X211925Y135527D01*
X212015Y135624D01*
X212108Y135719D01*
X212204Y135810D01*
X212302Y135899D01*
X212403Y135985D01*
X212507Y136068D01*
X212613Y136148D01*
X212721Y136224D01*
X212831Y136298D01*
X212944Y136368D01*
X213058Y136435D01*
X213175Y136498D01*
X213293Y136558D01*
X213413Y136615D01*
X213535Y136668D01*
X213658Y136717D01*
X213782Y136763D01*
X213908Y136805D01*
X214035Y136843D01*
X214163Y136878D01*
X214292Y136909D01*
X214421Y136936D01*
X214552Y136959D01*
X214683Y136979D01*
X214815Y136994D01*
X214947Y137006D01*
X215079Y137014D01*
X215212Y137018D01*
X215344Y137018D01*
X215477Y137014D01*
X215609Y137006D01*
X215741Y136994D01*
X215873Y136979D01*
X216004Y136959D01*
X216135Y136936D01*
X216264Y136909D01*
X216393Y136878D01*
X216521Y136843D01*
X216648Y136805D01*
X216774Y136763D01*
X216898Y136717D01*
X217021Y136668D01*
X217143Y136615D01*
X217263Y136558D01*
X217381Y136498D01*
X217498Y136435D01*
X217612Y136368D01*
X217725Y136298D01*
X217835Y136224D01*
X217943Y136148D01*
X218049Y136068D01*
X218153Y135985D01*
X218254Y135899D01*
X218352Y135810D01*
X218448Y135719D01*
X218541Y135624D01*
X218631Y135527D01*
X218718Y135427D01*
X218803Y135325D01*
X218884Y135220D01*
X218962Y135113D01*
X219038Y135004D01*
X219109Y134893D01*
X219178Y134779D01*
X219243Y134664D01*
X219305Y134546D01*
X219363Y134427D01*
X219418Y134306D01*
X219469Y134184D01*
X219517Y134060D01*
X219561Y133935D01*
X219601Y133809D01*
X219637Y133681D01*
X219670Y133553D01*
X219699Y133424D01*
X219724Y133293D01*
X219745Y133163D01*
X219763Y133031D01*
X219776Y132899D01*
X219786Y132767D01*
X219792Y132635D01*
X219794Y132502D01*
X219793Y132502D02*
X219793Y125278D01*
X219794Y125278D02*
X219792Y125145D01*
X219786Y125013D01*
X219776Y124881D01*
X219763Y124749D01*
X219745Y124617D01*
X219724Y124487D01*
X219699Y124356D01*
X219670Y124227D01*
X219637Y124099D01*
X219601Y123971D01*
X219561Y123845D01*
X219517Y123720D01*
X219469Y123596D01*
X219418Y123474D01*
X219363Y123353D01*
X219305Y123234D01*
X219243Y123116D01*
X219178Y123001D01*
X219109Y122887D01*
X219038Y122776D01*
X218962Y122667D01*
X218884Y122560D01*
X218803Y122455D01*
X218718Y122353D01*
X218631Y122253D01*
X218541Y122156D01*
X218448Y122061D01*
X218352Y121970D01*
X218254Y121881D01*
X218153Y121795D01*
X218049Y121712D01*
X217943Y121632D01*
X217835Y121556D01*
X217725Y121482D01*
X217612Y121412D01*
X217498Y121345D01*
X217381Y121282D01*
X217263Y121222D01*
X217143Y121165D01*
X217021Y121112D01*
X216898Y121063D01*
X216774Y121017D01*
X216648Y120975D01*
X216521Y120937D01*
X216393Y120902D01*
X216264Y120871D01*
X216135Y120844D01*
X216004Y120821D01*
X215873Y120801D01*
X215741Y120786D01*
X215609Y120774D01*
X215477Y120766D01*
X215344Y120762D01*
X215212Y120762D01*
X215079Y120766D01*
X214947Y120774D01*
X214815Y120786D01*
X214683Y120801D01*
X214552Y120821D01*
X214421Y120844D01*
X214292Y120871D01*
X214163Y120902D01*
X214035Y120937D01*
X213908Y120975D01*
X213782Y121017D01*
X213658Y121063D01*
X213535Y121112D01*
X213413Y121165D01*
X213293Y121222D01*
X213175Y121282D01*
X213058Y121345D01*
X212944Y121412D01*
X212831Y121482D01*
X212721Y121556D01*
X212613Y121632D01*
X212507Y121712D01*
X212403Y121795D01*
X212302Y121881D01*
X212204Y121970D01*
X212108Y122061D01*
X212015Y122156D01*
X211925Y122253D01*
X211838Y122353D01*
X211753Y122455D01*
X211672Y122560D01*
X211594Y122667D01*
X211518Y122776D01*
X211447Y122887D01*
X211378Y123001D01*
X211313Y123116D01*
X211251Y123234D01*
X211193Y123353D01*
X211138Y123474D01*
X211087Y123596D01*
X211039Y123720D01*
X210995Y123845D01*
X210955Y123971D01*
X210919Y124099D01*
X210886Y124227D01*
X210857Y124356D01*
X210832Y124487D01*
X210811Y124617D01*
X210793Y124749D01*
X210780Y124881D01*
X210770Y125013D01*
X210764Y125145D01*
X210762Y125278D01*
X231291Y120762D02*
X231409Y120764D01*
X231527Y120770D01*
X231645Y120779D01*
X231762Y120793D01*
X231879Y120810D01*
X231996Y120831D01*
X232111Y120856D01*
X232226Y120885D01*
X232340Y120918D01*
X232452Y120954D01*
X232563Y120994D01*
X232673Y121037D01*
X232782Y121084D01*
X232889Y121134D01*
X232994Y121189D01*
X233097Y121246D01*
X233198Y121307D01*
X233298Y121371D01*
X233395Y121438D01*
X233490Y121508D01*
X233582Y121582D01*
X233673Y121658D01*
X233760Y121738D01*
X233845Y121820D01*
X233927Y121905D01*
X234007Y121992D01*
X234083Y122083D01*
X234157Y122175D01*
X234227Y122270D01*
X234294Y122367D01*
X234358Y122467D01*
X234419Y122568D01*
X234476Y122671D01*
X234531Y122776D01*
X234581Y122883D01*
X234628Y122992D01*
X234671Y123102D01*
X234711Y123213D01*
X234747Y123325D01*
X234780Y123439D01*
X234809Y123554D01*
X234834Y123669D01*
X234855Y123786D01*
X234872Y123903D01*
X234886Y124020D01*
X234895Y124138D01*
X234901Y124256D01*
X234903Y124374D01*
X231291Y120762D02*
X231108Y120764D01*
X230926Y120771D01*
X230744Y120782D01*
X230562Y120797D01*
X230380Y120817D01*
X230199Y120840D01*
X230019Y120869D01*
X229839Y120901D01*
X229660Y120938D01*
X229483Y120979D01*
X229306Y121025D01*
X229130Y121074D01*
X228956Y121128D01*
X228782Y121186D01*
X228611Y121248D01*
X228441Y121314D01*
X228272Y121385D01*
X228105Y121459D01*
X227940Y121537D01*
X227777Y121619D01*
X227616Y121705D01*
X227457Y121795D01*
X227300Y121889D01*
X227146Y121986D01*
X226994Y122087D01*
X226844Y122192D01*
X226697Y122300D01*
X226553Y122411D01*
X226411Y122526D01*
X226272Y122645D01*
X226136Y122767D01*
X226003Y122892D01*
X225873Y123020D01*
X226324Y133406D02*
X226326Y133524D01*
X226332Y133642D01*
X226341Y133760D01*
X226355Y133877D01*
X226372Y133994D01*
X226393Y134111D01*
X226418Y134226D01*
X226447Y134341D01*
X226480Y134455D01*
X226516Y134567D01*
X226556Y134678D01*
X226599Y134788D01*
X226646Y134897D01*
X226696Y135004D01*
X226751Y135109D01*
X226808Y135212D01*
X226869Y135313D01*
X226933Y135413D01*
X227000Y135510D01*
X227070Y135605D01*
X227144Y135697D01*
X227220Y135788D01*
X227300Y135875D01*
X227382Y135960D01*
X227467Y136042D01*
X227554Y136122D01*
X227645Y136198D01*
X227737Y136272D01*
X227832Y136342D01*
X227929Y136409D01*
X228029Y136473D01*
X228130Y136534D01*
X228233Y136592D01*
X228338Y136646D01*
X228445Y136696D01*
X228554Y136743D01*
X228664Y136787D01*
X228775Y136826D01*
X228888Y136862D01*
X229001Y136895D01*
X229116Y136924D01*
X229231Y136949D01*
X229348Y136970D01*
X229465Y136987D01*
X229582Y137001D01*
X229700Y137010D01*
X229818Y137016D01*
X229936Y137018D01*
X230097Y137016D01*
X230259Y137010D01*
X230420Y137001D01*
X230581Y136987D01*
X230741Y136970D01*
X230901Y136949D01*
X231061Y136924D01*
X231220Y136895D01*
X231378Y136863D01*
X231535Y136827D01*
X231691Y136787D01*
X231847Y136743D01*
X232001Y136695D01*
X232154Y136644D01*
X232306Y136590D01*
X232457Y136531D01*
X232606Y136470D01*
X232753Y136404D01*
X232899Y136335D01*
X233044Y136263D01*
X233186Y136187D01*
X233327Y136108D01*
X233466Y136026D01*
X233602Y135940D01*
X233737Y135851D01*
X233870Y135759D01*
X234000Y135663D01*
X228130Y130245D02*
X228029Y130307D01*
X227929Y130372D01*
X227832Y130441D01*
X227737Y130513D01*
X227644Y130587D01*
X227554Y130665D01*
X227466Y130746D01*
X227381Y130829D01*
X227299Y130915D01*
X227220Y131004D01*
X227143Y131095D01*
X227070Y131189D01*
X226999Y131285D01*
X226932Y131383D01*
X226868Y131483D01*
X226807Y131586D01*
X226750Y131690D01*
X226696Y131796D01*
X226646Y131904D01*
X226599Y132013D01*
X226555Y132124D01*
X226515Y132236D01*
X226479Y132350D01*
X226447Y132464D01*
X226418Y132580D01*
X226393Y132696D01*
X226372Y132813D01*
X226355Y132931D01*
X226341Y133049D01*
X226332Y133168D01*
X226326Y133287D01*
X226324Y133406D01*
X233097Y127535D02*
X233198Y127473D01*
X233298Y127408D01*
X233395Y127339D01*
X233490Y127267D01*
X233583Y127193D01*
X233673Y127115D01*
X233761Y127034D01*
X233846Y126951D01*
X233928Y126865D01*
X234007Y126776D01*
X234084Y126685D01*
X234157Y126591D01*
X234228Y126495D01*
X234295Y126397D01*
X234359Y126297D01*
X234420Y126194D01*
X234477Y126090D01*
X234531Y125984D01*
X234581Y125876D01*
X234628Y125767D01*
X234672Y125656D01*
X234712Y125544D01*
X234748Y125430D01*
X234780Y125316D01*
X234809Y125200D01*
X234834Y125084D01*
X234855Y124967D01*
X234872Y124849D01*
X234886Y124731D01*
X234895Y124612D01*
X234901Y124493D01*
X234903Y124374D01*
X233097Y127535D02*
X228130Y130245D01*
X244555Y120762D02*
X248168Y120762D01*
X244555Y120762D02*
X244437Y120764D01*
X244319Y120770D01*
X244201Y120779D01*
X244084Y120793D01*
X243967Y120810D01*
X243850Y120831D01*
X243735Y120856D01*
X243620Y120885D01*
X243506Y120918D01*
X243394Y120954D01*
X243283Y120994D01*
X243173Y121037D01*
X243064Y121084D01*
X242957Y121134D01*
X242852Y121189D01*
X242749Y121246D01*
X242648Y121307D01*
X242548Y121371D01*
X242451Y121438D01*
X242356Y121508D01*
X242264Y121582D01*
X242173Y121658D01*
X242086Y121738D01*
X242001Y121820D01*
X241919Y121905D01*
X241839Y121992D01*
X241763Y122083D01*
X241689Y122175D01*
X241619Y122270D01*
X241552Y122367D01*
X241488Y122467D01*
X241427Y122568D01*
X241370Y122671D01*
X241315Y122776D01*
X241265Y122883D01*
X241218Y122992D01*
X241175Y123102D01*
X241135Y123213D01*
X241099Y123325D01*
X241066Y123439D01*
X241037Y123554D01*
X241012Y123669D01*
X240991Y123786D01*
X240974Y123903D01*
X240960Y124020D01*
X240951Y124138D01*
X240945Y124256D01*
X240943Y124374D01*
X240943Y133406D01*
X240945Y133524D01*
X240951Y133642D01*
X240960Y133760D01*
X240974Y133877D01*
X240991Y133994D01*
X241012Y134111D01*
X241037Y134226D01*
X241066Y134341D01*
X241099Y134455D01*
X241135Y134567D01*
X241175Y134678D01*
X241218Y134788D01*
X241265Y134897D01*
X241315Y135004D01*
X241369Y135109D01*
X241427Y135212D01*
X241488Y135313D01*
X241552Y135413D01*
X241619Y135510D01*
X241689Y135605D01*
X241763Y135697D01*
X241839Y135788D01*
X241919Y135875D01*
X242001Y135960D01*
X242086Y136042D01*
X242173Y136122D01*
X242264Y136198D01*
X242356Y136272D01*
X242451Y136342D01*
X242548Y136409D01*
X242648Y136473D01*
X242749Y136534D01*
X242852Y136591D01*
X242957Y136645D01*
X243064Y136696D01*
X243173Y136743D01*
X243283Y136786D01*
X243394Y136826D01*
X243506Y136862D01*
X243620Y136895D01*
X243735Y136924D01*
X243850Y136949D01*
X243967Y136970D01*
X244084Y136987D01*
X244201Y137001D01*
X244319Y137010D01*
X244437Y137016D01*
X244555Y137018D01*
X248168Y137018D01*
X263077Y129793D02*
X267593Y129793D01*
X267593Y129794D02*
X267726Y129792D01*
X267858Y129786D01*
X267990Y129776D01*
X268122Y129763D01*
X268254Y129745D01*
X268384Y129724D01*
X268515Y129699D01*
X268644Y129670D01*
X268772Y129637D01*
X268900Y129601D01*
X269026Y129561D01*
X269151Y129517D01*
X269275Y129469D01*
X269397Y129418D01*
X269518Y129363D01*
X269637Y129305D01*
X269755Y129243D01*
X269870Y129178D01*
X269984Y129109D01*
X270095Y129038D01*
X270204Y128962D01*
X270311Y128884D01*
X270416Y128803D01*
X270518Y128718D01*
X270618Y128631D01*
X270715Y128541D01*
X270810Y128448D01*
X270901Y128352D01*
X270990Y128254D01*
X271076Y128153D01*
X271159Y128049D01*
X271239Y127943D01*
X271315Y127835D01*
X271389Y127725D01*
X271459Y127612D01*
X271526Y127498D01*
X271589Y127381D01*
X271649Y127263D01*
X271706Y127143D01*
X271759Y127021D01*
X271808Y126898D01*
X271854Y126774D01*
X271896Y126648D01*
X271934Y126521D01*
X271969Y126393D01*
X272000Y126264D01*
X272027Y126135D01*
X272050Y126004D01*
X272070Y125873D01*
X272085Y125741D01*
X272097Y125609D01*
X272105Y125477D01*
X272109Y125344D01*
X272109Y125212D01*
X272105Y125079D01*
X272097Y124947D01*
X272085Y124815D01*
X272070Y124683D01*
X272050Y124552D01*
X272027Y124421D01*
X272000Y124292D01*
X271969Y124163D01*
X271934Y124035D01*
X271896Y123908D01*
X271854Y123782D01*
X271808Y123658D01*
X271759Y123535D01*
X271706Y123413D01*
X271649Y123293D01*
X271589Y123175D01*
X271526Y123058D01*
X271459Y122944D01*
X271389Y122831D01*
X271315Y122721D01*
X271239Y122613D01*
X271159Y122507D01*
X271076Y122403D01*
X270990Y122302D01*
X270901Y122204D01*
X270810Y122108D01*
X270715Y122015D01*
X270618Y121925D01*
X270518Y121838D01*
X270416Y121753D01*
X270311Y121672D01*
X270204Y121594D01*
X270095Y121518D01*
X269984Y121447D01*
X269870Y121378D01*
X269755Y121313D01*
X269637Y121251D01*
X269518Y121193D01*
X269397Y121138D01*
X269275Y121087D01*
X269151Y121039D01*
X269026Y120995D01*
X268900Y120955D01*
X268772Y120919D01*
X268644Y120886D01*
X268515Y120857D01*
X268384Y120832D01*
X268254Y120811D01*
X268122Y120793D01*
X267990Y120780D01*
X267858Y120770D01*
X267726Y120764D01*
X267593Y120762D01*
X263077Y120762D01*
X263077Y137018D01*
X267593Y137018D01*
X267712Y137016D01*
X267832Y137010D01*
X267951Y137000D01*
X268069Y136986D01*
X268188Y136969D01*
X268305Y136947D01*
X268422Y136922D01*
X268537Y136892D01*
X268652Y136859D01*
X268766Y136822D01*
X268878Y136782D01*
X268989Y136737D01*
X269098Y136689D01*
X269206Y136638D01*
X269312Y136583D01*
X269416Y136524D01*
X269518Y136462D01*
X269618Y136397D01*
X269716Y136328D01*
X269812Y136256D01*
X269905Y136181D01*
X269995Y136104D01*
X270083Y136023D01*
X270168Y135939D01*
X270250Y135852D01*
X270330Y135763D01*
X270406Y135671D01*
X270480Y135577D01*
X270550Y135480D01*
X270617Y135382D01*
X270681Y135281D01*
X270741Y135177D01*
X270798Y135072D01*
X270851Y134965D01*
X270901Y134857D01*
X270947Y134747D01*
X270989Y134635D01*
X271028Y134522D01*
X271063Y134408D01*
X271094Y134293D01*
X271122Y134176D01*
X271145Y134059D01*
X271165Y133942D01*
X271181Y133823D01*
X271193Y133704D01*
X271201Y133585D01*
X271205Y133466D01*
X271205Y133346D01*
X271201Y133227D01*
X271193Y133108D01*
X271181Y132989D01*
X271165Y132870D01*
X271145Y132753D01*
X271122Y132636D01*
X271094Y132519D01*
X271063Y132404D01*
X271028Y132290D01*
X270989Y132177D01*
X270947Y132065D01*
X270901Y131955D01*
X270851Y131847D01*
X270798Y131740D01*
X270741Y131635D01*
X270681Y131531D01*
X270617Y131430D01*
X270550Y131332D01*
X270480Y131235D01*
X270406Y131141D01*
X270330Y131049D01*
X270250Y130960D01*
X270168Y130873D01*
X270083Y130789D01*
X269995Y130708D01*
X269905Y130631D01*
X269812Y130556D01*
X269716Y130484D01*
X269618Y130415D01*
X269518Y130350D01*
X269416Y130288D01*
X269312Y130229D01*
X269206Y130174D01*
X269098Y130123D01*
X268989Y130075D01*
X268878Y130030D01*
X268766Y129990D01*
X268652Y129953D01*
X268537Y129920D01*
X268422Y129890D01*
X268305Y129865D01*
X268188Y129843D01*
X268069Y129826D01*
X267951Y129812D01*
X267832Y129802D01*
X267712Y129796D01*
X267593Y129794D01*
X277837Y127987D02*
X277837Y124374D01*
X277838Y127987D02*
X277840Y128106D01*
X277846Y128226D01*
X277856Y128345D01*
X277870Y128463D01*
X277887Y128582D01*
X277909Y128699D01*
X277934Y128816D01*
X277964Y128931D01*
X277997Y129046D01*
X278034Y129160D01*
X278074Y129272D01*
X278119Y129383D01*
X278167Y129492D01*
X278218Y129600D01*
X278273Y129706D01*
X278332Y129810D01*
X278394Y129912D01*
X278459Y130012D01*
X278528Y130110D01*
X278600Y130206D01*
X278675Y130299D01*
X278752Y130389D01*
X278833Y130477D01*
X278917Y130562D01*
X279004Y130644D01*
X279093Y130724D01*
X279185Y130800D01*
X279279Y130874D01*
X279376Y130944D01*
X279474Y131011D01*
X279575Y131075D01*
X279679Y131135D01*
X279784Y131192D01*
X279891Y131245D01*
X279999Y131295D01*
X280109Y131341D01*
X280221Y131383D01*
X280334Y131422D01*
X280448Y131457D01*
X280563Y131488D01*
X280680Y131516D01*
X280797Y131539D01*
X280914Y131559D01*
X281033Y131575D01*
X281152Y131587D01*
X281271Y131595D01*
X281390Y131599D01*
X281510Y131599D01*
X281629Y131595D01*
X281748Y131587D01*
X281867Y131575D01*
X281986Y131559D01*
X282103Y131539D01*
X282220Y131516D01*
X282337Y131488D01*
X282452Y131457D01*
X282566Y131422D01*
X282679Y131383D01*
X282791Y131341D01*
X282901Y131295D01*
X283009Y131245D01*
X283116Y131192D01*
X283221Y131135D01*
X283325Y131075D01*
X283426Y131011D01*
X283524Y130944D01*
X283621Y130874D01*
X283715Y130800D01*
X283807Y130724D01*
X283896Y130644D01*
X283983Y130562D01*
X284067Y130477D01*
X284148Y130389D01*
X284225Y130299D01*
X284300Y130206D01*
X284372Y130110D01*
X284441Y130012D01*
X284506Y129912D01*
X284568Y129810D01*
X284627Y129706D01*
X284682Y129600D01*
X284733Y129492D01*
X284781Y129383D01*
X284826Y129272D01*
X284866Y129160D01*
X284903Y129046D01*
X284936Y128931D01*
X284966Y128816D01*
X284991Y128699D01*
X285013Y128582D01*
X285030Y128463D01*
X285044Y128345D01*
X285054Y128226D01*
X285060Y128106D01*
X285062Y127987D01*
X285062Y124374D01*
X285060Y124255D01*
X285054Y124135D01*
X285044Y124016D01*
X285030Y123898D01*
X285013Y123779D01*
X284991Y123662D01*
X284966Y123545D01*
X284936Y123430D01*
X284903Y123315D01*
X284866Y123201D01*
X284826Y123089D01*
X284781Y122978D01*
X284733Y122869D01*
X284682Y122761D01*
X284627Y122655D01*
X284568Y122551D01*
X284506Y122449D01*
X284441Y122349D01*
X284372Y122251D01*
X284300Y122155D01*
X284225Y122062D01*
X284148Y121972D01*
X284067Y121884D01*
X283983Y121799D01*
X283896Y121717D01*
X283807Y121637D01*
X283715Y121561D01*
X283621Y121487D01*
X283524Y121417D01*
X283426Y121350D01*
X283325Y121286D01*
X283221Y121226D01*
X283116Y121169D01*
X283009Y121116D01*
X282901Y121066D01*
X282791Y121020D01*
X282679Y120978D01*
X282566Y120939D01*
X282452Y120904D01*
X282337Y120873D01*
X282220Y120845D01*
X282103Y120822D01*
X281986Y120802D01*
X281867Y120786D01*
X281748Y120774D01*
X281629Y120766D01*
X281510Y120762D01*
X281390Y120762D01*
X281271Y120766D01*
X281152Y120774D01*
X281033Y120786D01*
X280914Y120802D01*
X280797Y120822D01*
X280680Y120845D01*
X280563Y120873D01*
X280448Y120904D01*
X280334Y120939D01*
X280221Y120978D01*
X280109Y121020D01*
X279999Y121066D01*
X279891Y121116D01*
X279784Y121169D01*
X279679Y121226D01*
X279575Y121286D01*
X279474Y121350D01*
X279376Y121417D01*
X279279Y121487D01*
X279185Y121561D01*
X279093Y121637D01*
X279004Y121717D01*
X278917Y121799D01*
X278833Y121884D01*
X278752Y121972D01*
X278675Y122062D01*
X278600Y122155D01*
X278528Y122251D01*
X278459Y122349D01*
X278394Y122449D01*
X278332Y122551D01*
X278273Y122655D01*
X278218Y122761D01*
X278167Y122869D01*
X278119Y122978D01*
X278074Y123089D01*
X278034Y123201D01*
X277997Y123315D01*
X277964Y123430D01*
X277934Y123545D01*
X277909Y123662D01*
X277887Y123779D01*
X277870Y123898D01*
X277856Y124016D01*
X277846Y124135D01*
X277840Y124255D01*
X277838Y124374D01*
X290863Y120762D02*
X298088Y131599D01*
X290863Y131599D02*
X298088Y120762D01*
X210762Y107018D02*
X210762Y90762D01*
X210762Y107018D02*
X215278Y107018D01*
X215411Y107016D01*
X215543Y107010D01*
X215675Y107000D01*
X215807Y106987D01*
X215939Y106969D01*
X216069Y106948D01*
X216200Y106923D01*
X216329Y106894D01*
X216457Y106861D01*
X216585Y106825D01*
X216711Y106785D01*
X216836Y106741D01*
X216960Y106693D01*
X217082Y106642D01*
X217203Y106587D01*
X217322Y106529D01*
X217440Y106467D01*
X217555Y106402D01*
X217669Y106333D01*
X217780Y106262D01*
X217889Y106186D01*
X217996Y106108D01*
X218101Y106027D01*
X218203Y105942D01*
X218303Y105855D01*
X218400Y105765D01*
X218495Y105672D01*
X218586Y105576D01*
X218675Y105478D01*
X218761Y105377D01*
X218844Y105273D01*
X218924Y105167D01*
X219000Y105059D01*
X219074Y104949D01*
X219144Y104836D01*
X219211Y104722D01*
X219274Y104605D01*
X219334Y104487D01*
X219391Y104367D01*
X219444Y104245D01*
X219493Y104122D01*
X219539Y103998D01*
X219581Y103872D01*
X219619Y103745D01*
X219654Y103617D01*
X219685Y103488D01*
X219712Y103359D01*
X219735Y103228D01*
X219755Y103097D01*
X219770Y102965D01*
X219782Y102833D01*
X219790Y102701D01*
X219794Y102568D01*
X219794Y102436D01*
X219790Y102303D01*
X219782Y102171D01*
X219770Y102039D01*
X219755Y101907D01*
X219735Y101776D01*
X219712Y101645D01*
X219685Y101516D01*
X219654Y101387D01*
X219619Y101259D01*
X219581Y101132D01*
X219539Y101006D01*
X219493Y100882D01*
X219444Y100759D01*
X219391Y100637D01*
X219334Y100517D01*
X219274Y100399D01*
X219211Y100282D01*
X219144Y100168D01*
X219074Y100055D01*
X219000Y99945D01*
X218924Y99837D01*
X218844Y99731D01*
X218761Y99627D01*
X218675Y99526D01*
X218586Y99428D01*
X218495Y99332D01*
X218400Y99239D01*
X218303Y99149D01*
X218203Y99062D01*
X218101Y98977D01*
X217996Y98896D01*
X217889Y98818D01*
X217780Y98742D01*
X217669Y98671D01*
X217555Y98602D01*
X217440Y98537D01*
X217322Y98475D01*
X217203Y98417D01*
X217082Y98362D01*
X216960Y98311D01*
X216836Y98263D01*
X216711Y98219D01*
X216585Y98179D01*
X216457Y98143D01*
X216329Y98110D01*
X216200Y98081D01*
X216069Y98056D01*
X215939Y98035D01*
X215807Y98017D01*
X215675Y98004D01*
X215543Y97994D01*
X215411Y97988D01*
X215278Y97986D01*
X215278Y97987D02*
X210762Y97987D01*
X216181Y97987D02*
X219793Y90762D01*
X228872Y90762D02*
X233388Y90762D01*
X228872Y90762D02*
X228771Y90764D01*
X228670Y90770D01*
X228569Y90779D01*
X228468Y90792D01*
X228368Y90809D01*
X228269Y90830D01*
X228171Y90854D01*
X228074Y90882D01*
X227977Y90914D01*
X227882Y90949D01*
X227789Y90988D01*
X227697Y91030D01*
X227606Y91076D01*
X227518Y91125D01*
X227431Y91177D01*
X227346Y91233D01*
X227263Y91291D01*
X227183Y91353D01*
X227105Y91418D01*
X227029Y91485D01*
X226956Y91555D01*
X226886Y91628D01*
X226819Y91704D01*
X226754Y91782D01*
X226692Y91862D01*
X226634Y91945D01*
X226578Y92030D01*
X226526Y92117D01*
X226477Y92205D01*
X226431Y92296D01*
X226389Y92388D01*
X226350Y92481D01*
X226315Y92576D01*
X226283Y92673D01*
X226255Y92770D01*
X226231Y92868D01*
X226210Y92967D01*
X226193Y93067D01*
X226180Y93168D01*
X226171Y93269D01*
X226165Y93370D01*
X226163Y93471D01*
X226163Y97987D01*
X226165Y98106D01*
X226171Y98226D01*
X226181Y98345D01*
X226195Y98463D01*
X226212Y98582D01*
X226234Y98699D01*
X226259Y98816D01*
X226289Y98931D01*
X226322Y99046D01*
X226359Y99160D01*
X226399Y99272D01*
X226444Y99383D01*
X226492Y99492D01*
X226543Y99600D01*
X226598Y99706D01*
X226657Y99810D01*
X226719Y99912D01*
X226784Y100012D01*
X226853Y100110D01*
X226925Y100206D01*
X227000Y100299D01*
X227077Y100389D01*
X227158Y100477D01*
X227242Y100562D01*
X227329Y100644D01*
X227418Y100724D01*
X227510Y100800D01*
X227604Y100874D01*
X227701Y100944D01*
X227799Y101011D01*
X227900Y101075D01*
X228004Y101135D01*
X228109Y101192D01*
X228216Y101245D01*
X228324Y101295D01*
X228434Y101341D01*
X228546Y101383D01*
X228659Y101422D01*
X228773Y101457D01*
X228888Y101488D01*
X229005Y101516D01*
X229122Y101539D01*
X229239Y101559D01*
X229358Y101575D01*
X229477Y101587D01*
X229596Y101595D01*
X229715Y101599D01*
X229835Y101599D01*
X229954Y101595D01*
X230073Y101587D01*
X230192Y101575D01*
X230311Y101559D01*
X230428Y101539D01*
X230545Y101516D01*
X230662Y101488D01*
X230777Y101457D01*
X230891Y101422D01*
X231004Y101383D01*
X231116Y101341D01*
X231226Y101295D01*
X231334Y101245D01*
X231441Y101192D01*
X231546Y101135D01*
X231650Y101075D01*
X231751Y101011D01*
X231849Y100944D01*
X231946Y100874D01*
X232040Y100800D01*
X232132Y100724D01*
X232221Y100644D01*
X232308Y100562D01*
X232392Y100477D01*
X232473Y100389D01*
X232550Y100299D01*
X232625Y100206D01*
X232697Y100110D01*
X232766Y100012D01*
X232831Y99912D01*
X232893Y99810D01*
X232952Y99706D01*
X233007Y99600D01*
X233058Y99492D01*
X233106Y99383D01*
X233151Y99272D01*
X233191Y99160D01*
X233228Y99046D01*
X233261Y98931D01*
X233291Y98816D01*
X233316Y98699D01*
X233338Y98582D01*
X233355Y98463D01*
X233369Y98345D01*
X233379Y98226D01*
X233385Y98106D01*
X233387Y97987D01*
X233388Y97987D02*
X233388Y96181D01*
X226163Y96181D01*
X239189Y101599D02*
X242801Y90762D01*
X246414Y101599D01*
X260690Y103406D02*
X265206Y107018D01*
X265206Y90762D01*
X269721Y90762D02*
X260690Y90762D01*
X275696Y90762D02*
X275696Y91665D01*
X276599Y91665D01*
X276599Y90762D01*
X275696Y90762D01*
X282574Y98890D02*
X282578Y99210D01*
X282589Y99529D01*
X282608Y99849D01*
X282635Y100167D01*
X282669Y100485D01*
X282711Y100802D01*
X282761Y101118D01*
X282818Y101433D01*
X282882Y101746D01*
X282954Y102058D01*
X283033Y102368D01*
X283120Y102675D01*
X283214Y102981D01*
X283315Y103284D01*
X283424Y103585D01*
X283539Y103883D01*
X283662Y104179D01*
X283792Y104471D01*
X283929Y104760D01*
X283929Y104761D02*
X283968Y104869D01*
X284011Y104976D01*
X284057Y105081D01*
X284108Y105185D01*
X284161Y105287D01*
X284218Y105387D01*
X284279Y105485D01*
X284343Y105580D01*
X284410Y105674D01*
X284481Y105765D01*
X284554Y105854D01*
X284631Y105940D01*
X284710Y106023D01*
X284792Y106104D01*
X284877Y106182D01*
X284965Y106256D01*
X285055Y106328D01*
X285147Y106396D01*
X285242Y106462D01*
X285339Y106524D01*
X285438Y106582D01*
X285540Y106638D01*
X285642Y106689D01*
X285747Y106737D01*
X285853Y106782D01*
X285961Y106823D01*
X286070Y106860D01*
X286180Y106893D01*
X286292Y106922D01*
X286404Y106948D01*
X286517Y106970D01*
X286631Y106987D01*
X286745Y107001D01*
X286860Y107011D01*
X286975Y107017D01*
X287090Y107019D01*
X287090Y107018D02*
X287205Y107016D01*
X287320Y107010D01*
X287435Y107000D01*
X287549Y106986D01*
X287663Y106969D01*
X287776Y106947D01*
X287888Y106921D01*
X288000Y106892D01*
X288110Y106859D01*
X288219Y106822D01*
X288327Y106781D01*
X288433Y106736D01*
X288538Y106688D01*
X288640Y106637D01*
X288741Y106581D01*
X288841Y106523D01*
X288938Y106461D01*
X289032Y106396D01*
X289125Y106327D01*
X289215Y106255D01*
X289303Y106181D01*
X289388Y106103D01*
X289470Y106022D01*
X289549Y105939D01*
X289626Y105853D01*
X289699Y105764D01*
X289770Y105673D01*
X289837Y105579D01*
X289901Y105484D01*
X289962Y105386D01*
X290019Y105286D01*
X290072Y105184D01*
X290123Y105080D01*
X290169Y104975D01*
X290212Y104868D01*
X290251Y104760D01*
X290250Y104760D02*
X290387Y104471D01*
X290517Y104179D01*
X290640Y103883D01*
X290755Y103585D01*
X290864Y103284D01*
X290965Y102981D01*
X291059Y102675D01*
X291146Y102368D01*
X291225Y102058D01*
X291297Y101746D01*
X291361Y101433D01*
X291418Y101118D01*
X291468Y100802D01*
X291510Y100485D01*
X291544Y100167D01*
X291571Y99849D01*
X291590Y99529D01*
X291601Y99210D01*
X291605Y98890D01*
X282574Y98890D02*
X282578Y98570D01*
X282589Y98251D01*
X282608Y97931D01*
X282635Y97613D01*
X282669Y97295D01*
X282711Y96978D01*
X282761Y96662D01*
X282818Y96347D01*
X282882Y96034D01*
X282954Y95722D01*
X283033Y95412D01*
X283120Y95105D01*
X283214Y94799D01*
X283315Y94496D01*
X283424Y94195D01*
X283539Y93897D01*
X283662Y93601D01*
X283792Y93309D01*
X283929Y93020D01*
X283968Y92912D01*
X284011Y92805D01*
X284057Y92700D01*
X284108Y92596D01*
X284161Y92494D01*
X284218Y92394D01*
X284279Y92296D01*
X284343Y92201D01*
X284410Y92107D01*
X284481Y92016D01*
X284554Y91927D01*
X284631Y91841D01*
X284710Y91758D01*
X284792Y91677D01*
X284877Y91599D01*
X284965Y91525D01*
X285055Y91453D01*
X285148Y91384D01*
X285242Y91319D01*
X285339Y91257D01*
X285439Y91199D01*
X285540Y91143D01*
X285642Y91092D01*
X285747Y91044D01*
X285853Y90999D01*
X285961Y90958D01*
X286070Y90921D01*
X286180Y90888D01*
X286292Y90859D01*
X286404Y90833D01*
X286517Y90811D01*
X286631Y90794D01*
X286745Y90780D01*
X286860Y90770D01*
X286975Y90764D01*
X287090Y90762D01*
X290250Y93020D02*
X290387Y93309D01*
X290517Y93601D01*
X290640Y93897D01*
X290755Y94195D01*
X290864Y94496D01*
X290965Y94799D01*
X291059Y95105D01*
X291146Y95412D01*
X291225Y95722D01*
X291297Y96034D01*
X291361Y96347D01*
X291418Y96662D01*
X291468Y96978D01*
X291510Y97295D01*
X291544Y97613D01*
X291571Y97931D01*
X291590Y98251D01*
X291601Y98570D01*
X291605Y98890D01*
X290251Y93020D02*
X290212Y92912D01*
X290169Y92805D01*
X290123Y92700D01*
X290072Y92596D01*
X290019Y92494D01*
X289962Y92394D01*
X289901Y92296D01*
X289837Y92201D01*
X289770Y92107D01*
X289699Y92016D01*
X289626Y91927D01*
X289549Y91841D01*
X289470Y91758D01*
X289388Y91677D01*
X289303Y91599D01*
X289215Y91525D01*
X289125Y91453D01*
X289032Y91384D01*
X288938Y91319D01*
X288841Y91257D01*
X288741Y91199D01*
X288640Y91143D01*
X288537Y91092D01*
X288433Y91044D01*
X288327Y90999D01*
X288219Y90958D01*
X288110Y90921D01*
X288000Y90888D01*
X287888Y90859D01*
X287776Y90833D01*
X287663Y90811D01*
X287549Y90794D01*
X287435Y90780D01*
X287320Y90770D01*
X287205Y90764D01*
X287090Y90762D01*
X283477Y94374D02*
X290702Y103406D01*
D11*
X247100Y350500D02*
X247104Y350819D01*
X247116Y351138D01*
X247135Y351456D01*
X247163Y351774D01*
X247198Y352091D01*
X247241Y352407D01*
X247291Y352723D01*
X247350Y353036D01*
X247416Y353348D01*
X247490Y353659D01*
X247571Y353967D01*
X247660Y354274D01*
X247756Y354578D01*
X247860Y354880D01*
X247971Y355179D01*
X248090Y355475D01*
X248215Y355768D01*
X248348Y356058D01*
X248488Y356345D01*
X248635Y356628D01*
X248789Y356908D01*
X248950Y357183D01*
X249117Y357455D01*
X249291Y357722D01*
X249471Y357986D01*
X249658Y358244D01*
X249851Y358498D01*
X250051Y358747D01*
X250256Y358991D01*
X250468Y359230D01*
X250685Y359464D01*
X250908Y359692D01*
X251136Y359915D01*
X251370Y360132D01*
X251609Y360344D01*
X251853Y360549D01*
X252102Y360749D01*
X252356Y360942D01*
X252614Y361129D01*
X252878Y361309D01*
X253145Y361483D01*
X253417Y361650D01*
X253692Y361811D01*
X253972Y361965D01*
X254255Y362112D01*
X254542Y362252D01*
X254832Y362385D01*
X255125Y362510D01*
X255421Y362629D01*
X255720Y362740D01*
X256022Y362844D01*
X256326Y362940D01*
X256633Y363029D01*
X256941Y363110D01*
X257252Y363184D01*
X257564Y363250D01*
X257877Y363309D01*
X258193Y363359D01*
X258509Y363402D01*
X258826Y363437D01*
X259144Y363465D01*
X259462Y363484D01*
X259781Y363496D01*
X260100Y363500D01*
X260419Y363496D01*
X260738Y363484D01*
X261056Y363465D01*
X261374Y363437D01*
X261691Y363402D01*
X262007Y363359D01*
X262323Y363309D01*
X262636Y363250D01*
X262948Y363184D01*
X263259Y363110D01*
X263567Y363029D01*
X263874Y362940D01*
X264178Y362844D01*
X264480Y362740D01*
X264779Y362629D01*
X265075Y362510D01*
X265368Y362385D01*
X265658Y362252D01*
X265945Y362112D01*
X266228Y361965D01*
X266508Y361811D01*
X266783Y361650D01*
X267055Y361483D01*
X267322Y361309D01*
X267586Y361129D01*
X267844Y360942D01*
X268098Y360749D01*
X268347Y360549D01*
X268591Y360344D01*
X268830Y360132D01*
X269064Y359915D01*
X269292Y359692D01*
X269515Y359464D01*
X269732Y359230D01*
X269944Y358991D01*
X270149Y358747D01*
X270349Y358498D01*
X270542Y358244D01*
X270729Y357986D01*
X270909Y357722D01*
X271083Y357455D01*
X271250Y357183D01*
X271411Y356908D01*
X271565Y356628D01*
X271712Y356345D01*
X271852Y356058D01*
X271985Y355768D01*
X272110Y355475D01*
X272229Y355179D01*
X272340Y354880D01*
X272444Y354578D01*
X272540Y354274D01*
X272629Y353967D01*
X272710Y353659D01*
X272784Y353348D01*
X272850Y353036D01*
X272909Y352723D01*
X272959Y352407D01*
X273002Y352091D01*
X273037Y351774D01*
X273065Y351456D01*
X273084Y351138D01*
X273096Y350819D01*
X273100Y350500D01*
X273096Y350181D01*
X273084Y349862D01*
X273065Y349544D01*
X273037Y349226D01*
X273002Y348909D01*
X272959Y348593D01*
X272909Y348277D01*
X272850Y347964D01*
X272784Y347652D01*
X272710Y347341D01*
X272629Y347033D01*
X272540Y346726D01*
X272444Y346422D01*
X272340Y346120D01*
X272229Y345821D01*
X272110Y345525D01*
X271985Y345232D01*
X271852Y344942D01*
X271712Y344655D01*
X271565Y344372D01*
X271411Y344092D01*
X271250Y343817D01*
X271083Y343545D01*
X270909Y343278D01*
X270729Y343014D01*
X270542Y342756D01*
X270349Y342502D01*
X270149Y342253D01*
X269944Y342009D01*
X269732Y341770D01*
X269515Y341536D01*
X269292Y341308D01*
X269064Y341085D01*
X268830Y340868D01*
X268591Y340656D01*
X268347Y340451D01*
X268098Y340251D01*
X267844Y340058D01*
X267586Y339871D01*
X267322Y339691D01*
X267055Y339517D01*
X266783Y339350D01*
X266508Y339189D01*
X266228Y339035D01*
X265945Y338888D01*
X265658Y338748D01*
X265368Y338615D01*
X265075Y338490D01*
X264779Y338371D01*
X264480Y338260D01*
X264178Y338156D01*
X263874Y338060D01*
X263567Y337971D01*
X263259Y337890D01*
X262948Y337816D01*
X262636Y337750D01*
X262323Y337691D01*
X262007Y337641D01*
X261691Y337598D01*
X261374Y337563D01*
X261056Y337535D01*
X260738Y337516D01*
X260419Y337504D01*
X260100Y337500D01*
X259781Y337504D01*
X259462Y337516D01*
X259144Y337535D01*
X258826Y337563D01*
X258509Y337598D01*
X258193Y337641D01*
X257877Y337691D01*
X257564Y337750D01*
X257252Y337816D01*
X256941Y337890D01*
X256633Y337971D01*
X256326Y338060D01*
X256022Y338156D01*
X255720Y338260D01*
X255421Y338371D01*
X255125Y338490D01*
X254832Y338615D01*
X254542Y338748D01*
X254255Y338888D01*
X253972Y339035D01*
X253692Y339189D01*
X253417Y339350D01*
X253145Y339517D01*
X252878Y339691D01*
X252614Y339871D01*
X252356Y340058D01*
X252102Y340251D01*
X251853Y340451D01*
X251609Y340656D01*
X251370Y340868D01*
X251136Y341085D01*
X250908Y341308D01*
X250685Y341536D01*
X250468Y341770D01*
X250256Y342009D01*
X250051Y342253D01*
X249851Y342502D01*
X249658Y342756D01*
X249471Y343014D01*
X249291Y343278D01*
X249117Y343545D01*
X248950Y343817D01*
X248789Y344092D01*
X248635Y344372D01*
X248488Y344655D01*
X248348Y344942D01*
X248215Y345232D01*
X248090Y345525D01*
X247971Y345821D01*
X247860Y346120D01*
X247756Y346422D01*
X247660Y346726D01*
X247571Y347033D01*
X247490Y347341D01*
X247416Y347652D01*
X247350Y347964D01*
X247291Y348277D01*
X247241Y348593D01*
X247198Y348909D01*
X247163Y349226D01*
X247135Y349544D01*
X247116Y349862D01*
X247104Y350181D01*
X247100Y350500D01*
X133100Y350500D02*
X133104Y350819D01*
X133116Y351138D01*
X133135Y351456D01*
X133163Y351774D01*
X133198Y352091D01*
X133241Y352407D01*
X133291Y352723D01*
X133350Y353036D01*
X133416Y353348D01*
X133490Y353659D01*
X133571Y353967D01*
X133660Y354274D01*
X133756Y354578D01*
X133860Y354880D01*
X133971Y355179D01*
X134090Y355475D01*
X134215Y355768D01*
X134348Y356058D01*
X134488Y356345D01*
X134635Y356628D01*
X134789Y356908D01*
X134950Y357183D01*
X135117Y357455D01*
X135291Y357722D01*
X135471Y357986D01*
X135658Y358244D01*
X135851Y358498D01*
X136051Y358747D01*
X136256Y358991D01*
X136468Y359230D01*
X136685Y359464D01*
X136908Y359692D01*
X137136Y359915D01*
X137370Y360132D01*
X137609Y360344D01*
X137853Y360549D01*
X138102Y360749D01*
X138356Y360942D01*
X138614Y361129D01*
X138878Y361309D01*
X139145Y361483D01*
X139417Y361650D01*
X139692Y361811D01*
X139972Y361965D01*
X140255Y362112D01*
X140542Y362252D01*
X140832Y362385D01*
X141125Y362510D01*
X141421Y362629D01*
X141720Y362740D01*
X142022Y362844D01*
X142326Y362940D01*
X142633Y363029D01*
X142941Y363110D01*
X143252Y363184D01*
X143564Y363250D01*
X143877Y363309D01*
X144193Y363359D01*
X144509Y363402D01*
X144826Y363437D01*
X145144Y363465D01*
X145462Y363484D01*
X145781Y363496D01*
X146100Y363500D01*
X146419Y363496D01*
X146738Y363484D01*
X147056Y363465D01*
X147374Y363437D01*
X147691Y363402D01*
X148007Y363359D01*
X148323Y363309D01*
X148636Y363250D01*
X148948Y363184D01*
X149259Y363110D01*
X149567Y363029D01*
X149874Y362940D01*
X150178Y362844D01*
X150480Y362740D01*
X150779Y362629D01*
X151075Y362510D01*
X151368Y362385D01*
X151658Y362252D01*
X151945Y362112D01*
X152228Y361965D01*
X152508Y361811D01*
X152783Y361650D01*
X153055Y361483D01*
X153322Y361309D01*
X153586Y361129D01*
X153844Y360942D01*
X154098Y360749D01*
X154347Y360549D01*
X154591Y360344D01*
X154830Y360132D01*
X155064Y359915D01*
X155292Y359692D01*
X155515Y359464D01*
X155732Y359230D01*
X155944Y358991D01*
X156149Y358747D01*
X156349Y358498D01*
X156542Y358244D01*
X156729Y357986D01*
X156909Y357722D01*
X157083Y357455D01*
X157250Y357183D01*
X157411Y356908D01*
X157565Y356628D01*
X157712Y356345D01*
X157852Y356058D01*
X157985Y355768D01*
X158110Y355475D01*
X158229Y355179D01*
X158340Y354880D01*
X158444Y354578D01*
X158540Y354274D01*
X158629Y353967D01*
X158710Y353659D01*
X158784Y353348D01*
X158850Y353036D01*
X158909Y352723D01*
X158959Y352407D01*
X159002Y352091D01*
X159037Y351774D01*
X159065Y351456D01*
X159084Y351138D01*
X159096Y350819D01*
X159100Y350500D01*
X159096Y350181D01*
X159084Y349862D01*
X159065Y349544D01*
X159037Y349226D01*
X159002Y348909D01*
X158959Y348593D01*
X158909Y348277D01*
X158850Y347964D01*
X158784Y347652D01*
X158710Y347341D01*
X158629Y347033D01*
X158540Y346726D01*
X158444Y346422D01*
X158340Y346120D01*
X158229Y345821D01*
X158110Y345525D01*
X157985Y345232D01*
X157852Y344942D01*
X157712Y344655D01*
X157565Y344372D01*
X157411Y344092D01*
X157250Y343817D01*
X157083Y343545D01*
X156909Y343278D01*
X156729Y343014D01*
X156542Y342756D01*
X156349Y342502D01*
X156149Y342253D01*
X155944Y342009D01*
X155732Y341770D01*
X155515Y341536D01*
X155292Y341308D01*
X155064Y341085D01*
X154830Y340868D01*
X154591Y340656D01*
X154347Y340451D01*
X154098Y340251D01*
X153844Y340058D01*
X153586Y339871D01*
X153322Y339691D01*
X153055Y339517D01*
X152783Y339350D01*
X152508Y339189D01*
X152228Y339035D01*
X151945Y338888D01*
X151658Y338748D01*
X151368Y338615D01*
X151075Y338490D01*
X150779Y338371D01*
X150480Y338260D01*
X150178Y338156D01*
X149874Y338060D01*
X149567Y337971D01*
X149259Y337890D01*
X148948Y337816D01*
X148636Y337750D01*
X148323Y337691D01*
X148007Y337641D01*
X147691Y337598D01*
X147374Y337563D01*
X147056Y337535D01*
X146738Y337516D01*
X146419Y337504D01*
X146100Y337500D01*
X145781Y337504D01*
X145462Y337516D01*
X145144Y337535D01*
X144826Y337563D01*
X144509Y337598D01*
X144193Y337641D01*
X143877Y337691D01*
X143564Y337750D01*
X143252Y337816D01*
X142941Y337890D01*
X142633Y337971D01*
X142326Y338060D01*
X142022Y338156D01*
X141720Y338260D01*
X141421Y338371D01*
X141125Y338490D01*
X140832Y338615D01*
X140542Y338748D01*
X140255Y338888D01*
X139972Y339035D01*
X139692Y339189D01*
X139417Y339350D01*
X139145Y339517D01*
X138878Y339691D01*
X138614Y339871D01*
X138356Y340058D01*
X138102Y340251D01*
X137853Y340451D01*
X137609Y340656D01*
X137370Y340868D01*
X137136Y341085D01*
X136908Y341308D01*
X136685Y341536D01*
X136468Y341770D01*
X136256Y342009D01*
X136051Y342253D01*
X135851Y342502D01*
X135658Y342756D01*
X135471Y343014D01*
X135291Y343278D01*
X135117Y343545D01*
X134950Y343817D01*
X134789Y344092D01*
X134635Y344372D01*
X134488Y344655D01*
X134348Y344942D01*
X134215Y345232D01*
X134090Y345525D01*
X133971Y345821D01*
X133860Y346120D01*
X133756Y346422D01*
X133660Y346726D01*
X133571Y347033D01*
X133490Y347341D01*
X133416Y347652D01*
X133350Y347964D01*
X133291Y348277D01*
X133241Y348593D01*
X133198Y348909D01*
X133163Y349226D01*
X133135Y349544D01*
X133116Y349862D01*
X133104Y350181D01*
X133100Y350500D01*
D12*
X172503Y441008D02*
X172602Y441010D01*
X172702Y441016D01*
X172801Y441025D01*
X172899Y441038D01*
X172997Y441055D01*
X173095Y441076D01*
X173191Y441101D01*
X173286Y441129D01*
X173380Y441161D01*
X173473Y441196D01*
X173565Y441235D01*
X173655Y441278D01*
X173743Y441323D01*
X173830Y441373D01*
X173914Y441425D01*
X173997Y441481D01*
X174077Y441539D01*
X174155Y441601D01*
X174230Y441666D01*
X174303Y441734D01*
X174373Y441804D01*
X174441Y441877D01*
X174506Y441952D01*
X174568Y442030D01*
X174626Y442110D01*
X174682Y442193D01*
X174734Y442277D01*
X174784Y442364D01*
X174829Y442452D01*
X174872Y442542D01*
X174911Y442634D01*
X174946Y442727D01*
X174978Y442821D01*
X175006Y442916D01*
X175031Y443012D01*
X175052Y443110D01*
X175069Y443208D01*
X175082Y443306D01*
X175091Y443405D01*
X175097Y443505D01*
X175099Y443604D01*
X172503Y441008D02*
X172359Y441010D01*
X172214Y441016D01*
X172070Y441025D01*
X171927Y441038D01*
X171783Y441055D01*
X171640Y441076D01*
X171498Y441101D01*
X171357Y441129D01*
X171216Y441161D01*
X171076Y441197D01*
X170937Y441236D01*
X170799Y441279D01*
X170663Y441326D01*
X170527Y441376D01*
X170393Y441430D01*
X170261Y441487D01*
X170130Y441548D01*
X170001Y441612D01*
X169873Y441680D01*
X169747Y441750D01*
X169623Y441825D01*
X169502Y441902D01*
X169382Y441983D01*
X169264Y442066D01*
X169149Y442153D01*
X169036Y442243D01*
X168925Y442336D01*
X168817Y442431D01*
X168711Y442530D01*
X168608Y442631D01*
X168933Y450096D02*
X168935Y450195D01*
X168941Y450295D01*
X168950Y450394D01*
X168963Y450492D01*
X168980Y450590D01*
X169001Y450688D01*
X169026Y450784D01*
X169054Y450879D01*
X169086Y450973D01*
X169121Y451066D01*
X169160Y451158D01*
X169203Y451248D01*
X169248Y451336D01*
X169298Y451423D01*
X169350Y451507D01*
X169406Y451590D01*
X169464Y451670D01*
X169526Y451748D01*
X169591Y451823D01*
X169659Y451896D01*
X169729Y451966D01*
X169802Y452034D01*
X169877Y452099D01*
X169955Y452161D01*
X170035Y452219D01*
X170118Y452275D01*
X170202Y452327D01*
X170289Y452377D01*
X170377Y452422D01*
X170467Y452465D01*
X170559Y452504D01*
X170652Y452539D01*
X170746Y452571D01*
X170841Y452599D01*
X170938Y452624D01*
X171035Y452645D01*
X171133Y452662D01*
X171231Y452675D01*
X171330Y452684D01*
X171430Y452690D01*
X171529Y452692D01*
X171665Y452690D01*
X171801Y452684D01*
X171937Y452675D01*
X172073Y452662D01*
X172208Y452644D01*
X172342Y452624D01*
X172476Y452599D01*
X172610Y452571D01*
X172742Y452538D01*
X172873Y452503D01*
X173004Y452463D01*
X173133Y452420D01*
X173261Y452374D01*
X173387Y452323D01*
X173513Y452270D01*
X173636Y452212D01*
X173758Y452152D01*
X173878Y452088D01*
X173997Y452020D01*
X174113Y451950D01*
X174227Y451876D01*
X174340Y451799D01*
X174450Y451718D01*
X170231Y447824D02*
X170145Y447877D01*
X170061Y447934D01*
X169979Y447993D01*
X169899Y448056D01*
X169822Y448122D01*
X169747Y448190D01*
X169675Y448262D01*
X169606Y448336D01*
X169540Y448413D01*
X169477Y448492D01*
X169417Y448574D01*
X169360Y448658D01*
X169306Y448744D01*
X169256Y448832D01*
X169209Y448922D01*
X169165Y449013D01*
X169126Y449107D01*
X169089Y449201D01*
X169057Y449297D01*
X169028Y449395D01*
X169003Y449493D01*
X168982Y449592D01*
X168964Y449692D01*
X168951Y449792D01*
X168941Y449893D01*
X168935Y449995D01*
X168933Y450096D01*
X173801Y445876D02*
X173887Y445823D01*
X173971Y445766D01*
X174053Y445707D01*
X174133Y445644D01*
X174210Y445578D01*
X174285Y445510D01*
X174357Y445438D01*
X174426Y445364D01*
X174492Y445287D01*
X174555Y445208D01*
X174615Y445126D01*
X174672Y445042D01*
X174726Y444956D01*
X174776Y444868D01*
X174823Y444778D01*
X174867Y444687D01*
X174906Y444593D01*
X174943Y444499D01*
X174975Y444403D01*
X175004Y444305D01*
X175029Y444207D01*
X175050Y444108D01*
X175068Y444008D01*
X175081Y443908D01*
X175091Y443807D01*
X175097Y443705D01*
X175099Y443604D01*
X173801Y445876D02*
X170231Y447824D01*
X179234Y452692D02*
X181830Y441008D01*
X184427Y448797D01*
X187023Y441008D01*
X189619Y452692D01*
X194135Y450096D02*
X197381Y452692D01*
X197381Y441008D01*
X200626Y441008D02*
X194135Y441008D01*
D11*
X692000Y350500D02*
X692004Y350819D01*
X692016Y351138D01*
X692035Y351456D01*
X692063Y351774D01*
X692098Y352091D01*
X692141Y352407D01*
X692191Y352723D01*
X692250Y353036D01*
X692316Y353348D01*
X692390Y353659D01*
X692471Y353967D01*
X692560Y354274D01*
X692656Y354578D01*
X692760Y354880D01*
X692871Y355179D01*
X692990Y355475D01*
X693115Y355768D01*
X693248Y356058D01*
X693388Y356345D01*
X693535Y356628D01*
X693689Y356908D01*
X693850Y357183D01*
X694017Y357455D01*
X694191Y357722D01*
X694371Y357986D01*
X694558Y358244D01*
X694751Y358498D01*
X694951Y358747D01*
X695156Y358991D01*
X695368Y359230D01*
X695585Y359464D01*
X695808Y359692D01*
X696036Y359915D01*
X696270Y360132D01*
X696509Y360344D01*
X696753Y360549D01*
X697002Y360749D01*
X697256Y360942D01*
X697514Y361129D01*
X697778Y361309D01*
X698045Y361483D01*
X698317Y361650D01*
X698592Y361811D01*
X698872Y361965D01*
X699155Y362112D01*
X699442Y362252D01*
X699732Y362385D01*
X700025Y362510D01*
X700321Y362629D01*
X700620Y362740D01*
X700922Y362844D01*
X701226Y362940D01*
X701533Y363029D01*
X701841Y363110D01*
X702152Y363184D01*
X702464Y363250D01*
X702777Y363309D01*
X703093Y363359D01*
X703409Y363402D01*
X703726Y363437D01*
X704044Y363465D01*
X704362Y363484D01*
X704681Y363496D01*
X705000Y363500D01*
X705319Y363496D01*
X705638Y363484D01*
X705956Y363465D01*
X706274Y363437D01*
X706591Y363402D01*
X706907Y363359D01*
X707223Y363309D01*
X707536Y363250D01*
X707848Y363184D01*
X708159Y363110D01*
X708467Y363029D01*
X708774Y362940D01*
X709078Y362844D01*
X709380Y362740D01*
X709679Y362629D01*
X709975Y362510D01*
X710268Y362385D01*
X710558Y362252D01*
X710845Y362112D01*
X711128Y361965D01*
X711408Y361811D01*
X711683Y361650D01*
X711955Y361483D01*
X712222Y361309D01*
X712486Y361129D01*
X712744Y360942D01*
X712998Y360749D01*
X713247Y360549D01*
X713491Y360344D01*
X713730Y360132D01*
X713964Y359915D01*
X714192Y359692D01*
X714415Y359464D01*
X714632Y359230D01*
X714844Y358991D01*
X715049Y358747D01*
X715249Y358498D01*
X715442Y358244D01*
X715629Y357986D01*
X715809Y357722D01*
X715983Y357455D01*
X716150Y357183D01*
X716311Y356908D01*
X716465Y356628D01*
X716612Y356345D01*
X716752Y356058D01*
X716885Y355768D01*
X717010Y355475D01*
X717129Y355179D01*
X717240Y354880D01*
X717344Y354578D01*
X717440Y354274D01*
X717529Y353967D01*
X717610Y353659D01*
X717684Y353348D01*
X717750Y353036D01*
X717809Y352723D01*
X717859Y352407D01*
X717902Y352091D01*
X717937Y351774D01*
X717965Y351456D01*
X717984Y351138D01*
X717996Y350819D01*
X718000Y350500D01*
X717996Y350181D01*
X717984Y349862D01*
X717965Y349544D01*
X717937Y349226D01*
X717902Y348909D01*
X717859Y348593D01*
X717809Y348277D01*
X717750Y347964D01*
X717684Y347652D01*
X717610Y347341D01*
X717529Y347033D01*
X717440Y346726D01*
X717344Y346422D01*
X717240Y346120D01*
X717129Y345821D01*
X717010Y345525D01*
X716885Y345232D01*
X716752Y344942D01*
X716612Y344655D01*
X716465Y344372D01*
X716311Y344092D01*
X716150Y343817D01*
X715983Y343545D01*
X715809Y343278D01*
X715629Y343014D01*
X715442Y342756D01*
X715249Y342502D01*
X715049Y342253D01*
X714844Y342009D01*
X714632Y341770D01*
X714415Y341536D01*
X714192Y341308D01*
X713964Y341085D01*
X713730Y340868D01*
X713491Y340656D01*
X713247Y340451D01*
X712998Y340251D01*
X712744Y340058D01*
X712486Y339871D01*
X712222Y339691D01*
X711955Y339517D01*
X711683Y339350D01*
X711408Y339189D01*
X711128Y339035D01*
X710845Y338888D01*
X710558Y338748D01*
X710268Y338615D01*
X709975Y338490D01*
X709679Y338371D01*
X709380Y338260D01*
X709078Y338156D01*
X708774Y338060D01*
X708467Y337971D01*
X708159Y337890D01*
X707848Y337816D01*
X707536Y337750D01*
X707223Y337691D01*
X706907Y337641D01*
X706591Y337598D01*
X706274Y337563D01*
X705956Y337535D01*
X705638Y337516D01*
X705319Y337504D01*
X705000Y337500D01*
X704681Y337504D01*
X704362Y337516D01*
X704044Y337535D01*
X703726Y337563D01*
X703409Y337598D01*
X703093Y337641D01*
X702777Y337691D01*
X702464Y337750D01*
X702152Y337816D01*
X701841Y337890D01*
X701533Y337971D01*
X701226Y338060D01*
X700922Y338156D01*
X700620Y338260D01*
X700321Y338371D01*
X700025Y338490D01*
X699732Y338615D01*
X699442Y338748D01*
X699155Y338888D01*
X698872Y339035D01*
X698592Y339189D01*
X698317Y339350D01*
X698045Y339517D01*
X697778Y339691D01*
X697514Y339871D01*
X697256Y340058D01*
X697002Y340251D01*
X696753Y340451D01*
X696509Y340656D01*
X696270Y340868D01*
X696036Y341085D01*
X695808Y341308D01*
X695585Y341536D01*
X695368Y341770D01*
X695156Y342009D01*
X694951Y342253D01*
X694751Y342502D01*
X694558Y342756D01*
X694371Y343014D01*
X694191Y343278D01*
X694017Y343545D01*
X693850Y343817D01*
X693689Y344092D01*
X693535Y344372D01*
X693388Y344655D01*
X693248Y344942D01*
X693115Y345232D01*
X692990Y345525D01*
X692871Y345821D01*
X692760Y346120D01*
X692656Y346422D01*
X692560Y346726D01*
X692471Y347033D01*
X692390Y347341D01*
X692316Y347652D01*
X692250Y347964D01*
X692191Y348277D01*
X692141Y348593D01*
X692098Y348909D01*
X692063Y349226D01*
X692035Y349544D01*
X692016Y349862D01*
X692004Y350181D01*
X692000Y350500D01*
X578000Y350500D02*
X578004Y350819D01*
X578016Y351138D01*
X578035Y351456D01*
X578063Y351774D01*
X578098Y352091D01*
X578141Y352407D01*
X578191Y352723D01*
X578250Y353036D01*
X578316Y353348D01*
X578390Y353659D01*
X578471Y353967D01*
X578560Y354274D01*
X578656Y354578D01*
X578760Y354880D01*
X578871Y355179D01*
X578990Y355475D01*
X579115Y355768D01*
X579248Y356058D01*
X579388Y356345D01*
X579535Y356628D01*
X579689Y356908D01*
X579850Y357183D01*
X580017Y357455D01*
X580191Y357722D01*
X580371Y357986D01*
X580558Y358244D01*
X580751Y358498D01*
X580951Y358747D01*
X581156Y358991D01*
X581368Y359230D01*
X581585Y359464D01*
X581808Y359692D01*
X582036Y359915D01*
X582270Y360132D01*
X582509Y360344D01*
X582753Y360549D01*
X583002Y360749D01*
X583256Y360942D01*
X583514Y361129D01*
X583778Y361309D01*
X584045Y361483D01*
X584317Y361650D01*
X584592Y361811D01*
X584872Y361965D01*
X585155Y362112D01*
X585442Y362252D01*
X585732Y362385D01*
X586025Y362510D01*
X586321Y362629D01*
X586620Y362740D01*
X586922Y362844D01*
X587226Y362940D01*
X587533Y363029D01*
X587841Y363110D01*
X588152Y363184D01*
X588464Y363250D01*
X588777Y363309D01*
X589093Y363359D01*
X589409Y363402D01*
X589726Y363437D01*
X590044Y363465D01*
X590362Y363484D01*
X590681Y363496D01*
X591000Y363500D01*
X591319Y363496D01*
X591638Y363484D01*
X591956Y363465D01*
X592274Y363437D01*
X592591Y363402D01*
X592907Y363359D01*
X593223Y363309D01*
X593536Y363250D01*
X593848Y363184D01*
X594159Y363110D01*
X594467Y363029D01*
X594774Y362940D01*
X595078Y362844D01*
X595380Y362740D01*
X595679Y362629D01*
X595975Y362510D01*
X596268Y362385D01*
X596558Y362252D01*
X596845Y362112D01*
X597128Y361965D01*
X597408Y361811D01*
X597683Y361650D01*
X597955Y361483D01*
X598222Y361309D01*
X598486Y361129D01*
X598744Y360942D01*
X598998Y360749D01*
X599247Y360549D01*
X599491Y360344D01*
X599730Y360132D01*
X599964Y359915D01*
X600192Y359692D01*
X600415Y359464D01*
X600632Y359230D01*
X600844Y358991D01*
X601049Y358747D01*
X601249Y358498D01*
X601442Y358244D01*
X601629Y357986D01*
X601809Y357722D01*
X601983Y357455D01*
X602150Y357183D01*
X602311Y356908D01*
X602465Y356628D01*
X602612Y356345D01*
X602752Y356058D01*
X602885Y355768D01*
X603010Y355475D01*
X603129Y355179D01*
X603240Y354880D01*
X603344Y354578D01*
X603440Y354274D01*
X603529Y353967D01*
X603610Y353659D01*
X603684Y353348D01*
X603750Y353036D01*
X603809Y352723D01*
X603859Y352407D01*
X603902Y352091D01*
X603937Y351774D01*
X603965Y351456D01*
X603984Y351138D01*
X603996Y350819D01*
X604000Y350500D01*
X603996Y350181D01*
X603984Y349862D01*
X603965Y349544D01*
X603937Y349226D01*
X603902Y348909D01*
X603859Y348593D01*
X603809Y348277D01*
X603750Y347964D01*
X603684Y347652D01*
X603610Y347341D01*
X603529Y347033D01*
X603440Y346726D01*
X603344Y346422D01*
X603240Y346120D01*
X603129Y345821D01*
X603010Y345525D01*
X602885Y345232D01*
X602752Y344942D01*
X602612Y344655D01*
X602465Y344372D01*
X602311Y344092D01*
X602150Y343817D01*
X601983Y343545D01*
X601809Y343278D01*
X601629Y343014D01*
X601442Y342756D01*
X601249Y342502D01*
X601049Y342253D01*
X600844Y342009D01*
X600632Y341770D01*
X600415Y341536D01*
X600192Y341308D01*
X599964Y341085D01*
X599730Y340868D01*
X599491Y340656D01*
X599247Y340451D01*
X598998Y340251D01*
X598744Y340058D01*
X598486Y339871D01*
X598222Y339691D01*
X597955Y339517D01*
X597683Y339350D01*
X597408Y339189D01*
X597128Y339035D01*
X596845Y338888D01*
X596558Y338748D01*
X596268Y338615D01*
X595975Y338490D01*
X595679Y338371D01*
X595380Y338260D01*
X595078Y338156D01*
X594774Y338060D01*
X594467Y337971D01*
X594159Y337890D01*
X593848Y337816D01*
X593536Y337750D01*
X593223Y337691D01*
X592907Y337641D01*
X592591Y337598D01*
X592274Y337563D01*
X591956Y337535D01*
X591638Y337516D01*
X591319Y337504D01*
X591000Y337500D01*
X590681Y337504D01*
X590362Y337516D01*
X590044Y337535D01*
X589726Y337563D01*
X589409Y337598D01*
X589093Y337641D01*
X588777Y337691D01*
X588464Y337750D01*
X588152Y337816D01*
X587841Y337890D01*
X587533Y337971D01*
X587226Y338060D01*
X586922Y338156D01*
X586620Y338260D01*
X586321Y338371D01*
X586025Y338490D01*
X585732Y338615D01*
X585442Y338748D01*
X585155Y338888D01*
X584872Y339035D01*
X584592Y339189D01*
X584317Y339350D01*
X584045Y339517D01*
X583778Y339691D01*
X583514Y339871D01*
X583256Y340058D01*
X583002Y340251D01*
X582753Y340451D01*
X582509Y340656D01*
X582270Y340868D01*
X582036Y341085D01*
X581808Y341308D01*
X581585Y341536D01*
X581368Y341770D01*
X581156Y342009D01*
X580951Y342253D01*
X580751Y342502D01*
X580558Y342756D01*
X580371Y343014D01*
X580191Y343278D01*
X580017Y343545D01*
X579850Y343817D01*
X579689Y344092D01*
X579535Y344372D01*
X579388Y344655D01*
X579248Y344942D01*
X579115Y345232D01*
X578990Y345525D01*
X578871Y345821D01*
X578760Y346120D01*
X578656Y346422D01*
X578560Y346726D01*
X578471Y347033D01*
X578390Y347341D01*
X578316Y347652D01*
X578250Y347964D01*
X578191Y348277D01*
X578141Y348593D01*
X578098Y348909D01*
X578063Y349226D01*
X578035Y349544D01*
X578016Y349862D01*
X578004Y350181D01*
X578000Y350500D01*
D12*
X617403Y441008D02*
X617502Y441010D01*
X617602Y441016D01*
X617701Y441025D01*
X617799Y441038D01*
X617897Y441055D01*
X617995Y441076D01*
X618091Y441101D01*
X618186Y441129D01*
X618280Y441161D01*
X618373Y441196D01*
X618465Y441235D01*
X618555Y441278D01*
X618643Y441323D01*
X618730Y441373D01*
X618814Y441425D01*
X618897Y441481D01*
X618977Y441539D01*
X619055Y441601D01*
X619130Y441666D01*
X619203Y441734D01*
X619273Y441804D01*
X619341Y441877D01*
X619406Y441952D01*
X619468Y442030D01*
X619526Y442110D01*
X619582Y442193D01*
X619634Y442277D01*
X619684Y442364D01*
X619729Y442452D01*
X619772Y442542D01*
X619811Y442634D01*
X619846Y442727D01*
X619878Y442821D01*
X619906Y442916D01*
X619931Y443012D01*
X619952Y443110D01*
X619969Y443208D01*
X619982Y443306D01*
X619991Y443405D01*
X619997Y443505D01*
X619999Y443604D01*
X617403Y441008D02*
X617259Y441010D01*
X617114Y441016D01*
X616970Y441025D01*
X616827Y441038D01*
X616683Y441055D01*
X616540Y441076D01*
X616398Y441101D01*
X616257Y441129D01*
X616116Y441161D01*
X615976Y441197D01*
X615837Y441236D01*
X615699Y441279D01*
X615563Y441326D01*
X615427Y441376D01*
X615293Y441430D01*
X615161Y441487D01*
X615030Y441548D01*
X614901Y441612D01*
X614773Y441680D01*
X614647Y441750D01*
X614523Y441825D01*
X614402Y441902D01*
X614282Y441983D01*
X614164Y442066D01*
X614049Y442153D01*
X613936Y442243D01*
X613825Y442336D01*
X613717Y442431D01*
X613611Y442530D01*
X613508Y442631D01*
X613833Y450096D02*
X613835Y450195D01*
X613841Y450295D01*
X613850Y450394D01*
X613863Y450492D01*
X613880Y450590D01*
X613901Y450688D01*
X613926Y450784D01*
X613954Y450879D01*
X613986Y450973D01*
X614021Y451066D01*
X614060Y451158D01*
X614103Y451248D01*
X614148Y451336D01*
X614198Y451423D01*
X614250Y451507D01*
X614306Y451590D01*
X614364Y451670D01*
X614426Y451748D01*
X614491Y451823D01*
X614559Y451896D01*
X614629Y451966D01*
X614702Y452034D01*
X614777Y452099D01*
X614855Y452161D01*
X614935Y452219D01*
X615018Y452275D01*
X615102Y452327D01*
X615189Y452377D01*
X615277Y452422D01*
X615367Y452465D01*
X615459Y452504D01*
X615552Y452539D01*
X615646Y452571D01*
X615741Y452599D01*
X615838Y452624D01*
X615935Y452645D01*
X616033Y452662D01*
X616131Y452675D01*
X616230Y452684D01*
X616330Y452690D01*
X616429Y452692D01*
X616565Y452690D01*
X616701Y452684D01*
X616837Y452675D01*
X616973Y452662D01*
X617108Y452644D01*
X617242Y452624D01*
X617376Y452599D01*
X617510Y452571D01*
X617642Y452538D01*
X617773Y452503D01*
X617904Y452463D01*
X618033Y452420D01*
X618161Y452374D01*
X618287Y452323D01*
X618413Y452270D01*
X618536Y452212D01*
X618658Y452152D01*
X618778Y452088D01*
X618897Y452020D01*
X619013Y451950D01*
X619127Y451876D01*
X619240Y451799D01*
X619350Y451718D01*
X615131Y447824D02*
X615045Y447877D01*
X614961Y447934D01*
X614879Y447993D01*
X614799Y448056D01*
X614722Y448122D01*
X614647Y448190D01*
X614575Y448262D01*
X614506Y448336D01*
X614440Y448413D01*
X614377Y448492D01*
X614317Y448574D01*
X614260Y448658D01*
X614206Y448744D01*
X614156Y448832D01*
X614109Y448922D01*
X614065Y449013D01*
X614026Y449107D01*
X613989Y449201D01*
X613957Y449297D01*
X613928Y449395D01*
X613903Y449493D01*
X613882Y449592D01*
X613864Y449692D01*
X613851Y449792D01*
X613841Y449893D01*
X613835Y449995D01*
X613833Y450096D01*
X618701Y445876D02*
X618787Y445823D01*
X618871Y445766D01*
X618953Y445707D01*
X619033Y445644D01*
X619110Y445578D01*
X619185Y445510D01*
X619257Y445438D01*
X619326Y445364D01*
X619392Y445287D01*
X619455Y445208D01*
X619515Y445126D01*
X619572Y445042D01*
X619626Y444956D01*
X619676Y444868D01*
X619723Y444778D01*
X619767Y444687D01*
X619806Y444593D01*
X619843Y444499D01*
X619875Y444403D01*
X619904Y444305D01*
X619929Y444207D01*
X619950Y444108D01*
X619968Y444008D01*
X619981Y443908D01*
X619991Y443807D01*
X619997Y443705D01*
X619999Y443604D01*
X618701Y445876D02*
X615131Y447824D01*
X624134Y452692D02*
X626730Y441008D01*
X629327Y448797D01*
X631923Y441008D01*
X634519Y452692D01*
X642605Y452692D02*
X642712Y452690D01*
X642818Y452684D01*
X642924Y452674D01*
X643030Y452661D01*
X643136Y452643D01*
X643240Y452622D01*
X643344Y452597D01*
X643447Y452568D01*
X643548Y452536D01*
X643648Y452499D01*
X643747Y452459D01*
X643845Y452416D01*
X643941Y452369D01*
X644035Y452318D01*
X644127Y452264D01*
X644217Y452207D01*
X644305Y452147D01*
X644390Y452083D01*
X644473Y452016D01*
X644554Y451946D01*
X644632Y451874D01*
X644708Y451798D01*
X644780Y451720D01*
X644850Y451639D01*
X644917Y451556D01*
X644981Y451471D01*
X645041Y451383D01*
X645098Y451293D01*
X645152Y451201D01*
X645203Y451107D01*
X645250Y451011D01*
X645293Y450913D01*
X645333Y450814D01*
X645370Y450714D01*
X645402Y450613D01*
X645431Y450510D01*
X645456Y450406D01*
X645477Y450302D01*
X645495Y450196D01*
X645508Y450090D01*
X645518Y449984D01*
X645524Y449878D01*
X645526Y449771D01*
X642605Y452692D02*
X642484Y452690D01*
X642363Y452684D01*
X642243Y452674D01*
X642122Y452661D01*
X642003Y452643D01*
X641883Y452622D01*
X641765Y452597D01*
X641648Y452568D01*
X641531Y452535D01*
X641416Y452499D01*
X641302Y452458D01*
X641189Y452415D01*
X641077Y452367D01*
X640968Y452316D01*
X640860Y452261D01*
X640753Y452203D01*
X640649Y452142D01*
X640547Y452077D01*
X640447Y452009D01*
X640349Y451938D01*
X640253Y451864D01*
X640160Y451787D01*
X640070Y451706D01*
X639982Y451623D01*
X639897Y451537D01*
X639814Y451448D01*
X639735Y451357D01*
X639658Y451263D01*
X639585Y451167D01*
X639515Y451069D01*
X639448Y450968D01*
X639384Y450865D01*
X639324Y450760D01*
X639267Y450653D01*
X639213Y450545D01*
X639163Y450435D01*
X639117Y450323D01*
X639074Y450210D01*
X639035Y450095D01*
X644553Y447499D02*
X644632Y447576D01*
X644708Y447657D01*
X644781Y447740D01*
X644851Y447825D01*
X644918Y447913D01*
X644982Y448003D01*
X645042Y448095D01*
X645099Y448190D01*
X645153Y448286D01*
X645204Y448384D01*
X645251Y448484D01*
X645295Y448586D01*
X645335Y448689D01*
X645371Y448793D01*
X645403Y448899D01*
X645432Y449005D01*
X645457Y449113D01*
X645479Y449221D01*
X645496Y449331D01*
X645510Y449440D01*
X645519Y449550D01*
X645525Y449661D01*
X645527Y449771D01*
X644552Y447499D02*
X639035Y441008D01*
X645526Y441008D01*
D11*
X1149600Y340500D02*
X1149604Y340819D01*
X1149616Y341138D01*
X1149635Y341456D01*
X1149663Y341774D01*
X1149698Y342091D01*
X1149741Y342407D01*
X1149791Y342723D01*
X1149850Y343036D01*
X1149916Y343348D01*
X1149990Y343659D01*
X1150071Y343967D01*
X1150160Y344274D01*
X1150256Y344578D01*
X1150360Y344880D01*
X1150471Y345179D01*
X1150590Y345475D01*
X1150715Y345768D01*
X1150848Y346058D01*
X1150988Y346345D01*
X1151135Y346628D01*
X1151289Y346908D01*
X1151450Y347183D01*
X1151617Y347455D01*
X1151791Y347722D01*
X1151971Y347986D01*
X1152158Y348244D01*
X1152351Y348498D01*
X1152551Y348747D01*
X1152756Y348991D01*
X1152968Y349230D01*
X1153185Y349464D01*
X1153408Y349692D01*
X1153636Y349915D01*
X1153870Y350132D01*
X1154109Y350344D01*
X1154353Y350549D01*
X1154602Y350749D01*
X1154856Y350942D01*
X1155114Y351129D01*
X1155378Y351309D01*
X1155645Y351483D01*
X1155917Y351650D01*
X1156192Y351811D01*
X1156472Y351965D01*
X1156755Y352112D01*
X1157042Y352252D01*
X1157332Y352385D01*
X1157625Y352510D01*
X1157921Y352629D01*
X1158220Y352740D01*
X1158522Y352844D01*
X1158826Y352940D01*
X1159133Y353029D01*
X1159441Y353110D01*
X1159752Y353184D01*
X1160064Y353250D01*
X1160377Y353309D01*
X1160693Y353359D01*
X1161009Y353402D01*
X1161326Y353437D01*
X1161644Y353465D01*
X1161962Y353484D01*
X1162281Y353496D01*
X1162600Y353500D01*
X1162919Y353496D01*
X1163238Y353484D01*
X1163556Y353465D01*
X1163874Y353437D01*
X1164191Y353402D01*
X1164507Y353359D01*
X1164823Y353309D01*
X1165136Y353250D01*
X1165448Y353184D01*
X1165759Y353110D01*
X1166067Y353029D01*
X1166374Y352940D01*
X1166678Y352844D01*
X1166980Y352740D01*
X1167279Y352629D01*
X1167575Y352510D01*
X1167868Y352385D01*
X1168158Y352252D01*
X1168445Y352112D01*
X1168728Y351965D01*
X1169008Y351811D01*
X1169283Y351650D01*
X1169555Y351483D01*
X1169822Y351309D01*
X1170086Y351129D01*
X1170344Y350942D01*
X1170598Y350749D01*
X1170847Y350549D01*
X1171091Y350344D01*
X1171330Y350132D01*
X1171564Y349915D01*
X1171792Y349692D01*
X1172015Y349464D01*
X1172232Y349230D01*
X1172444Y348991D01*
X1172649Y348747D01*
X1172849Y348498D01*
X1173042Y348244D01*
X1173229Y347986D01*
X1173409Y347722D01*
X1173583Y347455D01*
X1173750Y347183D01*
X1173911Y346908D01*
X1174065Y346628D01*
X1174212Y346345D01*
X1174352Y346058D01*
X1174485Y345768D01*
X1174610Y345475D01*
X1174729Y345179D01*
X1174840Y344880D01*
X1174944Y344578D01*
X1175040Y344274D01*
X1175129Y343967D01*
X1175210Y343659D01*
X1175284Y343348D01*
X1175350Y343036D01*
X1175409Y342723D01*
X1175459Y342407D01*
X1175502Y342091D01*
X1175537Y341774D01*
X1175565Y341456D01*
X1175584Y341138D01*
X1175596Y340819D01*
X1175600Y340500D01*
X1175596Y340181D01*
X1175584Y339862D01*
X1175565Y339544D01*
X1175537Y339226D01*
X1175502Y338909D01*
X1175459Y338593D01*
X1175409Y338277D01*
X1175350Y337964D01*
X1175284Y337652D01*
X1175210Y337341D01*
X1175129Y337033D01*
X1175040Y336726D01*
X1174944Y336422D01*
X1174840Y336120D01*
X1174729Y335821D01*
X1174610Y335525D01*
X1174485Y335232D01*
X1174352Y334942D01*
X1174212Y334655D01*
X1174065Y334372D01*
X1173911Y334092D01*
X1173750Y333817D01*
X1173583Y333545D01*
X1173409Y333278D01*
X1173229Y333014D01*
X1173042Y332756D01*
X1172849Y332502D01*
X1172649Y332253D01*
X1172444Y332009D01*
X1172232Y331770D01*
X1172015Y331536D01*
X1171792Y331308D01*
X1171564Y331085D01*
X1171330Y330868D01*
X1171091Y330656D01*
X1170847Y330451D01*
X1170598Y330251D01*
X1170344Y330058D01*
X1170086Y329871D01*
X1169822Y329691D01*
X1169555Y329517D01*
X1169283Y329350D01*
X1169008Y329189D01*
X1168728Y329035D01*
X1168445Y328888D01*
X1168158Y328748D01*
X1167868Y328615D01*
X1167575Y328490D01*
X1167279Y328371D01*
X1166980Y328260D01*
X1166678Y328156D01*
X1166374Y328060D01*
X1166067Y327971D01*
X1165759Y327890D01*
X1165448Y327816D01*
X1165136Y327750D01*
X1164823Y327691D01*
X1164507Y327641D01*
X1164191Y327598D01*
X1163874Y327563D01*
X1163556Y327535D01*
X1163238Y327516D01*
X1162919Y327504D01*
X1162600Y327500D01*
X1162281Y327504D01*
X1161962Y327516D01*
X1161644Y327535D01*
X1161326Y327563D01*
X1161009Y327598D01*
X1160693Y327641D01*
X1160377Y327691D01*
X1160064Y327750D01*
X1159752Y327816D01*
X1159441Y327890D01*
X1159133Y327971D01*
X1158826Y328060D01*
X1158522Y328156D01*
X1158220Y328260D01*
X1157921Y328371D01*
X1157625Y328490D01*
X1157332Y328615D01*
X1157042Y328748D01*
X1156755Y328888D01*
X1156472Y329035D01*
X1156192Y329189D01*
X1155917Y329350D01*
X1155645Y329517D01*
X1155378Y329691D01*
X1155114Y329871D01*
X1154856Y330058D01*
X1154602Y330251D01*
X1154353Y330451D01*
X1154109Y330656D01*
X1153870Y330868D01*
X1153636Y331085D01*
X1153408Y331308D01*
X1153185Y331536D01*
X1152968Y331770D01*
X1152756Y332009D01*
X1152551Y332253D01*
X1152351Y332502D01*
X1152158Y332756D01*
X1151971Y333014D01*
X1151791Y333278D01*
X1151617Y333545D01*
X1151450Y333817D01*
X1151289Y334092D01*
X1151135Y334372D01*
X1150988Y334655D01*
X1150848Y334942D01*
X1150715Y335232D01*
X1150590Y335525D01*
X1150471Y335821D01*
X1150360Y336120D01*
X1150256Y336422D01*
X1150160Y336726D01*
X1150071Y337033D01*
X1149990Y337341D01*
X1149916Y337652D01*
X1149850Y337964D01*
X1149791Y338277D01*
X1149741Y338593D01*
X1149698Y338909D01*
X1149663Y339226D01*
X1149635Y339544D01*
X1149616Y339862D01*
X1149604Y340181D01*
X1149600Y340500D01*
X1035600Y340500D02*
X1035604Y340819D01*
X1035616Y341138D01*
X1035635Y341456D01*
X1035663Y341774D01*
X1035698Y342091D01*
X1035741Y342407D01*
X1035791Y342723D01*
X1035850Y343036D01*
X1035916Y343348D01*
X1035990Y343659D01*
X1036071Y343967D01*
X1036160Y344274D01*
X1036256Y344578D01*
X1036360Y344880D01*
X1036471Y345179D01*
X1036590Y345475D01*
X1036715Y345768D01*
X1036848Y346058D01*
X1036988Y346345D01*
X1037135Y346628D01*
X1037289Y346908D01*
X1037450Y347183D01*
X1037617Y347455D01*
X1037791Y347722D01*
X1037971Y347986D01*
X1038158Y348244D01*
X1038351Y348498D01*
X1038551Y348747D01*
X1038756Y348991D01*
X1038968Y349230D01*
X1039185Y349464D01*
X1039408Y349692D01*
X1039636Y349915D01*
X1039870Y350132D01*
X1040109Y350344D01*
X1040353Y350549D01*
X1040602Y350749D01*
X1040856Y350942D01*
X1041114Y351129D01*
X1041378Y351309D01*
X1041645Y351483D01*
X1041917Y351650D01*
X1042192Y351811D01*
X1042472Y351965D01*
X1042755Y352112D01*
X1043042Y352252D01*
X1043332Y352385D01*
X1043625Y352510D01*
X1043921Y352629D01*
X1044220Y352740D01*
X1044522Y352844D01*
X1044826Y352940D01*
X1045133Y353029D01*
X1045441Y353110D01*
X1045752Y353184D01*
X1046064Y353250D01*
X1046377Y353309D01*
X1046693Y353359D01*
X1047009Y353402D01*
X1047326Y353437D01*
X1047644Y353465D01*
X1047962Y353484D01*
X1048281Y353496D01*
X1048600Y353500D01*
X1048919Y353496D01*
X1049238Y353484D01*
X1049556Y353465D01*
X1049874Y353437D01*
X1050191Y353402D01*
X1050507Y353359D01*
X1050823Y353309D01*
X1051136Y353250D01*
X1051448Y353184D01*
X1051759Y353110D01*
X1052067Y353029D01*
X1052374Y352940D01*
X1052678Y352844D01*
X1052980Y352740D01*
X1053279Y352629D01*
X1053575Y352510D01*
X1053868Y352385D01*
X1054158Y352252D01*
X1054445Y352112D01*
X1054728Y351965D01*
X1055008Y351811D01*
X1055283Y351650D01*
X1055555Y351483D01*
X1055822Y351309D01*
X1056086Y351129D01*
X1056344Y350942D01*
X1056598Y350749D01*
X1056847Y350549D01*
X1057091Y350344D01*
X1057330Y350132D01*
X1057564Y349915D01*
X1057792Y349692D01*
X1058015Y349464D01*
X1058232Y349230D01*
X1058444Y348991D01*
X1058649Y348747D01*
X1058849Y348498D01*
X1059042Y348244D01*
X1059229Y347986D01*
X1059409Y347722D01*
X1059583Y347455D01*
X1059750Y347183D01*
X1059911Y346908D01*
X1060065Y346628D01*
X1060212Y346345D01*
X1060352Y346058D01*
X1060485Y345768D01*
X1060610Y345475D01*
X1060729Y345179D01*
X1060840Y344880D01*
X1060944Y344578D01*
X1061040Y344274D01*
X1061129Y343967D01*
X1061210Y343659D01*
X1061284Y343348D01*
X1061350Y343036D01*
X1061409Y342723D01*
X1061459Y342407D01*
X1061502Y342091D01*
X1061537Y341774D01*
X1061565Y341456D01*
X1061584Y341138D01*
X1061596Y340819D01*
X1061600Y340500D01*
X1061596Y340181D01*
X1061584Y339862D01*
X1061565Y339544D01*
X1061537Y339226D01*
X1061502Y338909D01*
X1061459Y338593D01*
X1061409Y338277D01*
X1061350Y337964D01*
X1061284Y337652D01*
X1061210Y337341D01*
X1061129Y337033D01*
X1061040Y336726D01*
X1060944Y336422D01*
X1060840Y336120D01*
X1060729Y335821D01*
X1060610Y335525D01*
X1060485Y335232D01*
X1060352Y334942D01*
X1060212Y334655D01*
X1060065Y334372D01*
X1059911Y334092D01*
X1059750Y333817D01*
X1059583Y333545D01*
X1059409Y333278D01*
X1059229Y333014D01*
X1059042Y332756D01*
X1058849Y332502D01*
X1058649Y332253D01*
X1058444Y332009D01*
X1058232Y331770D01*
X1058015Y331536D01*
X1057792Y331308D01*
X1057564Y331085D01*
X1057330Y330868D01*
X1057091Y330656D01*
X1056847Y330451D01*
X1056598Y330251D01*
X1056344Y330058D01*
X1056086Y329871D01*
X1055822Y329691D01*
X1055555Y329517D01*
X1055283Y329350D01*
X1055008Y329189D01*
X1054728Y329035D01*
X1054445Y328888D01*
X1054158Y328748D01*
X1053868Y328615D01*
X1053575Y328490D01*
X1053279Y328371D01*
X1052980Y328260D01*
X1052678Y328156D01*
X1052374Y328060D01*
X1052067Y327971D01*
X1051759Y327890D01*
X1051448Y327816D01*
X1051136Y327750D01*
X1050823Y327691D01*
X1050507Y327641D01*
X1050191Y327598D01*
X1049874Y327563D01*
X1049556Y327535D01*
X1049238Y327516D01*
X1048919Y327504D01*
X1048600Y327500D01*
X1048281Y327504D01*
X1047962Y327516D01*
X1047644Y327535D01*
X1047326Y327563D01*
X1047009Y327598D01*
X1046693Y327641D01*
X1046377Y327691D01*
X1046064Y327750D01*
X1045752Y327816D01*
X1045441Y327890D01*
X1045133Y327971D01*
X1044826Y328060D01*
X1044522Y328156D01*
X1044220Y328260D01*
X1043921Y328371D01*
X1043625Y328490D01*
X1043332Y328615D01*
X1043042Y328748D01*
X1042755Y328888D01*
X1042472Y329035D01*
X1042192Y329189D01*
X1041917Y329350D01*
X1041645Y329517D01*
X1041378Y329691D01*
X1041114Y329871D01*
X1040856Y330058D01*
X1040602Y330251D01*
X1040353Y330451D01*
X1040109Y330656D01*
X1039870Y330868D01*
X1039636Y331085D01*
X1039408Y331308D01*
X1039185Y331536D01*
X1038968Y331770D01*
X1038756Y332009D01*
X1038551Y332253D01*
X1038351Y332502D01*
X1038158Y332756D01*
X1037971Y333014D01*
X1037791Y333278D01*
X1037617Y333545D01*
X1037450Y333817D01*
X1037289Y334092D01*
X1037135Y334372D01*
X1036988Y334655D01*
X1036848Y334942D01*
X1036715Y335232D01*
X1036590Y335525D01*
X1036471Y335821D01*
X1036360Y336120D01*
X1036256Y336422D01*
X1036160Y336726D01*
X1036071Y337033D01*
X1035990Y337341D01*
X1035916Y337652D01*
X1035850Y337964D01*
X1035791Y338277D01*
X1035741Y338593D01*
X1035698Y338909D01*
X1035663Y339226D01*
X1035635Y339544D01*
X1035616Y339862D01*
X1035604Y340181D01*
X1035600Y340500D01*
D12*
X1075003Y431008D02*
X1075102Y431010D01*
X1075202Y431016D01*
X1075301Y431025D01*
X1075399Y431038D01*
X1075497Y431055D01*
X1075595Y431076D01*
X1075691Y431101D01*
X1075786Y431129D01*
X1075880Y431161D01*
X1075973Y431196D01*
X1076065Y431235D01*
X1076155Y431278D01*
X1076243Y431323D01*
X1076330Y431373D01*
X1076414Y431425D01*
X1076497Y431481D01*
X1076577Y431539D01*
X1076655Y431601D01*
X1076730Y431666D01*
X1076803Y431734D01*
X1076873Y431804D01*
X1076941Y431877D01*
X1077006Y431952D01*
X1077068Y432030D01*
X1077126Y432110D01*
X1077182Y432193D01*
X1077234Y432277D01*
X1077284Y432364D01*
X1077329Y432452D01*
X1077372Y432542D01*
X1077411Y432634D01*
X1077446Y432727D01*
X1077478Y432821D01*
X1077506Y432916D01*
X1077531Y433012D01*
X1077552Y433110D01*
X1077569Y433208D01*
X1077582Y433306D01*
X1077591Y433405D01*
X1077597Y433505D01*
X1077599Y433604D01*
X1075003Y431008D02*
X1074859Y431010D01*
X1074714Y431016D01*
X1074570Y431025D01*
X1074427Y431038D01*
X1074283Y431055D01*
X1074140Y431076D01*
X1073998Y431101D01*
X1073857Y431129D01*
X1073716Y431161D01*
X1073576Y431197D01*
X1073437Y431236D01*
X1073299Y431279D01*
X1073163Y431326D01*
X1073027Y431376D01*
X1072893Y431430D01*
X1072761Y431487D01*
X1072630Y431548D01*
X1072501Y431612D01*
X1072373Y431680D01*
X1072247Y431750D01*
X1072123Y431825D01*
X1072002Y431902D01*
X1071882Y431983D01*
X1071764Y432066D01*
X1071649Y432153D01*
X1071536Y432243D01*
X1071425Y432336D01*
X1071317Y432431D01*
X1071211Y432530D01*
X1071108Y432631D01*
X1071433Y440096D02*
X1071435Y440195D01*
X1071441Y440295D01*
X1071450Y440394D01*
X1071463Y440492D01*
X1071480Y440590D01*
X1071501Y440688D01*
X1071526Y440784D01*
X1071554Y440879D01*
X1071586Y440973D01*
X1071621Y441066D01*
X1071660Y441158D01*
X1071703Y441248D01*
X1071748Y441336D01*
X1071798Y441423D01*
X1071850Y441507D01*
X1071906Y441590D01*
X1071964Y441670D01*
X1072026Y441748D01*
X1072091Y441823D01*
X1072159Y441896D01*
X1072229Y441966D01*
X1072302Y442034D01*
X1072377Y442099D01*
X1072455Y442161D01*
X1072535Y442219D01*
X1072618Y442275D01*
X1072702Y442327D01*
X1072789Y442377D01*
X1072877Y442422D01*
X1072967Y442465D01*
X1073059Y442504D01*
X1073152Y442539D01*
X1073246Y442571D01*
X1073341Y442599D01*
X1073438Y442624D01*
X1073535Y442645D01*
X1073633Y442662D01*
X1073731Y442675D01*
X1073830Y442684D01*
X1073930Y442690D01*
X1074029Y442692D01*
X1074165Y442690D01*
X1074301Y442684D01*
X1074437Y442675D01*
X1074573Y442662D01*
X1074708Y442644D01*
X1074842Y442624D01*
X1074976Y442599D01*
X1075110Y442571D01*
X1075242Y442538D01*
X1075373Y442503D01*
X1075504Y442463D01*
X1075633Y442420D01*
X1075761Y442374D01*
X1075887Y442323D01*
X1076013Y442270D01*
X1076136Y442212D01*
X1076258Y442152D01*
X1076378Y442088D01*
X1076497Y442020D01*
X1076613Y441950D01*
X1076727Y441876D01*
X1076840Y441799D01*
X1076950Y441718D01*
X1072731Y437824D02*
X1072645Y437877D01*
X1072561Y437934D01*
X1072479Y437993D01*
X1072399Y438056D01*
X1072322Y438122D01*
X1072247Y438190D01*
X1072175Y438262D01*
X1072106Y438336D01*
X1072040Y438413D01*
X1071977Y438492D01*
X1071917Y438574D01*
X1071860Y438658D01*
X1071806Y438744D01*
X1071756Y438832D01*
X1071709Y438922D01*
X1071665Y439013D01*
X1071626Y439107D01*
X1071589Y439201D01*
X1071557Y439297D01*
X1071528Y439395D01*
X1071503Y439493D01*
X1071482Y439592D01*
X1071464Y439692D01*
X1071451Y439792D01*
X1071441Y439893D01*
X1071435Y439995D01*
X1071433Y440096D01*
X1076301Y435876D02*
X1076387Y435823D01*
X1076471Y435766D01*
X1076553Y435707D01*
X1076633Y435644D01*
X1076710Y435578D01*
X1076785Y435510D01*
X1076857Y435438D01*
X1076926Y435364D01*
X1076992Y435287D01*
X1077055Y435208D01*
X1077115Y435126D01*
X1077172Y435042D01*
X1077226Y434956D01*
X1077276Y434868D01*
X1077323Y434778D01*
X1077367Y434687D01*
X1077406Y434593D01*
X1077443Y434499D01*
X1077475Y434403D01*
X1077504Y434305D01*
X1077529Y434207D01*
X1077550Y434108D01*
X1077568Y434008D01*
X1077581Y433908D01*
X1077591Y433807D01*
X1077597Y433705D01*
X1077599Y433604D01*
X1076301Y435876D02*
X1072731Y437824D01*
X1081734Y442692D02*
X1084330Y431008D01*
X1086927Y438797D01*
X1089523Y431008D01*
X1092119Y442692D01*
X1096635Y431008D02*
X1099881Y431008D01*
X1099994Y431010D01*
X1100107Y431016D01*
X1100220Y431026D01*
X1100333Y431040D01*
X1100445Y431057D01*
X1100556Y431079D01*
X1100666Y431104D01*
X1100776Y431134D01*
X1100884Y431167D01*
X1100991Y431204D01*
X1101097Y431244D01*
X1101201Y431289D01*
X1101304Y431337D01*
X1101405Y431388D01*
X1101504Y431443D01*
X1101601Y431501D01*
X1101696Y431563D01*
X1101789Y431628D01*
X1101879Y431696D01*
X1101967Y431767D01*
X1102053Y431842D01*
X1102136Y431919D01*
X1102216Y431999D01*
X1102293Y432082D01*
X1102368Y432168D01*
X1102439Y432256D01*
X1102507Y432346D01*
X1102572Y432439D01*
X1102634Y432534D01*
X1102692Y432631D01*
X1102747Y432730D01*
X1102798Y432831D01*
X1102846Y432934D01*
X1102891Y433038D01*
X1102931Y433144D01*
X1102968Y433251D01*
X1103001Y433359D01*
X1103031Y433469D01*
X1103056Y433579D01*
X1103078Y433690D01*
X1103095Y433802D01*
X1103109Y433915D01*
X1103119Y434028D01*
X1103125Y434141D01*
X1103127Y434254D01*
X1103125Y434367D01*
X1103119Y434480D01*
X1103109Y434593D01*
X1103095Y434706D01*
X1103078Y434818D01*
X1103056Y434929D01*
X1103031Y435039D01*
X1103001Y435149D01*
X1102968Y435257D01*
X1102931Y435364D01*
X1102891Y435470D01*
X1102846Y435574D01*
X1102798Y435677D01*
X1102747Y435778D01*
X1102692Y435877D01*
X1102634Y435974D01*
X1102572Y436069D01*
X1102507Y436162D01*
X1102439Y436252D01*
X1102368Y436340D01*
X1102293Y436426D01*
X1102216Y436509D01*
X1102136Y436589D01*
X1102053Y436666D01*
X1101967Y436741D01*
X1101879Y436812D01*
X1101789Y436880D01*
X1101696Y436945D01*
X1101601Y437007D01*
X1101504Y437065D01*
X1101405Y437120D01*
X1101304Y437171D01*
X1101201Y437219D01*
X1101097Y437264D01*
X1100991Y437304D01*
X1100884Y437341D01*
X1100776Y437374D01*
X1100666Y437404D01*
X1100556Y437429D01*
X1100445Y437451D01*
X1100333Y437468D01*
X1100220Y437482D01*
X1100107Y437492D01*
X1099994Y437498D01*
X1099881Y437500D01*
X1100530Y442692D02*
X1096635Y442692D01*
X1100530Y442692D02*
X1100631Y442690D01*
X1100731Y442684D01*
X1100831Y442674D01*
X1100931Y442661D01*
X1101030Y442643D01*
X1101129Y442622D01*
X1101226Y442597D01*
X1101323Y442568D01*
X1101418Y442535D01*
X1101512Y442499D01*
X1101604Y442459D01*
X1101695Y442416D01*
X1101784Y442369D01*
X1101871Y442319D01*
X1101957Y442265D01*
X1102040Y442208D01*
X1102120Y442148D01*
X1102199Y442085D01*
X1102275Y442018D01*
X1102348Y441949D01*
X1102418Y441877D01*
X1102486Y441803D01*
X1102551Y441726D01*
X1102612Y441646D01*
X1102671Y441564D01*
X1102726Y441480D01*
X1102778Y441394D01*
X1102827Y441306D01*
X1102872Y441216D01*
X1102914Y441124D01*
X1102952Y441031D01*
X1102986Y440936D01*
X1103017Y440841D01*
X1103044Y440744D01*
X1103067Y440646D01*
X1103087Y440547D01*
X1103102Y440447D01*
X1103114Y440347D01*
X1103122Y440247D01*
X1103126Y440146D01*
X1103126Y440046D01*
X1103122Y439945D01*
X1103114Y439845D01*
X1103102Y439745D01*
X1103087Y439645D01*
X1103067Y439546D01*
X1103044Y439448D01*
X1103017Y439351D01*
X1102986Y439256D01*
X1102952Y439161D01*
X1102914Y439068D01*
X1102872Y438976D01*
X1102827Y438886D01*
X1102778Y438798D01*
X1102726Y438712D01*
X1102671Y438628D01*
X1102612Y438546D01*
X1102551Y438466D01*
X1102486Y438389D01*
X1102418Y438315D01*
X1102348Y438243D01*
X1102275Y438174D01*
X1102199Y438107D01*
X1102120Y438044D01*
X1102040Y437984D01*
X1101957Y437927D01*
X1101871Y437873D01*
X1101784Y437823D01*
X1101695Y437776D01*
X1101604Y437733D01*
X1101512Y437693D01*
X1101418Y437657D01*
X1101323Y437624D01*
X1101226Y437595D01*
X1101129Y437570D01*
X1101030Y437549D01*
X1100931Y437531D01*
X1100831Y437518D01*
X1100731Y437508D01*
X1100631Y437502D01*
X1100530Y437500D01*
X1100530Y437499D02*
X1097933Y437499D01*
D11*
X1597200Y340500D02*
X1597204Y340819D01*
X1597216Y341138D01*
X1597235Y341456D01*
X1597263Y341774D01*
X1597298Y342091D01*
X1597341Y342407D01*
X1597391Y342723D01*
X1597450Y343036D01*
X1597516Y343348D01*
X1597590Y343659D01*
X1597671Y343967D01*
X1597760Y344274D01*
X1597856Y344578D01*
X1597960Y344880D01*
X1598071Y345179D01*
X1598190Y345475D01*
X1598315Y345768D01*
X1598448Y346058D01*
X1598588Y346345D01*
X1598735Y346628D01*
X1598889Y346908D01*
X1599050Y347183D01*
X1599217Y347455D01*
X1599391Y347722D01*
X1599571Y347986D01*
X1599758Y348244D01*
X1599951Y348498D01*
X1600151Y348747D01*
X1600356Y348991D01*
X1600568Y349230D01*
X1600785Y349464D01*
X1601008Y349692D01*
X1601236Y349915D01*
X1601470Y350132D01*
X1601709Y350344D01*
X1601953Y350549D01*
X1602202Y350749D01*
X1602456Y350942D01*
X1602714Y351129D01*
X1602978Y351309D01*
X1603245Y351483D01*
X1603517Y351650D01*
X1603792Y351811D01*
X1604072Y351965D01*
X1604355Y352112D01*
X1604642Y352252D01*
X1604932Y352385D01*
X1605225Y352510D01*
X1605521Y352629D01*
X1605820Y352740D01*
X1606122Y352844D01*
X1606426Y352940D01*
X1606733Y353029D01*
X1607041Y353110D01*
X1607352Y353184D01*
X1607664Y353250D01*
X1607977Y353309D01*
X1608293Y353359D01*
X1608609Y353402D01*
X1608926Y353437D01*
X1609244Y353465D01*
X1609562Y353484D01*
X1609881Y353496D01*
X1610200Y353500D01*
X1610519Y353496D01*
X1610838Y353484D01*
X1611156Y353465D01*
X1611474Y353437D01*
X1611791Y353402D01*
X1612107Y353359D01*
X1612423Y353309D01*
X1612736Y353250D01*
X1613048Y353184D01*
X1613359Y353110D01*
X1613667Y353029D01*
X1613974Y352940D01*
X1614278Y352844D01*
X1614580Y352740D01*
X1614879Y352629D01*
X1615175Y352510D01*
X1615468Y352385D01*
X1615758Y352252D01*
X1616045Y352112D01*
X1616328Y351965D01*
X1616608Y351811D01*
X1616883Y351650D01*
X1617155Y351483D01*
X1617422Y351309D01*
X1617686Y351129D01*
X1617944Y350942D01*
X1618198Y350749D01*
X1618447Y350549D01*
X1618691Y350344D01*
X1618930Y350132D01*
X1619164Y349915D01*
X1619392Y349692D01*
X1619615Y349464D01*
X1619832Y349230D01*
X1620044Y348991D01*
X1620249Y348747D01*
X1620449Y348498D01*
X1620642Y348244D01*
X1620829Y347986D01*
X1621009Y347722D01*
X1621183Y347455D01*
X1621350Y347183D01*
X1621511Y346908D01*
X1621665Y346628D01*
X1621812Y346345D01*
X1621952Y346058D01*
X1622085Y345768D01*
X1622210Y345475D01*
X1622329Y345179D01*
X1622440Y344880D01*
X1622544Y344578D01*
X1622640Y344274D01*
X1622729Y343967D01*
X1622810Y343659D01*
X1622884Y343348D01*
X1622950Y343036D01*
X1623009Y342723D01*
X1623059Y342407D01*
X1623102Y342091D01*
X1623137Y341774D01*
X1623165Y341456D01*
X1623184Y341138D01*
X1623196Y340819D01*
X1623200Y340500D01*
X1623196Y340181D01*
X1623184Y339862D01*
X1623165Y339544D01*
X1623137Y339226D01*
X1623102Y338909D01*
X1623059Y338593D01*
X1623009Y338277D01*
X1622950Y337964D01*
X1622884Y337652D01*
X1622810Y337341D01*
X1622729Y337033D01*
X1622640Y336726D01*
X1622544Y336422D01*
X1622440Y336120D01*
X1622329Y335821D01*
X1622210Y335525D01*
X1622085Y335232D01*
X1621952Y334942D01*
X1621812Y334655D01*
X1621665Y334372D01*
X1621511Y334092D01*
X1621350Y333817D01*
X1621183Y333545D01*
X1621009Y333278D01*
X1620829Y333014D01*
X1620642Y332756D01*
X1620449Y332502D01*
X1620249Y332253D01*
X1620044Y332009D01*
X1619832Y331770D01*
X1619615Y331536D01*
X1619392Y331308D01*
X1619164Y331085D01*
X1618930Y330868D01*
X1618691Y330656D01*
X1618447Y330451D01*
X1618198Y330251D01*
X1617944Y330058D01*
X1617686Y329871D01*
X1617422Y329691D01*
X1617155Y329517D01*
X1616883Y329350D01*
X1616608Y329189D01*
X1616328Y329035D01*
X1616045Y328888D01*
X1615758Y328748D01*
X1615468Y328615D01*
X1615175Y328490D01*
X1614879Y328371D01*
X1614580Y328260D01*
X1614278Y328156D01*
X1613974Y328060D01*
X1613667Y327971D01*
X1613359Y327890D01*
X1613048Y327816D01*
X1612736Y327750D01*
X1612423Y327691D01*
X1612107Y327641D01*
X1611791Y327598D01*
X1611474Y327563D01*
X1611156Y327535D01*
X1610838Y327516D01*
X1610519Y327504D01*
X1610200Y327500D01*
X1609881Y327504D01*
X1609562Y327516D01*
X1609244Y327535D01*
X1608926Y327563D01*
X1608609Y327598D01*
X1608293Y327641D01*
X1607977Y327691D01*
X1607664Y327750D01*
X1607352Y327816D01*
X1607041Y327890D01*
X1606733Y327971D01*
X1606426Y328060D01*
X1606122Y328156D01*
X1605820Y328260D01*
X1605521Y328371D01*
X1605225Y328490D01*
X1604932Y328615D01*
X1604642Y328748D01*
X1604355Y328888D01*
X1604072Y329035D01*
X1603792Y329189D01*
X1603517Y329350D01*
X1603245Y329517D01*
X1602978Y329691D01*
X1602714Y329871D01*
X1602456Y330058D01*
X1602202Y330251D01*
X1601953Y330451D01*
X1601709Y330656D01*
X1601470Y330868D01*
X1601236Y331085D01*
X1601008Y331308D01*
X1600785Y331536D01*
X1600568Y331770D01*
X1600356Y332009D01*
X1600151Y332253D01*
X1599951Y332502D01*
X1599758Y332756D01*
X1599571Y333014D01*
X1599391Y333278D01*
X1599217Y333545D01*
X1599050Y333817D01*
X1598889Y334092D01*
X1598735Y334372D01*
X1598588Y334655D01*
X1598448Y334942D01*
X1598315Y335232D01*
X1598190Y335525D01*
X1598071Y335821D01*
X1597960Y336120D01*
X1597856Y336422D01*
X1597760Y336726D01*
X1597671Y337033D01*
X1597590Y337341D01*
X1597516Y337652D01*
X1597450Y337964D01*
X1597391Y338277D01*
X1597341Y338593D01*
X1597298Y338909D01*
X1597263Y339226D01*
X1597235Y339544D01*
X1597216Y339862D01*
X1597204Y340181D01*
X1597200Y340500D01*
X1483200Y340500D02*
X1483204Y340819D01*
X1483216Y341138D01*
X1483235Y341456D01*
X1483263Y341774D01*
X1483298Y342091D01*
X1483341Y342407D01*
X1483391Y342723D01*
X1483450Y343036D01*
X1483516Y343348D01*
X1483590Y343659D01*
X1483671Y343967D01*
X1483760Y344274D01*
X1483856Y344578D01*
X1483960Y344880D01*
X1484071Y345179D01*
X1484190Y345475D01*
X1484315Y345768D01*
X1484448Y346058D01*
X1484588Y346345D01*
X1484735Y346628D01*
X1484889Y346908D01*
X1485050Y347183D01*
X1485217Y347455D01*
X1485391Y347722D01*
X1485571Y347986D01*
X1485758Y348244D01*
X1485951Y348498D01*
X1486151Y348747D01*
X1486356Y348991D01*
X1486568Y349230D01*
X1486785Y349464D01*
X1487008Y349692D01*
X1487236Y349915D01*
X1487470Y350132D01*
X1487709Y350344D01*
X1487953Y350549D01*
X1488202Y350749D01*
X1488456Y350942D01*
X1488714Y351129D01*
X1488978Y351309D01*
X1489245Y351483D01*
X1489517Y351650D01*
X1489792Y351811D01*
X1490072Y351965D01*
X1490355Y352112D01*
X1490642Y352252D01*
X1490932Y352385D01*
X1491225Y352510D01*
X1491521Y352629D01*
X1491820Y352740D01*
X1492122Y352844D01*
X1492426Y352940D01*
X1492733Y353029D01*
X1493041Y353110D01*
X1493352Y353184D01*
X1493664Y353250D01*
X1493977Y353309D01*
X1494293Y353359D01*
X1494609Y353402D01*
X1494926Y353437D01*
X1495244Y353465D01*
X1495562Y353484D01*
X1495881Y353496D01*
X1496200Y353500D01*
X1496519Y353496D01*
X1496838Y353484D01*
X1497156Y353465D01*
X1497474Y353437D01*
X1497791Y353402D01*
X1498107Y353359D01*
X1498423Y353309D01*
X1498736Y353250D01*
X1499048Y353184D01*
X1499359Y353110D01*
X1499667Y353029D01*
X1499974Y352940D01*
X1500278Y352844D01*
X1500580Y352740D01*
X1500879Y352629D01*
X1501175Y352510D01*
X1501468Y352385D01*
X1501758Y352252D01*
X1502045Y352112D01*
X1502328Y351965D01*
X1502608Y351811D01*
X1502883Y351650D01*
X1503155Y351483D01*
X1503422Y351309D01*
X1503686Y351129D01*
X1503944Y350942D01*
X1504198Y350749D01*
X1504447Y350549D01*
X1504691Y350344D01*
X1504930Y350132D01*
X1505164Y349915D01*
X1505392Y349692D01*
X1505615Y349464D01*
X1505832Y349230D01*
X1506044Y348991D01*
X1506249Y348747D01*
X1506449Y348498D01*
X1506642Y348244D01*
X1506829Y347986D01*
X1507009Y347722D01*
X1507183Y347455D01*
X1507350Y347183D01*
X1507511Y346908D01*
X1507665Y346628D01*
X1507812Y346345D01*
X1507952Y346058D01*
X1508085Y345768D01*
X1508210Y345475D01*
X1508329Y345179D01*
X1508440Y344880D01*
X1508544Y344578D01*
X1508640Y344274D01*
X1508729Y343967D01*
X1508810Y343659D01*
X1508884Y343348D01*
X1508950Y343036D01*
X1509009Y342723D01*
X1509059Y342407D01*
X1509102Y342091D01*
X1509137Y341774D01*
X1509165Y341456D01*
X1509184Y341138D01*
X1509196Y340819D01*
X1509200Y340500D01*
X1509196Y340181D01*
X1509184Y339862D01*
X1509165Y339544D01*
X1509137Y339226D01*
X1509102Y338909D01*
X1509059Y338593D01*
X1509009Y338277D01*
X1508950Y337964D01*
X1508884Y337652D01*
X1508810Y337341D01*
X1508729Y337033D01*
X1508640Y336726D01*
X1508544Y336422D01*
X1508440Y336120D01*
X1508329Y335821D01*
X1508210Y335525D01*
X1508085Y335232D01*
X1507952Y334942D01*
X1507812Y334655D01*
X1507665Y334372D01*
X1507511Y334092D01*
X1507350Y333817D01*
X1507183Y333545D01*
X1507009Y333278D01*
X1506829Y333014D01*
X1506642Y332756D01*
X1506449Y332502D01*
X1506249Y332253D01*
X1506044Y332009D01*
X1505832Y331770D01*
X1505615Y331536D01*
X1505392Y331308D01*
X1505164Y331085D01*
X1504930Y330868D01*
X1504691Y330656D01*
X1504447Y330451D01*
X1504198Y330251D01*
X1503944Y330058D01*
X1503686Y329871D01*
X1503422Y329691D01*
X1503155Y329517D01*
X1502883Y329350D01*
X1502608Y329189D01*
X1502328Y329035D01*
X1502045Y328888D01*
X1501758Y328748D01*
X1501468Y328615D01*
X1501175Y328490D01*
X1500879Y328371D01*
X1500580Y328260D01*
X1500278Y328156D01*
X1499974Y328060D01*
X1499667Y327971D01*
X1499359Y327890D01*
X1499048Y327816D01*
X1498736Y327750D01*
X1498423Y327691D01*
X1498107Y327641D01*
X1497791Y327598D01*
X1497474Y327563D01*
X1497156Y327535D01*
X1496838Y327516D01*
X1496519Y327504D01*
X1496200Y327500D01*
X1495881Y327504D01*
X1495562Y327516D01*
X1495244Y327535D01*
X1494926Y327563D01*
X1494609Y327598D01*
X1494293Y327641D01*
X1493977Y327691D01*
X1493664Y327750D01*
X1493352Y327816D01*
X1493041Y327890D01*
X1492733Y327971D01*
X1492426Y328060D01*
X1492122Y328156D01*
X1491820Y328260D01*
X1491521Y328371D01*
X1491225Y328490D01*
X1490932Y328615D01*
X1490642Y328748D01*
X1490355Y328888D01*
X1490072Y329035D01*
X1489792Y329189D01*
X1489517Y329350D01*
X1489245Y329517D01*
X1488978Y329691D01*
X1488714Y329871D01*
X1488456Y330058D01*
X1488202Y330251D01*
X1487953Y330451D01*
X1487709Y330656D01*
X1487470Y330868D01*
X1487236Y331085D01*
X1487008Y331308D01*
X1486785Y331536D01*
X1486568Y331770D01*
X1486356Y332009D01*
X1486151Y332253D01*
X1485951Y332502D01*
X1485758Y332756D01*
X1485571Y333014D01*
X1485391Y333278D01*
X1485217Y333545D01*
X1485050Y333817D01*
X1484889Y334092D01*
X1484735Y334372D01*
X1484588Y334655D01*
X1484448Y334942D01*
X1484315Y335232D01*
X1484190Y335525D01*
X1484071Y335821D01*
X1483960Y336120D01*
X1483856Y336422D01*
X1483760Y336726D01*
X1483671Y337033D01*
X1483590Y337341D01*
X1483516Y337652D01*
X1483450Y337964D01*
X1483391Y338277D01*
X1483341Y338593D01*
X1483298Y338909D01*
X1483263Y339226D01*
X1483235Y339544D01*
X1483216Y339862D01*
X1483204Y340181D01*
X1483200Y340500D01*
D12*
X1522603Y431008D02*
X1522702Y431010D01*
X1522802Y431016D01*
X1522901Y431025D01*
X1522999Y431038D01*
X1523097Y431055D01*
X1523195Y431076D01*
X1523291Y431101D01*
X1523386Y431129D01*
X1523480Y431161D01*
X1523573Y431196D01*
X1523665Y431235D01*
X1523755Y431278D01*
X1523843Y431323D01*
X1523930Y431373D01*
X1524014Y431425D01*
X1524097Y431481D01*
X1524177Y431539D01*
X1524255Y431601D01*
X1524330Y431666D01*
X1524403Y431734D01*
X1524473Y431804D01*
X1524541Y431877D01*
X1524606Y431952D01*
X1524668Y432030D01*
X1524726Y432110D01*
X1524782Y432193D01*
X1524834Y432277D01*
X1524884Y432364D01*
X1524929Y432452D01*
X1524972Y432542D01*
X1525011Y432634D01*
X1525046Y432727D01*
X1525078Y432821D01*
X1525106Y432916D01*
X1525131Y433012D01*
X1525152Y433110D01*
X1525169Y433208D01*
X1525182Y433306D01*
X1525191Y433405D01*
X1525197Y433505D01*
X1525199Y433604D01*
X1522603Y431008D02*
X1522459Y431010D01*
X1522314Y431016D01*
X1522170Y431025D01*
X1522027Y431038D01*
X1521883Y431055D01*
X1521740Y431076D01*
X1521598Y431101D01*
X1521457Y431129D01*
X1521316Y431161D01*
X1521176Y431197D01*
X1521037Y431236D01*
X1520899Y431279D01*
X1520763Y431326D01*
X1520627Y431376D01*
X1520493Y431430D01*
X1520361Y431487D01*
X1520230Y431548D01*
X1520101Y431612D01*
X1519973Y431680D01*
X1519847Y431750D01*
X1519723Y431825D01*
X1519602Y431902D01*
X1519482Y431983D01*
X1519364Y432066D01*
X1519249Y432153D01*
X1519136Y432243D01*
X1519025Y432336D01*
X1518917Y432431D01*
X1518811Y432530D01*
X1518708Y432631D01*
X1519033Y440096D02*
X1519035Y440195D01*
X1519041Y440295D01*
X1519050Y440394D01*
X1519063Y440492D01*
X1519080Y440590D01*
X1519101Y440688D01*
X1519126Y440784D01*
X1519154Y440879D01*
X1519186Y440973D01*
X1519221Y441066D01*
X1519260Y441158D01*
X1519303Y441248D01*
X1519348Y441336D01*
X1519398Y441423D01*
X1519450Y441507D01*
X1519506Y441590D01*
X1519564Y441670D01*
X1519626Y441748D01*
X1519691Y441823D01*
X1519759Y441896D01*
X1519829Y441966D01*
X1519902Y442034D01*
X1519977Y442099D01*
X1520055Y442161D01*
X1520135Y442219D01*
X1520218Y442275D01*
X1520302Y442327D01*
X1520389Y442377D01*
X1520477Y442422D01*
X1520567Y442465D01*
X1520659Y442504D01*
X1520752Y442539D01*
X1520846Y442571D01*
X1520941Y442599D01*
X1521038Y442624D01*
X1521135Y442645D01*
X1521233Y442662D01*
X1521331Y442675D01*
X1521430Y442684D01*
X1521530Y442690D01*
X1521629Y442692D01*
X1521765Y442690D01*
X1521901Y442684D01*
X1522037Y442675D01*
X1522173Y442662D01*
X1522308Y442644D01*
X1522442Y442624D01*
X1522576Y442599D01*
X1522710Y442571D01*
X1522842Y442538D01*
X1522973Y442503D01*
X1523104Y442463D01*
X1523233Y442420D01*
X1523361Y442374D01*
X1523487Y442323D01*
X1523613Y442270D01*
X1523736Y442212D01*
X1523858Y442152D01*
X1523978Y442088D01*
X1524097Y442020D01*
X1524213Y441950D01*
X1524327Y441876D01*
X1524440Y441799D01*
X1524550Y441718D01*
X1520331Y437824D02*
X1520245Y437877D01*
X1520161Y437934D01*
X1520079Y437993D01*
X1519999Y438056D01*
X1519922Y438122D01*
X1519847Y438190D01*
X1519775Y438262D01*
X1519706Y438336D01*
X1519640Y438413D01*
X1519577Y438492D01*
X1519517Y438574D01*
X1519460Y438658D01*
X1519406Y438744D01*
X1519356Y438832D01*
X1519309Y438922D01*
X1519265Y439013D01*
X1519226Y439107D01*
X1519189Y439201D01*
X1519157Y439297D01*
X1519128Y439395D01*
X1519103Y439493D01*
X1519082Y439592D01*
X1519064Y439692D01*
X1519051Y439792D01*
X1519041Y439893D01*
X1519035Y439995D01*
X1519033Y440096D01*
X1523901Y435876D02*
X1523987Y435823D01*
X1524071Y435766D01*
X1524153Y435707D01*
X1524233Y435644D01*
X1524310Y435578D01*
X1524385Y435510D01*
X1524457Y435438D01*
X1524526Y435364D01*
X1524592Y435287D01*
X1524655Y435208D01*
X1524715Y435126D01*
X1524772Y435042D01*
X1524826Y434956D01*
X1524876Y434868D01*
X1524923Y434778D01*
X1524967Y434687D01*
X1525006Y434593D01*
X1525043Y434499D01*
X1525075Y434403D01*
X1525104Y434305D01*
X1525129Y434207D01*
X1525150Y434108D01*
X1525168Y434008D01*
X1525181Y433908D01*
X1525191Y433807D01*
X1525197Y433705D01*
X1525199Y433604D01*
X1523901Y435876D02*
X1520331Y437824D01*
X1529334Y442692D02*
X1531930Y431008D01*
X1534527Y438797D01*
X1537123Y431008D01*
X1539719Y442692D01*
X1546831Y442692D02*
X1544235Y433604D01*
X1550726Y433604D01*
X1548779Y436201D02*
X1548779Y431008D01*
D13*
X565100Y94450D02*
X558750Y88100D01*
X565100Y94450D02*
X571450Y88100D01*
X584150Y88100D02*
X590500Y94450D01*
X596850Y88100D01*
X609550Y88100D02*
X615900Y94450D01*
X622250Y88100D01*
X634950Y88100D02*
X641300Y94450D01*
X647650Y88100D01*
X660350Y88100D02*
X666700Y94450D01*
X673050Y88100D01*
X685750Y88100D02*
X692100Y94450D01*
X558750Y138900D02*
X546050Y138900D01*
X558750Y138900D02*
X565100Y132550D01*
X571450Y138900D01*
X584150Y138900D01*
X590500Y132550D01*
X596850Y138900D01*
X609550Y138900D01*
X615900Y132550D01*
X622250Y138900D01*
X634950Y138900D01*
X641300Y132550D01*
X647650Y138900D01*
X660350Y138900D01*
X666700Y132550D01*
X673050Y138900D01*
X685750Y138900D01*
X692100Y132550D01*
X698450Y138900D01*
X711150Y138900D01*
X717500Y132550D01*
X723850Y138900D01*
X736550Y138900D01*
X742900Y132550D01*
X742900Y94450D02*
X736550Y88100D01*
X723850Y88100D02*
X717500Y94450D01*
X711150Y88100D01*
X698450Y88100D02*
X692100Y94450D01*
X565100Y94450D02*
X565100Y132550D01*
X590500Y132550D02*
X590500Y94450D01*
X615900Y94450D02*
X615900Y132550D01*
X641300Y132550D02*
X641300Y94450D01*
X666700Y94450D02*
X666700Y132550D01*
X692100Y132550D02*
X692100Y94450D01*
X717500Y94450D02*
X717500Y132550D01*
X742900Y132550D02*
X742900Y94450D01*
X736550Y88100D02*
X723850Y88100D01*
X711150Y88100D02*
X698450Y88100D01*
X685750Y88100D02*
X673050Y88100D01*
X660350Y88100D02*
X647650Y88100D01*
X634950Y88100D02*
X622250Y88100D01*
X609550Y88100D02*
X596850Y88100D01*
X584150Y88100D02*
X571450Y88100D01*
X558750Y88100D02*
X546050Y88100D01*
X539700Y94450D01*
X539700Y132550D01*
X546050Y138900D01*
X544780Y84290D02*
X558750Y84290D01*
D14*
X541944Y143147D02*
X541944Y146901D01*
X541943Y143147D02*
X541941Y143082D01*
X541935Y143018D01*
X541925Y142954D01*
X541912Y142890D01*
X541894Y142828D01*
X541873Y142767D01*
X541849Y142707D01*
X541820Y142649D01*
X541788Y142592D01*
X541753Y142538D01*
X541715Y142486D01*
X541673Y142436D01*
X541629Y142389D01*
X541582Y142345D01*
X541532Y142303D01*
X541480Y142265D01*
X541426Y142230D01*
X541369Y142198D01*
X541311Y142169D01*
X541251Y142145D01*
X541190Y142124D01*
X541128Y142106D01*
X541064Y142093D01*
X541000Y142083D01*
X540936Y142077D01*
X540871Y142075D01*
X540335Y142075D01*
X544892Y145829D02*
X546232Y146901D01*
X546232Y142075D01*
X544892Y142075D02*
X547573Y142075D01*
D13*
X1006350Y87300D02*
X1012700Y93650D01*
X1019050Y87300D01*
X1031750Y87300D02*
X1038100Y93650D01*
X1044450Y87300D01*
X1057150Y87300D02*
X1063500Y93650D01*
X1069850Y87300D01*
X1082550Y87300D02*
X1088900Y93650D01*
X1095250Y87300D01*
X1107950Y87300D02*
X1114300Y93650D01*
X1120650Y87300D01*
X1133350Y87300D02*
X1139700Y93650D01*
X1006350Y138100D02*
X993650Y138100D01*
X1006350Y138100D02*
X1012700Y131750D01*
X1019050Y138100D01*
X1031750Y138100D01*
X1038100Y131750D01*
X1044450Y138100D01*
X1057150Y138100D01*
X1063500Y131750D01*
X1069850Y138100D01*
X1082550Y138100D01*
X1088900Y131750D01*
X1095250Y138100D01*
X1107950Y138100D01*
X1114300Y131750D01*
X1120650Y138100D01*
X1133350Y138100D01*
X1139700Y131750D01*
X1146050Y138100D01*
X1158750Y138100D01*
X1165100Y131750D01*
X1171450Y138100D01*
X1184150Y138100D01*
X1190500Y131750D01*
X1190500Y93650D02*
X1184150Y87300D01*
X1171450Y87300D02*
X1165100Y93650D01*
X1158750Y87300D01*
X1146050Y87300D02*
X1139700Y93650D01*
X1012700Y93650D02*
X1012700Y131750D01*
X1038100Y131750D02*
X1038100Y93650D01*
X1063500Y93650D02*
X1063500Y131750D01*
X1088900Y131750D02*
X1088900Y93650D01*
X1114300Y93650D02*
X1114300Y131750D01*
X1139700Y131750D02*
X1139700Y93650D01*
X1165100Y93650D02*
X1165100Y131750D01*
X1190500Y131750D02*
X1190500Y93650D01*
X1184150Y87300D02*
X1171450Y87300D01*
X1158750Y87300D02*
X1146050Y87300D01*
X1133350Y87300D02*
X1120650Y87300D01*
X1107950Y87300D02*
X1095250Y87300D01*
X1082550Y87300D02*
X1069850Y87300D01*
X1057150Y87300D02*
X1044450Y87300D01*
X1031750Y87300D02*
X1019050Y87300D01*
X1006350Y87300D02*
X993650Y87300D01*
X987300Y93650D01*
X987300Y131750D01*
X993650Y138100D01*
X992380Y83490D02*
X1006350Y83490D01*
D14*
X989544Y142347D02*
X989544Y146101D01*
X989543Y142347D02*
X989541Y142282D01*
X989535Y142218D01*
X989525Y142154D01*
X989512Y142090D01*
X989494Y142028D01*
X989473Y141967D01*
X989449Y141907D01*
X989420Y141849D01*
X989388Y141792D01*
X989353Y141738D01*
X989315Y141686D01*
X989273Y141636D01*
X989229Y141589D01*
X989182Y141545D01*
X989132Y141503D01*
X989080Y141465D01*
X989026Y141430D01*
X988969Y141398D01*
X988911Y141369D01*
X988851Y141345D01*
X988790Y141324D01*
X988728Y141306D01*
X988664Y141293D01*
X988600Y141283D01*
X988536Y141277D01*
X988471Y141275D01*
X987935Y141275D01*
X993966Y146101D02*
X994034Y146099D01*
X994101Y146093D01*
X994168Y146084D01*
X994235Y146071D01*
X994300Y146054D01*
X994365Y146033D01*
X994428Y146009D01*
X994490Y145981D01*
X994550Y145950D01*
X994608Y145916D01*
X994664Y145878D01*
X994719Y145838D01*
X994770Y145794D01*
X994819Y145747D01*
X994866Y145698D01*
X994910Y145647D01*
X994950Y145592D01*
X994988Y145536D01*
X995022Y145478D01*
X995053Y145418D01*
X995081Y145356D01*
X995105Y145293D01*
X995126Y145228D01*
X995143Y145163D01*
X995156Y145096D01*
X995165Y145029D01*
X995171Y144962D01*
X995173Y144894D01*
X993966Y146101D02*
X993888Y146099D01*
X993810Y146093D01*
X993733Y146083D01*
X993656Y146070D01*
X993580Y146052D01*
X993505Y146031D01*
X993431Y146006D01*
X993359Y145977D01*
X993288Y145945D01*
X993219Y145909D01*
X993151Y145870D01*
X993086Y145827D01*
X993023Y145781D01*
X992962Y145732D01*
X992904Y145680D01*
X992849Y145625D01*
X992796Y145568D01*
X992747Y145508D01*
X992700Y145445D01*
X992657Y145381D01*
X992617Y145314D01*
X992580Y145245D01*
X992547Y145174D01*
X992517Y145102D01*
X992491Y145029D01*
X994771Y143956D02*
X994820Y144005D01*
X994867Y144057D01*
X994910Y144112D01*
X994951Y144169D01*
X994989Y144228D01*
X995023Y144289D01*
X995054Y144352D01*
X995082Y144416D01*
X995106Y144482D01*
X995126Y144548D01*
X995143Y144616D01*
X995156Y144685D01*
X995165Y144754D01*
X995171Y144824D01*
X995173Y144894D01*
X994771Y143956D02*
X992492Y141275D01*
X995173Y141275D01*
D10*
X1615710Y50000D02*
X1615720Y50842D01*
X1615751Y51683D01*
X1615803Y52523D01*
X1615875Y53361D01*
X1615968Y54197D01*
X1616081Y55031D01*
X1616215Y55862D01*
X1616369Y56690D01*
X1616543Y57513D01*
X1616738Y58332D01*
X1616952Y59146D01*
X1617187Y59954D01*
X1617441Y60756D01*
X1617714Y61552D01*
X1618008Y62341D01*
X1618320Y63122D01*
X1618652Y63896D01*
X1619002Y64661D01*
X1619371Y65417D01*
X1619759Y66164D01*
X1620165Y66901D01*
X1620588Y67629D01*
X1621030Y68345D01*
X1621489Y69051D01*
X1621965Y69744D01*
X1622458Y70427D01*
X1622968Y71096D01*
X1623493Y71753D01*
X1624035Y72397D01*
X1624593Y73028D01*
X1625166Y73644D01*
X1625753Y74247D01*
X1626356Y74834D01*
X1626972Y75407D01*
X1627603Y75965D01*
X1628247Y76507D01*
X1628904Y77032D01*
X1629573Y77542D01*
X1630256Y78035D01*
X1630949Y78511D01*
X1631655Y78970D01*
X1632371Y79412D01*
X1633099Y79835D01*
X1633836Y80241D01*
X1634583Y80629D01*
X1635339Y80998D01*
X1636104Y81348D01*
X1636878Y81680D01*
X1637659Y81992D01*
X1638448Y82286D01*
X1639244Y82559D01*
X1640046Y82813D01*
X1640854Y83048D01*
X1641668Y83262D01*
X1642487Y83457D01*
X1643310Y83631D01*
X1644138Y83785D01*
X1644969Y83919D01*
X1645803Y84032D01*
X1646639Y84125D01*
X1647477Y84197D01*
X1648317Y84249D01*
X1649158Y84280D01*
X1650000Y84290D01*
X1650842Y84280D01*
X1651683Y84249D01*
X1652523Y84197D01*
X1653361Y84125D01*
X1654197Y84032D01*
X1655031Y83919D01*
X1655862Y83785D01*
X1656690Y83631D01*
X1657513Y83457D01*
X1658332Y83262D01*
X1659146Y83048D01*
X1659954Y82813D01*
X1660756Y82559D01*
X1661552Y82286D01*
X1662341Y81992D01*
X1663122Y81680D01*
X1663896Y81348D01*
X1664661Y80998D01*
X1665417Y80629D01*
X1666164Y80241D01*
X1666901Y79835D01*
X1667629Y79412D01*
X1668345Y78970D01*
X1669051Y78511D01*
X1669744Y78035D01*
X1670427Y77542D01*
X1671096Y77032D01*
X1671753Y76507D01*
X1672397Y75965D01*
X1673028Y75407D01*
X1673644Y74834D01*
X1674247Y74247D01*
X1674834Y73644D01*
X1675407Y73028D01*
X1675965Y72397D01*
X1676507Y71753D01*
X1677032Y71096D01*
X1677542Y70427D01*
X1678035Y69744D01*
X1678511Y69051D01*
X1678970Y68345D01*
X1679412Y67629D01*
X1679835Y66901D01*
X1680241Y66164D01*
X1680629Y65417D01*
X1680998Y64661D01*
X1681348Y63896D01*
X1681680Y63122D01*
X1681992Y62341D01*
X1682286Y61552D01*
X1682559Y60756D01*
X1682813Y59954D01*
X1683048Y59146D01*
X1683262Y58332D01*
X1683457Y57513D01*
X1683631Y56690D01*
X1683785Y55862D01*
X1683919Y55031D01*
X1684032Y54197D01*
X1684125Y53361D01*
X1684197Y52523D01*
X1684249Y51683D01*
X1684280Y50842D01*
X1684290Y50000D01*
X1684280Y49158D01*
X1684249Y48317D01*
X1684197Y47477D01*
X1684125Y46639D01*
X1684032Y45803D01*
X1683919Y44969D01*
X1683785Y44138D01*
X1683631Y43310D01*
X1683457Y42487D01*
X1683262Y41668D01*
X1683048Y40854D01*
X1682813Y40046D01*
X1682559Y39244D01*
X1682286Y38448D01*
X1681992Y37659D01*
X1681680Y36878D01*
X1681348Y36104D01*
X1680998Y35339D01*
X1680629Y34583D01*
X1680241Y33836D01*
X1679835Y33099D01*
X1679412Y32371D01*
X1678970Y31655D01*
X1678511Y30949D01*
X1678035Y30256D01*
X1677542Y29573D01*
X1677032Y28904D01*
X1676507Y28247D01*
X1675965Y27603D01*
X1675407Y26972D01*
X1674834Y26356D01*
X1674247Y25753D01*
X1673644Y25166D01*
X1673028Y24593D01*
X1672397Y24035D01*
X1671753Y23493D01*
X1671096Y22968D01*
X1670427Y22458D01*
X1669744Y21965D01*
X1669051Y21489D01*
X1668345Y21030D01*
X1667629Y20588D01*
X1666901Y20165D01*
X1666164Y19759D01*
X1665417Y19371D01*
X1664661Y19002D01*
X1663896Y18652D01*
X1663122Y18320D01*
X1662341Y18008D01*
X1661552Y17714D01*
X1660756Y17441D01*
X1659954Y17187D01*
X1659146Y16952D01*
X1658332Y16738D01*
X1657513Y16543D01*
X1656690Y16369D01*
X1655862Y16215D01*
X1655031Y16081D01*
X1654197Y15968D01*
X1653361Y15875D01*
X1652523Y15803D01*
X1651683Y15751D01*
X1650842Y15720D01*
X1650000Y15710D01*
X1649158Y15720D01*
X1648317Y15751D01*
X1647477Y15803D01*
X1646639Y15875D01*
X1645803Y15968D01*
X1644969Y16081D01*
X1644138Y16215D01*
X1643310Y16369D01*
X1642487Y16543D01*
X1641668Y16738D01*
X1640854Y16952D01*
X1640046Y17187D01*
X1639244Y17441D01*
X1638448Y17714D01*
X1637659Y18008D01*
X1636878Y18320D01*
X1636104Y18652D01*
X1635339Y19002D01*
X1634583Y19371D01*
X1633836Y19759D01*
X1633099Y20165D01*
X1632371Y20588D01*
X1631655Y21030D01*
X1630949Y21489D01*
X1630256Y21965D01*
X1629573Y22458D01*
X1628904Y22968D01*
X1628247Y23493D01*
X1627603Y24035D01*
X1626972Y24593D01*
X1626356Y25166D01*
X1625753Y25753D01*
X1625166Y26356D01*
X1624593Y26972D01*
X1624035Y27603D01*
X1623493Y28247D01*
X1622968Y28904D01*
X1622458Y29573D01*
X1621965Y30256D01*
X1621489Y30949D01*
X1621030Y31655D01*
X1620588Y32371D01*
X1620165Y33099D01*
X1619759Y33836D01*
X1619371Y34583D01*
X1619002Y35339D01*
X1618652Y36104D01*
X1618320Y36878D01*
X1618008Y37659D01*
X1617714Y38448D01*
X1617441Y39244D01*
X1617187Y40046D01*
X1616952Y40854D01*
X1616738Y41668D01*
X1616543Y42487D01*
X1616369Y43310D01*
X1616215Y44138D01*
X1616081Y44969D01*
X1615968Y45803D01*
X1615875Y46639D01*
X1615803Y47477D01*
X1615751Y48317D01*
X1615720Y49158D01*
X1615710Y50000D01*
D13*
X1634000Y50000D02*
X1634005Y50393D01*
X1634019Y50785D01*
X1634043Y51177D01*
X1634077Y51568D01*
X1634120Y51959D01*
X1634173Y52348D01*
X1634236Y52735D01*
X1634307Y53121D01*
X1634389Y53506D01*
X1634479Y53888D01*
X1634580Y54267D01*
X1634689Y54645D01*
X1634808Y55019D01*
X1634935Y55390D01*
X1635072Y55758D01*
X1635218Y56123D01*
X1635373Y56484D01*
X1635536Y56841D01*
X1635708Y57194D01*
X1635889Y57542D01*
X1636079Y57886D01*
X1636276Y58226D01*
X1636482Y58560D01*
X1636696Y58889D01*
X1636919Y59213D01*
X1637149Y59531D01*
X1637386Y59844D01*
X1637632Y60150D01*
X1637885Y60451D01*
X1638145Y60745D01*
X1638412Y61033D01*
X1638686Y61314D01*
X1638967Y61588D01*
X1639255Y61855D01*
X1639549Y62115D01*
X1639850Y62368D01*
X1640156Y62614D01*
X1640469Y62851D01*
X1640787Y63081D01*
X1641111Y63304D01*
X1641440Y63518D01*
X1641774Y63724D01*
X1642114Y63921D01*
X1642458Y64111D01*
X1642806Y64292D01*
X1643159Y64464D01*
X1643516Y64627D01*
X1643877Y64782D01*
X1644242Y64928D01*
X1644610Y65065D01*
X1644981Y65192D01*
X1645355Y65311D01*
X1645733Y65420D01*
X1646112Y65521D01*
X1646494Y65611D01*
X1646879Y65693D01*
X1647265Y65764D01*
X1647652Y65827D01*
X1648041Y65880D01*
X1648432Y65923D01*
X1648823Y65957D01*
X1649215Y65981D01*
X1649607Y65995D01*
X1650000Y66000D01*
X1650393Y65995D01*
X1650785Y65981D01*
X1651177Y65957D01*
X1651568Y65923D01*
X1651959Y65880D01*
X1652348Y65827D01*
X1652735Y65764D01*
X1653121Y65693D01*
X1653506Y65611D01*
X1653888Y65521D01*
X1654267Y65420D01*
X1654645Y65311D01*
X1655019Y65192D01*
X1655390Y65065D01*
X1655758Y64928D01*
X1656123Y64782D01*
X1656484Y64627D01*
X1656841Y64464D01*
X1657194Y64292D01*
X1657542Y64111D01*
X1657886Y63921D01*
X1658226Y63724D01*
X1658560Y63518D01*
X1658889Y63304D01*
X1659213Y63081D01*
X1659531Y62851D01*
X1659844Y62614D01*
X1660150Y62368D01*
X1660451Y62115D01*
X1660745Y61855D01*
X1661033Y61588D01*
X1661314Y61314D01*
X1661588Y61033D01*
X1661855Y60745D01*
X1662115Y60451D01*
X1662368Y60150D01*
X1662614Y59844D01*
X1662851Y59531D01*
X1663081Y59213D01*
X1663304Y58889D01*
X1663518Y58560D01*
X1663724Y58226D01*
X1663921Y57886D01*
X1664111Y57542D01*
X1664292Y57194D01*
X1664464Y56841D01*
X1664627Y56484D01*
X1664782Y56123D01*
X1664928Y55758D01*
X1665065Y55390D01*
X1665192Y55019D01*
X1665311Y54645D01*
X1665420Y54267D01*
X1665521Y53888D01*
X1665611Y53506D01*
X1665693Y53121D01*
X1665764Y52735D01*
X1665827Y52348D01*
X1665880Y51959D01*
X1665923Y51568D01*
X1665957Y51177D01*
X1665981Y50785D01*
X1665995Y50393D01*
X1666000Y50000D01*
X1665995Y49607D01*
X1665981Y49215D01*
X1665957Y48823D01*
X1665923Y48432D01*
X1665880Y48041D01*
X1665827Y47652D01*
X1665764Y47265D01*
X1665693Y46879D01*
X1665611Y46494D01*
X1665521Y46112D01*
X1665420Y45733D01*
X1665311Y45355D01*
X1665192Y44981D01*
X1665065Y44610D01*
X1664928Y44242D01*
X1664782Y43877D01*
X1664627Y43516D01*
X1664464Y43159D01*
X1664292Y42806D01*
X1664111Y42458D01*
X1663921Y42114D01*
X1663724Y41774D01*
X1663518Y41440D01*
X1663304Y41111D01*
X1663081Y40787D01*
X1662851Y40469D01*
X1662614Y40156D01*
X1662368Y39850D01*
X1662115Y39549D01*
X1661855Y39255D01*
X1661588Y38967D01*
X1661314Y38686D01*
X1661033Y38412D01*
X1660745Y38145D01*
X1660451Y37885D01*
X1660150Y37632D01*
X1659844Y37386D01*
X1659531Y37149D01*
X1659213Y36919D01*
X1658889Y36696D01*
X1658560Y36482D01*
X1658226Y36276D01*
X1657886Y36079D01*
X1657542Y35889D01*
X1657194Y35708D01*
X1656841Y35536D01*
X1656484Y35373D01*
X1656123Y35218D01*
X1655758Y35072D01*
X1655390Y34935D01*
X1655019Y34808D01*
X1654645Y34689D01*
X1654267Y34580D01*
X1653888Y34479D01*
X1653506Y34389D01*
X1653121Y34307D01*
X1652735Y34236D01*
X1652348Y34173D01*
X1651959Y34120D01*
X1651568Y34077D01*
X1651177Y34043D01*
X1650785Y34019D01*
X1650393Y34005D01*
X1650000Y34000D01*
X1649607Y34005D01*
X1649215Y34019D01*
X1648823Y34043D01*
X1648432Y34077D01*
X1648041Y34120D01*
X1647652Y34173D01*
X1647265Y34236D01*
X1646879Y34307D01*
X1646494Y34389D01*
X1646112Y34479D01*
X1645733Y34580D01*
X1645355Y34689D01*
X1644981Y34808D01*
X1644610Y34935D01*
X1644242Y35072D01*
X1643877Y35218D01*
X1643516Y35373D01*
X1643159Y35536D01*
X1642806Y35708D01*
X1642458Y35889D01*
X1642114Y36079D01*
X1641774Y36276D01*
X1641440Y36482D01*
X1641111Y36696D01*
X1640787Y36919D01*
X1640469Y37149D01*
X1640156Y37386D01*
X1639850Y37632D01*
X1639549Y37885D01*
X1639255Y38145D01*
X1638967Y38412D01*
X1638686Y38686D01*
X1638412Y38967D01*
X1638145Y39255D01*
X1637885Y39549D01*
X1637632Y39850D01*
X1637386Y40156D01*
X1637149Y40469D01*
X1636919Y40787D01*
X1636696Y41111D01*
X1636482Y41440D01*
X1636276Y41774D01*
X1636079Y42114D01*
X1635889Y42458D01*
X1635708Y42806D01*
X1635536Y43159D01*
X1635373Y43516D01*
X1635218Y43877D01*
X1635072Y44242D01*
X1634935Y44610D01*
X1634808Y44981D01*
X1634689Y45355D01*
X1634580Y45733D01*
X1634479Y46112D01*
X1634389Y46494D01*
X1634307Y46879D01*
X1634236Y47265D01*
X1634173Y47652D01*
X1634120Y48041D01*
X1634077Y48432D01*
X1634043Y48823D01*
X1634019Y49215D01*
X1634005Y49607D01*
X1634000Y50000D01*
D11*
X1635000Y50000D02*
X1635005Y50368D01*
X1635018Y50736D01*
X1635041Y51103D01*
X1635072Y51470D01*
X1635113Y51836D01*
X1635162Y52201D01*
X1635221Y52564D01*
X1635288Y52926D01*
X1635364Y53287D01*
X1635450Y53645D01*
X1635543Y54001D01*
X1635646Y54354D01*
X1635757Y54705D01*
X1635877Y55053D01*
X1636005Y55398D01*
X1636142Y55740D01*
X1636287Y56079D01*
X1636440Y56413D01*
X1636602Y56744D01*
X1636771Y57071D01*
X1636949Y57393D01*
X1637134Y57712D01*
X1637327Y58025D01*
X1637528Y58334D01*
X1637736Y58637D01*
X1637952Y58935D01*
X1638175Y59228D01*
X1638405Y59516D01*
X1638642Y59798D01*
X1638886Y60073D01*
X1639136Y60343D01*
X1639393Y60607D01*
X1639657Y60864D01*
X1639927Y61114D01*
X1640202Y61358D01*
X1640484Y61595D01*
X1640772Y61825D01*
X1641065Y62048D01*
X1641363Y62264D01*
X1641666Y62472D01*
X1641975Y62673D01*
X1642288Y62866D01*
X1642607Y63051D01*
X1642929Y63229D01*
X1643256Y63398D01*
X1643587Y63560D01*
X1643921Y63713D01*
X1644260Y63858D01*
X1644602Y63995D01*
X1644947Y64123D01*
X1645295Y64243D01*
X1645646Y64354D01*
X1645999Y64457D01*
X1646355Y64550D01*
X1646713Y64636D01*
X1647074Y64712D01*
X1647436Y64779D01*
X1647799Y64838D01*
X1648164Y64887D01*
X1648530Y64928D01*
X1648897Y64959D01*
X1649264Y64982D01*
X1649632Y64995D01*
X1650000Y65000D01*
X1650368Y64995D01*
X1650736Y64982D01*
X1651103Y64959D01*
X1651470Y64928D01*
X1651836Y64887D01*
X1652201Y64838D01*
X1652564Y64779D01*
X1652926Y64712D01*
X1653287Y64636D01*
X1653645Y64550D01*
X1654001Y64457D01*
X1654354Y64354D01*
X1654705Y64243D01*
X1655053Y64123D01*
X1655398Y63995D01*
X1655740Y63858D01*
X1656079Y63713D01*
X1656413Y63560D01*
X1656744Y63398D01*
X1657071Y63229D01*
X1657393Y63051D01*
X1657712Y62866D01*
X1658025Y62673D01*
X1658334Y62472D01*
X1658637Y62264D01*
X1658935Y62048D01*
X1659228Y61825D01*
X1659516Y61595D01*
X1659798Y61358D01*
X1660073Y61114D01*
X1660343Y60864D01*
X1660607Y60607D01*
X1660864Y60343D01*
X1661114Y60073D01*
X1661358Y59798D01*
X1661595Y59516D01*
X1661825Y59228D01*
X1662048Y58935D01*
X1662264Y58637D01*
X1662472Y58334D01*
X1662673Y58025D01*
X1662866Y57712D01*
X1663051Y57393D01*
X1663229Y57071D01*
X1663398Y56744D01*
X1663560Y56413D01*
X1663713Y56079D01*
X1663858Y55740D01*
X1663995Y55398D01*
X1664123Y55053D01*
X1664243Y54705D01*
X1664354Y54354D01*
X1664457Y54001D01*
X1664550Y53645D01*
X1664636Y53287D01*
X1664712Y52926D01*
X1664779Y52564D01*
X1664838Y52201D01*
X1664887Y51836D01*
X1664928Y51470D01*
X1664959Y51103D01*
X1664982Y50736D01*
X1664995Y50368D01*
X1665000Y50000D01*
X1664995Y49632D01*
X1664982Y49264D01*
X1664959Y48897D01*
X1664928Y48530D01*
X1664887Y48164D01*
X1664838Y47799D01*
X1664779Y47436D01*
X1664712Y47074D01*
X1664636Y46713D01*
X1664550Y46355D01*
X1664457Y45999D01*
X1664354Y45646D01*
X1664243Y45295D01*
X1664123Y44947D01*
X1663995Y44602D01*
X1663858Y44260D01*
X1663713Y43921D01*
X1663560Y43587D01*
X1663398Y43256D01*
X1663229Y42929D01*
X1663051Y42607D01*
X1662866Y42288D01*
X1662673Y41975D01*
X1662472Y41666D01*
X1662264Y41363D01*
X1662048Y41065D01*
X1661825Y40772D01*
X1661595Y40484D01*
X1661358Y40202D01*
X1661114Y39927D01*
X1660864Y39657D01*
X1660607Y39393D01*
X1660343Y39136D01*
X1660073Y38886D01*
X1659798Y38642D01*
X1659516Y38405D01*
X1659228Y38175D01*
X1658935Y37952D01*
X1658637Y37736D01*
X1658334Y37528D01*
X1658025Y37327D01*
X1657712Y37134D01*
X1657393Y36949D01*
X1657071Y36771D01*
X1656744Y36602D01*
X1656413Y36440D01*
X1656079Y36287D01*
X1655740Y36142D01*
X1655398Y36005D01*
X1655053Y35877D01*
X1654705Y35757D01*
X1654354Y35646D01*
X1654001Y35543D01*
X1653645Y35450D01*
X1653287Y35364D01*
X1652926Y35288D01*
X1652564Y35221D01*
X1652201Y35162D01*
X1651836Y35113D01*
X1651470Y35072D01*
X1651103Y35041D01*
X1650736Y35018D01*
X1650368Y35005D01*
X1650000Y35000D01*
X1649632Y35005D01*
X1649264Y35018D01*
X1648897Y35041D01*
X1648530Y35072D01*
X1648164Y35113D01*
X1647799Y35162D01*
X1647436Y35221D01*
X1647074Y35288D01*
X1646713Y35364D01*
X1646355Y35450D01*
X1645999Y35543D01*
X1645646Y35646D01*
X1645295Y35757D01*
X1644947Y35877D01*
X1644602Y36005D01*
X1644260Y36142D01*
X1643921Y36287D01*
X1643587Y36440D01*
X1643256Y36602D01*
X1642929Y36771D01*
X1642607Y36949D01*
X1642288Y37134D01*
X1641975Y37327D01*
X1641666Y37528D01*
X1641363Y37736D01*
X1641065Y37952D01*
X1640772Y38175D01*
X1640484Y38405D01*
X1640202Y38642D01*
X1639927Y38886D01*
X1639657Y39136D01*
X1639393Y39393D01*
X1639136Y39657D01*
X1638886Y39927D01*
X1638642Y40202D01*
X1638405Y40484D01*
X1638175Y40772D01*
X1637952Y41065D01*
X1637736Y41363D01*
X1637528Y41666D01*
X1637327Y41975D01*
X1637134Y42288D01*
X1636949Y42607D01*
X1636771Y42929D01*
X1636602Y43256D01*
X1636440Y43587D01*
X1636287Y43921D01*
X1636142Y44260D01*
X1636005Y44602D01*
X1635877Y44947D01*
X1635757Y45295D01*
X1635646Y45646D01*
X1635543Y45999D01*
X1635450Y46355D01*
X1635364Y46713D01*
X1635288Y47074D01*
X1635221Y47436D01*
X1635162Y47799D01*
X1635113Y48164D01*
X1635072Y48530D01*
X1635041Y48897D01*
X1635018Y49264D01*
X1635005Y49632D01*
X1635000Y50000D01*
D10*
X65710Y50000D02*
X65720Y50842D01*
X65751Y51683D01*
X65803Y52523D01*
X65875Y53361D01*
X65968Y54197D01*
X66081Y55031D01*
X66215Y55862D01*
X66369Y56690D01*
X66543Y57513D01*
X66738Y58332D01*
X66952Y59146D01*
X67187Y59954D01*
X67441Y60756D01*
X67714Y61552D01*
X68008Y62341D01*
X68320Y63122D01*
X68652Y63896D01*
X69002Y64661D01*
X69371Y65417D01*
X69759Y66164D01*
X70165Y66901D01*
X70588Y67629D01*
X71030Y68345D01*
X71489Y69051D01*
X71965Y69744D01*
X72458Y70427D01*
X72968Y71096D01*
X73493Y71753D01*
X74035Y72397D01*
X74593Y73028D01*
X75166Y73644D01*
X75753Y74247D01*
X76356Y74834D01*
X76972Y75407D01*
X77603Y75965D01*
X78247Y76507D01*
X78904Y77032D01*
X79573Y77542D01*
X80256Y78035D01*
X80949Y78511D01*
X81655Y78970D01*
X82371Y79412D01*
X83099Y79835D01*
X83836Y80241D01*
X84583Y80629D01*
X85339Y80998D01*
X86104Y81348D01*
X86878Y81680D01*
X87659Y81992D01*
X88448Y82286D01*
X89244Y82559D01*
X90046Y82813D01*
X90854Y83048D01*
X91668Y83262D01*
X92487Y83457D01*
X93310Y83631D01*
X94138Y83785D01*
X94969Y83919D01*
X95803Y84032D01*
X96639Y84125D01*
X97477Y84197D01*
X98317Y84249D01*
X99158Y84280D01*
X100000Y84290D01*
X100842Y84280D01*
X101683Y84249D01*
X102523Y84197D01*
X103361Y84125D01*
X104197Y84032D01*
X105031Y83919D01*
X105862Y83785D01*
X106690Y83631D01*
X107513Y83457D01*
X108332Y83262D01*
X109146Y83048D01*
X109954Y82813D01*
X110756Y82559D01*
X111552Y82286D01*
X112341Y81992D01*
X113122Y81680D01*
X113896Y81348D01*
X114661Y80998D01*
X115417Y80629D01*
X116164Y80241D01*
X116901Y79835D01*
X117629Y79412D01*
X118345Y78970D01*
X119051Y78511D01*
X119744Y78035D01*
X120427Y77542D01*
X121096Y77032D01*
X121753Y76507D01*
X122397Y75965D01*
X123028Y75407D01*
X123644Y74834D01*
X124247Y74247D01*
X124834Y73644D01*
X125407Y73028D01*
X125965Y72397D01*
X126507Y71753D01*
X127032Y71096D01*
X127542Y70427D01*
X128035Y69744D01*
X128511Y69051D01*
X128970Y68345D01*
X129412Y67629D01*
X129835Y66901D01*
X130241Y66164D01*
X130629Y65417D01*
X130998Y64661D01*
X131348Y63896D01*
X131680Y63122D01*
X131992Y62341D01*
X132286Y61552D01*
X132559Y60756D01*
X132813Y59954D01*
X133048Y59146D01*
X133262Y58332D01*
X133457Y57513D01*
X133631Y56690D01*
X133785Y55862D01*
X133919Y55031D01*
X134032Y54197D01*
X134125Y53361D01*
X134197Y52523D01*
X134249Y51683D01*
X134280Y50842D01*
X134290Y50000D01*
X134280Y49158D01*
X134249Y48317D01*
X134197Y47477D01*
X134125Y46639D01*
X134032Y45803D01*
X133919Y44969D01*
X133785Y44138D01*
X133631Y43310D01*
X133457Y42487D01*
X133262Y41668D01*
X133048Y40854D01*
X132813Y40046D01*
X132559Y39244D01*
X132286Y38448D01*
X131992Y37659D01*
X131680Y36878D01*
X131348Y36104D01*
X130998Y35339D01*
X130629Y34583D01*
X130241Y33836D01*
X129835Y33099D01*
X129412Y32371D01*
X128970Y31655D01*
X128511Y30949D01*
X128035Y30256D01*
X127542Y29573D01*
X127032Y28904D01*
X126507Y28247D01*
X125965Y27603D01*
X125407Y26972D01*
X124834Y26356D01*
X124247Y25753D01*
X123644Y25166D01*
X123028Y24593D01*
X122397Y24035D01*
X121753Y23493D01*
X121096Y22968D01*
X120427Y22458D01*
X119744Y21965D01*
X119051Y21489D01*
X118345Y21030D01*
X117629Y20588D01*
X116901Y20165D01*
X116164Y19759D01*
X115417Y19371D01*
X114661Y19002D01*
X113896Y18652D01*
X113122Y18320D01*
X112341Y18008D01*
X111552Y17714D01*
X110756Y17441D01*
X109954Y17187D01*
X109146Y16952D01*
X108332Y16738D01*
X107513Y16543D01*
X106690Y16369D01*
X105862Y16215D01*
X105031Y16081D01*
X104197Y15968D01*
X103361Y15875D01*
X102523Y15803D01*
X101683Y15751D01*
X100842Y15720D01*
X100000Y15710D01*
X99158Y15720D01*
X98317Y15751D01*
X97477Y15803D01*
X96639Y15875D01*
X95803Y15968D01*
X94969Y16081D01*
X94138Y16215D01*
X93310Y16369D01*
X92487Y16543D01*
X91668Y16738D01*
X90854Y16952D01*
X90046Y17187D01*
X89244Y17441D01*
X88448Y17714D01*
X87659Y18008D01*
X86878Y18320D01*
X86104Y18652D01*
X85339Y19002D01*
X84583Y19371D01*
X83836Y19759D01*
X83099Y20165D01*
X82371Y20588D01*
X81655Y21030D01*
X80949Y21489D01*
X80256Y21965D01*
X79573Y22458D01*
X78904Y22968D01*
X78247Y23493D01*
X77603Y24035D01*
X76972Y24593D01*
X76356Y25166D01*
X75753Y25753D01*
X75166Y26356D01*
X74593Y26972D01*
X74035Y27603D01*
X73493Y28247D01*
X72968Y28904D01*
X72458Y29573D01*
X71965Y30256D01*
X71489Y30949D01*
X71030Y31655D01*
X70588Y32371D01*
X70165Y33099D01*
X69759Y33836D01*
X69371Y34583D01*
X69002Y35339D01*
X68652Y36104D01*
X68320Y36878D01*
X68008Y37659D01*
X67714Y38448D01*
X67441Y39244D01*
X67187Y40046D01*
X66952Y40854D01*
X66738Y41668D01*
X66543Y42487D01*
X66369Y43310D01*
X66215Y44138D01*
X66081Y44969D01*
X65968Y45803D01*
X65875Y46639D01*
X65803Y47477D01*
X65751Y48317D01*
X65720Y49158D01*
X65710Y50000D01*
D13*
X84000Y50000D02*
X84005Y50393D01*
X84019Y50785D01*
X84043Y51177D01*
X84077Y51568D01*
X84120Y51959D01*
X84173Y52348D01*
X84236Y52735D01*
X84307Y53121D01*
X84389Y53506D01*
X84479Y53888D01*
X84580Y54267D01*
X84689Y54645D01*
X84808Y55019D01*
X84935Y55390D01*
X85072Y55758D01*
X85218Y56123D01*
X85373Y56484D01*
X85536Y56841D01*
X85708Y57194D01*
X85889Y57542D01*
X86079Y57886D01*
X86276Y58226D01*
X86482Y58560D01*
X86696Y58889D01*
X86919Y59213D01*
X87149Y59531D01*
X87386Y59844D01*
X87632Y60150D01*
X87885Y60451D01*
X88145Y60745D01*
X88412Y61033D01*
X88686Y61314D01*
X88967Y61588D01*
X89255Y61855D01*
X89549Y62115D01*
X89850Y62368D01*
X90156Y62614D01*
X90469Y62851D01*
X90787Y63081D01*
X91111Y63304D01*
X91440Y63518D01*
X91774Y63724D01*
X92114Y63921D01*
X92458Y64111D01*
X92806Y64292D01*
X93159Y64464D01*
X93516Y64627D01*
X93877Y64782D01*
X94242Y64928D01*
X94610Y65065D01*
X94981Y65192D01*
X95355Y65311D01*
X95733Y65420D01*
X96112Y65521D01*
X96494Y65611D01*
X96879Y65693D01*
X97265Y65764D01*
X97652Y65827D01*
X98041Y65880D01*
X98432Y65923D01*
X98823Y65957D01*
X99215Y65981D01*
X99607Y65995D01*
X100000Y66000D01*
X100393Y65995D01*
X100785Y65981D01*
X101177Y65957D01*
X101568Y65923D01*
X101959Y65880D01*
X102348Y65827D01*
X102735Y65764D01*
X103121Y65693D01*
X103506Y65611D01*
X103888Y65521D01*
X104267Y65420D01*
X104645Y65311D01*
X105019Y65192D01*
X105390Y65065D01*
X105758Y64928D01*
X106123Y64782D01*
X106484Y64627D01*
X106841Y64464D01*
X107194Y64292D01*
X107542Y64111D01*
X107886Y63921D01*
X108226Y63724D01*
X108560Y63518D01*
X108889Y63304D01*
X109213Y63081D01*
X109531Y62851D01*
X109844Y62614D01*
X110150Y62368D01*
X110451Y62115D01*
X110745Y61855D01*
X111033Y61588D01*
X111314Y61314D01*
X111588Y61033D01*
X111855Y60745D01*
X112115Y60451D01*
X112368Y60150D01*
X112614Y59844D01*
X112851Y59531D01*
X113081Y59213D01*
X113304Y58889D01*
X113518Y58560D01*
X113724Y58226D01*
X113921Y57886D01*
X114111Y57542D01*
X114292Y57194D01*
X114464Y56841D01*
X114627Y56484D01*
X114782Y56123D01*
X114928Y55758D01*
X115065Y55390D01*
X115192Y55019D01*
X115311Y54645D01*
X115420Y54267D01*
X115521Y53888D01*
X115611Y53506D01*
X115693Y53121D01*
X115764Y52735D01*
X115827Y52348D01*
X115880Y51959D01*
X115923Y51568D01*
X115957Y51177D01*
X115981Y50785D01*
X115995Y50393D01*
X116000Y50000D01*
X115995Y49607D01*
X115981Y49215D01*
X115957Y48823D01*
X115923Y48432D01*
X115880Y48041D01*
X115827Y47652D01*
X115764Y47265D01*
X115693Y46879D01*
X115611Y46494D01*
X115521Y46112D01*
X115420Y45733D01*
X115311Y45355D01*
X115192Y44981D01*
X115065Y44610D01*
X114928Y44242D01*
X114782Y43877D01*
X114627Y43516D01*
X114464Y43159D01*
X114292Y42806D01*
X114111Y42458D01*
X113921Y42114D01*
X113724Y41774D01*
X113518Y41440D01*
X113304Y41111D01*
X113081Y40787D01*
X112851Y40469D01*
X112614Y40156D01*
X112368Y39850D01*
X112115Y39549D01*
X111855Y39255D01*
X111588Y38967D01*
X111314Y38686D01*
X111033Y38412D01*
X110745Y38145D01*
X110451Y37885D01*
X110150Y37632D01*
X109844Y37386D01*
X109531Y37149D01*
X109213Y36919D01*
X108889Y36696D01*
X108560Y36482D01*
X108226Y36276D01*
X107886Y36079D01*
X107542Y35889D01*
X107194Y35708D01*
X106841Y35536D01*
X106484Y35373D01*
X106123Y35218D01*
X105758Y35072D01*
X105390Y34935D01*
X105019Y34808D01*
X104645Y34689D01*
X104267Y34580D01*
X103888Y34479D01*
X103506Y34389D01*
X103121Y34307D01*
X102735Y34236D01*
X102348Y34173D01*
X101959Y34120D01*
X101568Y34077D01*
X101177Y34043D01*
X100785Y34019D01*
X100393Y34005D01*
X100000Y34000D01*
X99607Y34005D01*
X99215Y34019D01*
X98823Y34043D01*
X98432Y34077D01*
X98041Y34120D01*
X97652Y34173D01*
X97265Y34236D01*
X96879Y34307D01*
X96494Y34389D01*
X96112Y34479D01*
X95733Y34580D01*
X95355Y34689D01*
X94981Y34808D01*
X94610Y34935D01*
X94242Y35072D01*
X93877Y35218D01*
X93516Y35373D01*
X93159Y35536D01*
X92806Y35708D01*
X92458Y35889D01*
X92114Y36079D01*
X91774Y36276D01*
X91440Y36482D01*
X91111Y36696D01*
X90787Y36919D01*
X90469Y37149D01*
X90156Y37386D01*
X89850Y37632D01*
X89549Y37885D01*
X89255Y38145D01*
X88967Y38412D01*
X88686Y38686D01*
X88412Y38967D01*
X88145Y39255D01*
X87885Y39549D01*
X87632Y39850D01*
X87386Y40156D01*
X87149Y40469D01*
X86919Y40787D01*
X86696Y41111D01*
X86482Y41440D01*
X86276Y41774D01*
X86079Y42114D01*
X85889Y42458D01*
X85708Y42806D01*
X85536Y43159D01*
X85373Y43516D01*
X85218Y43877D01*
X85072Y44242D01*
X84935Y44610D01*
X84808Y44981D01*
X84689Y45355D01*
X84580Y45733D01*
X84479Y46112D01*
X84389Y46494D01*
X84307Y46879D01*
X84236Y47265D01*
X84173Y47652D01*
X84120Y48041D01*
X84077Y48432D01*
X84043Y48823D01*
X84019Y49215D01*
X84005Y49607D01*
X84000Y50000D01*
D11*
X85000Y50000D02*
X85005Y50368D01*
X85018Y50736D01*
X85041Y51103D01*
X85072Y51470D01*
X85113Y51836D01*
X85162Y52201D01*
X85221Y52564D01*
X85288Y52926D01*
X85364Y53287D01*
X85450Y53645D01*
X85543Y54001D01*
X85646Y54354D01*
X85757Y54705D01*
X85877Y55053D01*
X86005Y55398D01*
X86142Y55740D01*
X86287Y56079D01*
X86440Y56413D01*
X86602Y56744D01*
X86771Y57071D01*
X86949Y57393D01*
X87134Y57712D01*
X87327Y58025D01*
X87528Y58334D01*
X87736Y58637D01*
X87952Y58935D01*
X88175Y59228D01*
X88405Y59516D01*
X88642Y59798D01*
X88886Y60073D01*
X89136Y60343D01*
X89393Y60607D01*
X89657Y60864D01*
X89927Y61114D01*
X90202Y61358D01*
X90484Y61595D01*
X90772Y61825D01*
X91065Y62048D01*
X91363Y62264D01*
X91666Y62472D01*
X91975Y62673D01*
X92288Y62866D01*
X92607Y63051D01*
X92929Y63229D01*
X93256Y63398D01*
X93587Y63560D01*
X93921Y63713D01*
X94260Y63858D01*
X94602Y63995D01*
X94947Y64123D01*
X95295Y64243D01*
X95646Y64354D01*
X95999Y64457D01*
X96355Y64550D01*
X96713Y64636D01*
X97074Y64712D01*
X97436Y64779D01*
X97799Y64838D01*
X98164Y64887D01*
X98530Y64928D01*
X98897Y64959D01*
X99264Y64982D01*
X99632Y64995D01*
X100000Y65000D01*
X100368Y64995D01*
X100736Y64982D01*
X101103Y64959D01*
X101470Y64928D01*
X101836Y64887D01*
X102201Y64838D01*
X102564Y64779D01*
X102926Y64712D01*
X103287Y64636D01*
X103645Y64550D01*
X104001Y64457D01*
X104354Y64354D01*
X104705Y64243D01*
X105053Y64123D01*
X105398Y63995D01*
X105740Y63858D01*
X106079Y63713D01*
X106413Y63560D01*
X106744Y63398D01*
X107071Y63229D01*
X107393Y63051D01*
X107712Y62866D01*
X108025Y62673D01*
X108334Y62472D01*
X108637Y62264D01*
X108935Y62048D01*
X109228Y61825D01*
X109516Y61595D01*
X109798Y61358D01*
X110073Y61114D01*
X110343Y60864D01*
X110607Y60607D01*
X110864Y60343D01*
X111114Y60073D01*
X111358Y59798D01*
X111595Y59516D01*
X111825Y59228D01*
X112048Y58935D01*
X112264Y58637D01*
X112472Y58334D01*
X112673Y58025D01*
X112866Y57712D01*
X113051Y57393D01*
X113229Y57071D01*
X113398Y56744D01*
X113560Y56413D01*
X113713Y56079D01*
X113858Y55740D01*
X113995Y55398D01*
X114123Y55053D01*
X114243Y54705D01*
X114354Y54354D01*
X114457Y54001D01*
X114550Y53645D01*
X114636Y53287D01*
X114712Y52926D01*
X114779Y52564D01*
X114838Y52201D01*
X114887Y51836D01*
X114928Y51470D01*
X114959Y51103D01*
X114982Y50736D01*
X114995Y50368D01*
X115000Y50000D01*
X114995Y49632D01*
X114982Y49264D01*
X114959Y48897D01*
X114928Y48530D01*
X114887Y48164D01*
X114838Y47799D01*
X114779Y47436D01*
X114712Y47074D01*
X114636Y46713D01*
X114550Y46355D01*
X114457Y45999D01*
X114354Y45646D01*
X114243Y45295D01*
X114123Y44947D01*
X113995Y44602D01*
X113858Y44260D01*
X113713Y43921D01*
X113560Y43587D01*
X113398Y43256D01*
X113229Y42929D01*
X113051Y42607D01*
X112866Y42288D01*
X112673Y41975D01*
X112472Y41666D01*
X112264Y41363D01*
X112048Y41065D01*
X111825Y40772D01*
X111595Y40484D01*
X111358Y40202D01*
X111114Y39927D01*
X110864Y39657D01*
X110607Y39393D01*
X110343Y39136D01*
X110073Y38886D01*
X109798Y38642D01*
X109516Y38405D01*
X109228Y38175D01*
X108935Y37952D01*
X108637Y37736D01*
X108334Y37528D01*
X108025Y37327D01*
X107712Y37134D01*
X107393Y36949D01*
X107071Y36771D01*
X106744Y36602D01*
X106413Y36440D01*
X106079Y36287D01*
X105740Y36142D01*
X105398Y36005D01*
X105053Y35877D01*
X104705Y35757D01*
X104354Y35646D01*
X104001Y35543D01*
X103645Y35450D01*
X103287Y35364D01*
X102926Y35288D01*
X102564Y35221D01*
X102201Y35162D01*
X101836Y35113D01*
X101470Y35072D01*
X101103Y35041D01*
X100736Y35018D01*
X100368Y35005D01*
X100000Y35000D01*
X99632Y35005D01*
X99264Y35018D01*
X98897Y35041D01*
X98530Y35072D01*
X98164Y35113D01*
X97799Y35162D01*
X97436Y35221D01*
X97074Y35288D01*
X96713Y35364D01*
X96355Y35450D01*
X95999Y35543D01*
X95646Y35646D01*
X95295Y35757D01*
X94947Y35877D01*
X94602Y36005D01*
X94260Y36142D01*
X93921Y36287D01*
X93587Y36440D01*
X93256Y36602D01*
X92929Y36771D01*
X92607Y36949D01*
X92288Y37134D01*
X91975Y37327D01*
X91666Y37528D01*
X91363Y37736D01*
X91065Y37952D01*
X90772Y38175D01*
X90484Y38405D01*
X90202Y38642D01*
X89927Y38886D01*
X89657Y39136D01*
X89393Y39393D01*
X89136Y39657D01*
X88886Y39927D01*
X88642Y40202D01*
X88405Y40484D01*
X88175Y40772D01*
X87952Y41065D01*
X87736Y41363D01*
X87528Y41666D01*
X87327Y41975D01*
X87134Y42288D01*
X86949Y42607D01*
X86771Y42929D01*
X86602Y43256D01*
X86440Y43587D01*
X86287Y43921D01*
X86142Y44260D01*
X86005Y44602D01*
X85877Y44947D01*
X85757Y45295D01*
X85646Y45646D01*
X85543Y45999D01*
X85450Y46355D01*
X85364Y46713D01*
X85288Y47074D01*
X85221Y47436D01*
X85162Y47799D01*
X85113Y48164D01*
X85072Y48530D01*
X85041Y48897D01*
X85018Y49264D01*
X85005Y49632D01*
X85000Y50000D01*
D10*
X65710Y450000D02*
X65720Y450842D01*
X65751Y451683D01*
X65803Y452523D01*
X65875Y453361D01*
X65968Y454197D01*
X66081Y455031D01*
X66215Y455862D01*
X66369Y456690D01*
X66543Y457513D01*
X66738Y458332D01*
X66952Y459146D01*
X67187Y459954D01*
X67441Y460756D01*
X67714Y461552D01*
X68008Y462341D01*
X68320Y463122D01*
X68652Y463896D01*
X69002Y464661D01*
X69371Y465417D01*
X69759Y466164D01*
X70165Y466901D01*
X70588Y467629D01*
X71030Y468345D01*
X71489Y469051D01*
X71965Y469744D01*
X72458Y470427D01*
X72968Y471096D01*
X73493Y471753D01*
X74035Y472397D01*
X74593Y473028D01*
X75166Y473644D01*
X75753Y474247D01*
X76356Y474834D01*
X76972Y475407D01*
X77603Y475965D01*
X78247Y476507D01*
X78904Y477032D01*
X79573Y477542D01*
X80256Y478035D01*
X80949Y478511D01*
X81655Y478970D01*
X82371Y479412D01*
X83099Y479835D01*
X83836Y480241D01*
X84583Y480629D01*
X85339Y480998D01*
X86104Y481348D01*
X86878Y481680D01*
X87659Y481992D01*
X88448Y482286D01*
X89244Y482559D01*
X90046Y482813D01*
X90854Y483048D01*
X91668Y483262D01*
X92487Y483457D01*
X93310Y483631D01*
X94138Y483785D01*
X94969Y483919D01*
X95803Y484032D01*
X96639Y484125D01*
X97477Y484197D01*
X98317Y484249D01*
X99158Y484280D01*
X100000Y484290D01*
X100842Y484280D01*
X101683Y484249D01*
X102523Y484197D01*
X103361Y484125D01*
X104197Y484032D01*
X105031Y483919D01*
X105862Y483785D01*
X106690Y483631D01*
X107513Y483457D01*
X108332Y483262D01*
X109146Y483048D01*
X109954Y482813D01*
X110756Y482559D01*
X111552Y482286D01*
X112341Y481992D01*
X113122Y481680D01*
X113896Y481348D01*
X114661Y480998D01*
X115417Y480629D01*
X116164Y480241D01*
X116901Y479835D01*
X117629Y479412D01*
X118345Y478970D01*
X119051Y478511D01*
X119744Y478035D01*
X120427Y477542D01*
X121096Y477032D01*
X121753Y476507D01*
X122397Y475965D01*
X123028Y475407D01*
X123644Y474834D01*
X124247Y474247D01*
X124834Y473644D01*
X125407Y473028D01*
X125965Y472397D01*
X126507Y471753D01*
X127032Y471096D01*
X127542Y470427D01*
X128035Y469744D01*
X128511Y469051D01*
X128970Y468345D01*
X129412Y467629D01*
X129835Y466901D01*
X130241Y466164D01*
X130629Y465417D01*
X130998Y464661D01*
X131348Y463896D01*
X131680Y463122D01*
X131992Y462341D01*
X132286Y461552D01*
X132559Y460756D01*
X132813Y459954D01*
X133048Y459146D01*
X133262Y458332D01*
X133457Y457513D01*
X133631Y456690D01*
X133785Y455862D01*
X133919Y455031D01*
X134032Y454197D01*
X134125Y453361D01*
X134197Y452523D01*
X134249Y451683D01*
X134280Y450842D01*
X134290Y450000D01*
X134280Y449158D01*
X134249Y448317D01*
X134197Y447477D01*
X134125Y446639D01*
X134032Y445803D01*
X133919Y444969D01*
X133785Y444138D01*
X133631Y443310D01*
X133457Y442487D01*
X133262Y441668D01*
X133048Y440854D01*
X132813Y440046D01*
X132559Y439244D01*
X132286Y438448D01*
X131992Y437659D01*
X131680Y436878D01*
X131348Y436104D01*
X130998Y435339D01*
X130629Y434583D01*
X130241Y433836D01*
X129835Y433099D01*
X129412Y432371D01*
X128970Y431655D01*
X128511Y430949D01*
X128035Y430256D01*
X127542Y429573D01*
X127032Y428904D01*
X126507Y428247D01*
X125965Y427603D01*
X125407Y426972D01*
X124834Y426356D01*
X124247Y425753D01*
X123644Y425166D01*
X123028Y424593D01*
X122397Y424035D01*
X121753Y423493D01*
X121096Y422968D01*
X120427Y422458D01*
X119744Y421965D01*
X119051Y421489D01*
X118345Y421030D01*
X117629Y420588D01*
X116901Y420165D01*
X116164Y419759D01*
X115417Y419371D01*
X114661Y419002D01*
X113896Y418652D01*
X113122Y418320D01*
X112341Y418008D01*
X111552Y417714D01*
X110756Y417441D01*
X109954Y417187D01*
X109146Y416952D01*
X108332Y416738D01*
X107513Y416543D01*
X106690Y416369D01*
X105862Y416215D01*
X105031Y416081D01*
X104197Y415968D01*
X103361Y415875D01*
X102523Y415803D01*
X101683Y415751D01*
X100842Y415720D01*
X100000Y415710D01*
X99158Y415720D01*
X98317Y415751D01*
X97477Y415803D01*
X96639Y415875D01*
X95803Y415968D01*
X94969Y416081D01*
X94138Y416215D01*
X93310Y416369D01*
X92487Y416543D01*
X91668Y416738D01*
X90854Y416952D01*
X90046Y417187D01*
X89244Y417441D01*
X88448Y417714D01*
X87659Y418008D01*
X86878Y418320D01*
X86104Y418652D01*
X85339Y419002D01*
X84583Y419371D01*
X83836Y419759D01*
X83099Y420165D01*
X82371Y420588D01*
X81655Y421030D01*
X80949Y421489D01*
X80256Y421965D01*
X79573Y422458D01*
X78904Y422968D01*
X78247Y423493D01*
X77603Y424035D01*
X76972Y424593D01*
X76356Y425166D01*
X75753Y425753D01*
X75166Y426356D01*
X74593Y426972D01*
X74035Y427603D01*
X73493Y428247D01*
X72968Y428904D01*
X72458Y429573D01*
X71965Y430256D01*
X71489Y430949D01*
X71030Y431655D01*
X70588Y432371D01*
X70165Y433099D01*
X69759Y433836D01*
X69371Y434583D01*
X69002Y435339D01*
X68652Y436104D01*
X68320Y436878D01*
X68008Y437659D01*
X67714Y438448D01*
X67441Y439244D01*
X67187Y440046D01*
X66952Y440854D01*
X66738Y441668D01*
X66543Y442487D01*
X66369Y443310D01*
X66215Y444138D01*
X66081Y444969D01*
X65968Y445803D01*
X65875Y446639D01*
X65803Y447477D01*
X65751Y448317D01*
X65720Y449158D01*
X65710Y450000D01*
D13*
X84000Y450000D02*
X84005Y450393D01*
X84019Y450785D01*
X84043Y451177D01*
X84077Y451568D01*
X84120Y451959D01*
X84173Y452348D01*
X84236Y452735D01*
X84307Y453121D01*
X84389Y453506D01*
X84479Y453888D01*
X84580Y454267D01*
X84689Y454645D01*
X84808Y455019D01*
X84935Y455390D01*
X85072Y455758D01*
X85218Y456123D01*
X85373Y456484D01*
X85536Y456841D01*
X85708Y457194D01*
X85889Y457542D01*
X86079Y457886D01*
X86276Y458226D01*
X86482Y458560D01*
X86696Y458889D01*
X86919Y459213D01*
X87149Y459531D01*
X87386Y459844D01*
X87632Y460150D01*
X87885Y460451D01*
X88145Y460745D01*
X88412Y461033D01*
X88686Y461314D01*
X88967Y461588D01*
X89255Y461855D01*
X89549Y462115D01*
X89850Y462368D01*
X90156Y462614D01*
X90469Y462851D01*
X90787Y463081D01*
X91111Y463304D01*
X91440Y463518D01*
X91774Y463724D01*
X92114Y463921D01*
X92458Y464111D01*
X92806Y464292D01*
X93159Y464464D01*
X93516Y464627D01*
X93877Y464782D01*
X94242Y464928D01*
X94610Y465065D01*
X94981Y465192D01*
X95355Y465311D01*
X95733Y465420D01*
X96112Y465521D01*
X96494Y465611D01*
X96879Y465693D01*
X97265Y465764D01*
X97652Y465827D01*
X98041Y465880D01*
X98432Y465923D01*
X98823Y465957D01*
X99215Y465981D01*
X99607Y465995D01*
X100000Y466000D01*
X100393Y465995D01*
X100785Y465981D01*
X101177Y465957D01*
X101568Y465923D01*
X101959Y465880D01*
X102348Y465827D01*
X102735Y465764D01*
X103121Y465693D01*
X103506Y465611D01*
X103888Y465521D01*
X104267Y465420D01*
X104645Y465311D01*
X105019Y465192D01*
X105390Y465065D01*
X105758Y464928D01*
X106123Y464782D01*
X106484Y464627D01*
X106841Y464464D01*
X107194Y464292D01*
X107542Y464111D01*
X107886Y463921D01*
X108226Y463724D01*
X108560Y463518D01*
X108889Y463304D01*
X109213Y463081D01*
X109531Y462851D01*
X109844Y462614D01*
X110150Y462368D01*
X110451Y462115D01*
X110745Y461855D01*
X111033Y461588D01*
X111314Y461314D01*
X111588Y461033D01*
X111855Y460745D01*
X112115Y460451D01*
X112368Y460150D01*
X112614Y459844D01*
X112851Y459531D01*
X113081Y459213D01*
X113304Y458889D01*
X113518Y458560D01*
X113724Y458226D01*
X113921Y457886D01*
X114111Y457542D01*
X114292Y457194D01*
X114464Y456841D01*
X114627Y456484D01*
X114782Y456123D01*
X114928Y455758D01*
X115065Y455390D01*
X115192Y455019D01*
X115311Y454645D01*
X115420Y454267D01*
X115521Y453888D01*
X115611Y453506D01*
X115693Y453121D01*
X115764Y452735D01*
X115827Y452348D01*
X115880Y451959D01*
X115923Y451568D01*
X115957Y451177D01*
X115981Y450785D01*
X115995Y450393D01*
X116000Y450000D01*
X115995Y449607D01*
X115981Y449215D01*
X115957Y448823D01*
X115923Y448432D01*
X115880Y448041D01*
X115827Y447652D01*
X115764Y447265D01*
X115693Y446879D01*
X115611Y446494D01*
X115521Y446112D01*
X115420Y445733D01*
X115311Y445355D01*
X115192Y444981D01*
X115065Y444610D01*
X114928Y444242D01*
X114782Y443877D01*
X114627Y443516D01*
X114464Y443159D01*
X114292Y442806D01*
X114111Y442458D01*
X113921Y442114D01*
X113724Y441774D01*
X113518Y441440D01*
X113304Y441111D01*
X113081Y440787D01*
X112851Y440469D01*
X112614Y440156D01*
X112368Y439850D01*
X112115Y439549D01*
X111855Y439255D01*
X111588Y438967D01*
X111314Y438686D01*
X111033Y438412D01*
X110745Y438145D01*
X110451Y437885D01*
X110150Y437632D01*
X109844Y437386D01*
X109531Y437149D01*
X109213Y436919D01*
X108889Y436696D01*
X108560Y436482D01*
X108226Y436276D01*
X107886Y436079D01*
X107542Y435889D01*
X107194Y435708D01*
X106841Y435536D01*
X106484Y435373D01*
X106123Y435218D01*
X105758Y435072D01*
X105390Y434935D01*
X105019Y434808D01*
X104645Y434689D01*
X104267Y434580D01*
X103888Y434479D01*
X103506Y434389D01*
X103121Y434307D01*
X102735Y434236D01*
X102348Y434173D01*
X101959Y434120D01*
X101568Y434077D01*
X101177Y434043D01*
X100785Y434019D01*
X100393Y434005D01*
X100000Y434000D01*
X99607Y434005D01*
X99215Y434019D01*
X98823Y434043D01*
X98432Y434077D01*
X98041Y434120D01*
X97652Y434173D01*
X97265Y434236D01*
X96879Y434307D01*
X96494Y434389D01*
X96112Y434479D01*
X95733Y434580D01*
X95355Y434689D01*
X94981Y434808D01*
X94610Y434935D01*
X94242Y435072D01*
X93877Y435218D01*
X93516Y435373D01*
X93159Y435536D01*
X92806Y435708D01*
X92458Y435889D01*
X92114Y436079D01*
X91774Y436276D01*
X91440Y436482D01*
X91111Y436696D01*
X90787Y436919D01*
X90469Y437149D01*
X90156Y437386D01*
X89850Y437632D01*
X89549Y437885D01*
X89255Y438145D01*
X88967Y438412D01*
X88686Y438686D01*
X88412Y438967D01*
X88145Y439255D01*
X87885Y439549D01*
X87632Y439850D01*
X87386Y440156D01*
X87149Y440469D01*
X86919Y440787D01*
X86696Y441111D01*
X86482Y441440D01*
X86276Y441774D01*
X86079Y442114D01*
X85889Y442458D01*
X85708Y442806D01*
X85536Y443159D01*
X85373Y443516D01*
X85218Y443877D01*
X85072Y444242D01*
X84935Y444610D01*
X84808Y444981D01*
X84689Y445355D01*
X84580Y445733D01*
X84479Y446112D01*
X84389Y446494D01*
X84307Y446879D01*
X84236Y447265D01*
X84173Y447652D01*
X84120Y448041D01*
X84077Y448432D01*
X84043Y448823D01*
X84019Y449215D01*
X84005Y449607D01*
X84000Y450000D01*
D11*
X85000Y450000D02*
X85005Y450368D01*
X85018Y450736D01*
X85041Y451103D01*
X85072Y451470D01*
X85113Y451836D01*
X85162Y452201D01*
X85221Y452564D01*
X85288Y452926D01*
X85364Y453287D01*
X85450Y453645D01*
X85543Y454001D01*
X85646Y454354D01*
X85757Y454705D01*
X85877Y455053D01*
X86005Y455398D01*
X86142Y455740D01*
X86287Y456079D01*
X86440Y456413D01*
X86602Y456744D01*
X86771Y457071D01*
X86949Y457393D01*
X87134Y457712D01*
X87327Y458025D01*
X87528Y458334D01*
X87736Y458637D01*
X87952Y458935D01*
X88175Y459228D01*
X88405Y459516D01*
X88642Y459798D01*
X88886Y460073D01*
X89136Y460343D01*
X89393Y460607D01*
X89657Y460864D01*
X89927Y461114D01*
X90202Y461358D01*
X90484Y461595D01*
X90772Y461825D01*
X91065Y462048D01*
X91363Y462264D01*
X91666Y462472D01*
X91975Y462673D01*
X92288Y462866D01*
X92607Y463051D01*
X92929Y463229D01*
X93256Y463398D01*
X93587Y463560D01*
X93921Y463713D01*
X94260Y463858D01*
X94602Y463995D01*
X94947Y464123D01*
X95295Y464243D01*
X95646Y464354D01*
X95999Y464457D01*
X96355Y464550D01*
X96713Y464636D01*
X97074Y464712D01*
X97436Y464779D01*
X97799Y464838D01*
X98164Y464887D01*
X98530Y464928D01*
X98897Y464959D01*
X99264Y464982D01*
X99632Y464995D01*
X100000Y465000D01*
X100368Y464995D01*
X100736Y464982D01*
X101103Y464959D01*
X101470Y464928D01*
X101836Y464887D01*
X102201Y464838D01*
X102564Y464779D01*
X102926Y464712D01*
X103287Y464636D01*
X103645Y464550D01*
X104001Y464457D01*
X104354Y464354D01*
X104705Y464243D01*
X105053Y464123D01*
X105398Y463995D01*
X105740Y463858D01*
X106079Y463713D01*
X106413Y463560D01*
X106744Y463398D01*
X107071Y463229D01*
X107393Y463051D01*
X107712Y462866D01*
X108025Y462673D01*
X108334Y462472D01*
X108637Y462264D01*
X108935Y462048D01*
X109228Y461825D01*
X109516Y461595D01*
X109798Y461358D01*
X110073Y461114D01*
X110343Y460864D01*
X110607Y460607D01*
X110864Y460343D01*
X111114Y460073D01*
X111358Y459798D01*
X111595Y459516D01*
X111825Y459228D01*
X112048Y458935D01*
X112264Y458637D01*
X112472Y458334D01*
X112673Y458025D01*
X112866Y457712D01*
X113051Y457393D01*
X113229Y457071D01*
X113398Y456744D01*
X113560Y456413D01*
X113713Y456079D01*
X113858Y455740D01*
X113995Y455398D01*
X114123Y455053D01*
X114243Y454705D01*
X114354Y454354D01*
X114457Y454001D01*
X114550Y453645D01*
X114636Y453287D01*
X114712Y452926D01*
X114779Y452564D01*
X114838Y452201D01*
X114887Y451836D01*
X114928Y451470D01*
X114959Y451103D01*
X114982Y450736D01*
X114995Y450368D01*
X115000Y450000D01*
X114995Y449632D01*
X114982Y449264D01*
X114959Y448897D01*
X114928Y448530D01*
X114887Y448164D01*
X114838Y447799D01*
X114779Y447436D01*
X114712Y447074D01*
X114636Y446713D01*
X114550Y446355D01*
X114457Y445999D01*
X114354Y445646D01*
X114243Y445295D01*
X114123Y444947D01*
X113995Y444602D01*
X113858Y444260D01*
X113713Y443921D01*
X113560Y443587D01*
X113398Y443256D01*
X113229Y442929D01*
X113051Y442607D01*
X112866Y442288D01*
X112673Y441975D01*
X112472Y441666D01*
X112264Y441363D01*
X112048Y441065D01*
X111825Y440772D01*
X111595Y440484D01*
X111358Y440202D01*
X111114Y439927D01*
X110864Y439657D01*
X110607Y439393D01*
X110343Y439136D01*
X110073Y438886D01*
X109798Y438642D01*
X109516Y438405D01*
X109228Y438175D01*
X108935Y437952D01*
X108637Y437736D01*
X108334Y437528D01*
X108025Y437327D01*
X107712Y437134D01*
X107393Y436949D01*
X107071Y436771D01*
X106744Y436602D01*
X106413Y436440D01*
X106079Y436287D01*
X105740Y436142D01*
X105398Y436005D01*
X105053Y435877D01*
X104705Y435757D01*
X104354Y435646D01*
X104001Y435543D01*
X103645Y435450D01*
X103287Y435364D01*
X102926Y435288D01*
X102564Y435221D01*
X102201Y435162D01*
X101836Y435113D01*
X101470Y435072D01*
X101103Y435041D01*
X100736Y435018D01*
X100368Y435005D01*
X100000Y435000D01*
X99632Y435005D01*
X99264Y435018D01*
X98897Y435041D01*
X98530Y435072D01*
X98164Y435113D01*
X97799Y435162D01*
X97436Y435221D01*
X97074Y435288D01*
X96713Y435364D01*
X96355Y435450D01*
X95999Y435543D01*
X95646Y435646D01*
X95295Y435757D01*
X94947Y435877D01*
X94602Y436005D01*
X94260Y436142D01*
X93921Y436287D01*
X93587Y436440D01*
X93256Y436602D01*
X92929Y436771D01*
X92607Y436949D01*
X92288Y437134D01*
X91975Y437327D01*
X91666Y437528D01*
X91363Y437736D01*
X91065Y437952D01*
X90772Y438175D01*
X90484Y438405D01*
X90202Y438642D01*
X89927Y438886D01*
X89657Y439136D01*
X89393Y439393D01*
X89136Y439657D01*
X88886Y439927D01*
X88642Y440202D01*
X88405Y440484D01*
X88175Y440772D01*
X87952Y441065D01*
X87736Y441363D01*
X87528Y441666D01*
X87327Y441975D01*
X87134Y442288D01*
X86949Y442607D01*
X86771Y442929D01*
X86602Y443256D01*
X86440Y443587D01*
X86287Y443921D01*
X86142Y444260D01*
X86005Y444602D01*
X85877Y444947D01*
X85757Y445295D01*
X85646Y445646D01*
X85543Y445999D01*
X85450Y446355D01*
X85364Y446713D01*
X85288Y447074D01*
X85221Y447436D01*
X85162Y447799D01*
X85113Y448164D01*
X85072Y448530D01*
X85041Y448897D01*
X85018Y449264D01*
X85005Y449632D01*
X85000Y450000D01*
D10*
X1615710Y450000D02*
X1615720Y450842D01*
X1615751Y451683D01*
X1615803Y452523D01*
X1615875Y453361D01*
X1615968Y454197D01*
X1616081Y455031D01*
X1616215Y455862D01*
X1616369Y456690D01*
X1616543Y457513D01*
X1616738Y458332D01*
X1616952Y459146D01*
X1617187Y459954D01*
X1617441Y460756D01*
X1617714Y461552D01*
X1618008Y462341D01*
X1618320Y463122D01*
X1618652Y463896D01*
X1619002Y464661D01*
X1619371Y465417D01*
X1619759Y466164D01*
X1620165Y466901D01*
X1620588Y467629D01*
X1621030Y468345D01*
X1621489Y469051D01*
X1621965Y469744D01*
X1622458Y470427D01*
X1622968Y471096D01*
X1623493Y471753D01*
X1624035Y472397D01*
X1624593Y473028D01*
X1625166Y473644D01*
X1625753Y474247D01*
X1626356Y474834D01*
X1626972Y475407D01*
X1627603Y475965D01*
X1628247Y476507D01*
X1628904Y477032D01*
X1629573Y477542D01*
X1630256Y478035D01*
X1630949Y478511D01*
X1631655Y478970D01*
X1632371Y479412D01*
X1633099Y479835D01*
X1633836Y480241D01*
X1634583Y480629D01*
X1635339Y480998D01*
X1636104Y481348D01*
X1636878Y481680D01*
X1637659Y481992D01*
X1638448Y482286D01*
X1639244Y482559D01*
X1640046Y482813D01*
X1640854Y483048D01*
X1641668Y483262D01*
X1642487Y483457D01*
X1643310Y483631D01*
X1644138Y483785D01*
X1644969Y483919D01*
X1645803Y484032D01*
X1646639Y484125D01*
X1647477Y484197D01*
X1648317Y484249D01*
X1649158Y484280D01*
X1650000Y484290D01*
X1650842Y484280D01*
X1651683Y484249D01*
X1652523Y484197D01*
X1653361Y484125D01*
X1654197Y484032D01*
X1655031Y483919D01*
X1655862Y483785D01*
X1656690Y483631D01*
X1657513Y483457D01*
X1658332Y483262D01*
X1659146Y483048D01*
X1659954Y482813D01*
X1660756Y482559D01*
X1661552Y482286D01*
X1662341Y481992D01*
X1663122Y481680D01*
X1663896Y481348D01*
X1664661Y480998D01*
X1665417Y480629D01*
X1666164Y480241D01*
X1666901Y479835D01*
X1667629Y479412D01*
X1668345Y478970D01*
X1669051Y478511D01*
X1669744Y478035D01*
X1670427Y477542D01*
X1671096Y477032D01*
X1671753Y476507D01*
X1672397Y475965D01*
X1673028Y475407D01*
X1673644Y474834D01*
X1674247Y474247D01*
X1674834Y473644D01*
X1675407Y473028D01*
X1675965Y472397D01*
X1676507Y471753D01*
X1677032Y471096D01*
X1677542Y470427D01*
X1678035Y469744D01*
X1678511Y469051D01*
X1678970Y468345D01*
X1679412Y467629D01*
X1679835Y466901D01*
X1680241Y466164D01*
X1680629Y465417D01*
X1680998Y464661D01*
X1681348Y463896D01*
X1681680Y463122D01*
X1681992Y462341D01*
X1682286Y461552D01*
X1682559Y460756D01*
X1682813Y459954D01*
X1683048Y459146D01*
X1683262Y458332D01*
X1683457Y457513D01*
X1683631Y456690D01*
X1683785Y455862D01*
X1683919Y455031D01*
X1684032Y454197D01*
X1684125Y453361D01*
X1684197Y452523D01*
X1684249Y451683D01*
X1684280Y450842D01*
X1684290Y450000D01*
X1684280Y449158D01*
X1684249Y448317D01*
X1684197Y447477D01*
X1684125Y446639D01*
X1684032Y445803D01*
X1683919Y444969D01*
X1683785Y444138D01*
X1683631Y443310D01*
X1683457Y442487D01*
X1683262Y441668D01*
X1683048Y440854D01*
X1682813Y440046D01*
X1682559Y439244D01*
X1682286Y438448D01*
X1681992Y437659D01*
X1681680Y436878D01*
X1681348Y436104D01*
X1680998Y435339D01*
X1680629Y434583D01*
X1680241Y433836D01*
X1679835Y433099D01*
X1679412Y432371D01*
X1678970Y431655D01*
X1678511Y430949D01*
X1678035Y430256D01*
X1677542Y429573D01*
X1677032Y428904D01*
X1676507Y428247D01*
X1675965Y427603D01*
X1675407Y426972D01*
X1674834Y426356D01*
X1674247Y425753D01*
X1673644Y425166D01*
X1673028Y424593D01*
X1672397Y424035D01*
X1671753Y423493D01*
X1671096Y422968D01*
X1670427Y422458D01*
X1669744Y421965D01*
X1669051Y421489D01*
X1668345Y421030D01*
X1667629Y420588D01*
X1666901Y420165D01*
X1666164Y419759D01*
X1665417Y419371D01*
X1664661Y419002D01*
X1663896Y418652D01*
X1663122Y418320D01*
X1662341Y418008D01*
X1661552Y417714D01*
X1660756Y417441D01*
X1659954Y417187D01*
X1659146Y416952D01*
X1658332Y416738D01*
X1657513Y416543D01*
X1656690Y416369D01*
X1655862Y416215D01*
X1655031Y416081D01*
X1654197Y415968D01*
X1653361Y415875D01*
X1652523Y415803D01*
X1651683Y415751D01*
X1650842Y415720D01*
X1650000Y415710D01*
X1649158Y415720D01*
X1648317Y415751D01*
X1647477Y415803D01*
X1646639Y415875D01*
X1645803Y415968D01*
X1644969Y416081D01*
X1644138Y416215D01*
X1643310Y416369D01*
X1642487Y416543D01*
X1641668Y416738D01*
X1640854Y416952D01*
X1640046Y417187D01*
X1639244Y417441D01*
X1638448Y417714D01*
X1637659Y418008D01*
X1636878Y418320D01*
X1636104Y418652D01*
X1635339Y419002D01*
X1634583Y419371D01*
X1633836Y419759D01*
X1633099Y420165D01*
X1632371Y420588D01*
X1631655Y421030D01*
X1630949Y421489D01*
X1630256Y421965D01*
X1629573Y422458D01*
X1628904Y422968D01*
X1628247Y423493D01*
X1627603Y424035D01*
X1626972Y424593D01*
X1626356Y425166D01*
X1625753Y425753D01*
X1625166Y426356D01*
X1624593Y426972D01*
X1624035Y427603D01*
X1623493Y428247D01*
X1622968Y428904D01*
X1622458Y429573D01*
X1621965Y430256D01*
X1621489Y430949D01*
X1621030Y431655D01*
X1620588Y432371D01*
X1620165Y433099D01*
X1619759Y433836D01*
X1619371Y434583D01*
X1619002Y435339D01*
X1618652Y436104D01*
X1618320Y436878D01*
X1618008Y437659D01*
X1617714Y438448D01*
X1617441Y439244D01*
X1617187Y440046D01*
X1616952Y440854D01*
X1616738Y441668D01*
X1616543Y442487D01*
X1616369Y443310D01*
X1616215Y444138D01*
X1616081Y444969D01*
X1615968Y445803D01*
X1615875Y446639D01*
X1615803Y447477D01*
X1615751Y448317D01*
X1615720Y449158D01*
X1615710Y450000D01*
D13*
X1634000Y450000D02*
X1634005Y450393D01*
X1634019Y450785D01*
X1634043Y451177D01*
X1634077Y451568D01*
X1634120Y451959D01*
X1634173Y452348D01*
X1634236Y452735D01*
X1634307Y453121D01*
X1634389Y453506D01*
X1634479Y453888D01*
X1634580Y454267D01*
X1634689Y454645D01*
X1634808Y455019D01*
X1634935Y455390D01*
X1635072Y455758D01*
X1635218Y456123D01*
X1635373Y456484D01*
X1635536Y456841D01*
X1635708Y457194D01*
X1635889Y457542D01*
X1636079Y457886D01*
X1636276Y458226D01*
X1636482Y458560D01*
X1636696Y458889D01*
X1636919Y459213D01*
X1637149Y459531D01*
X1637386Y459844D01*
X1637632Y460150D01*
X1637885Y460451D01*
X1638145Y460745D01*
X1638412Y461033D01*
X1638686Y461314D01*
X1638967Y461588D01*
X1639255Y461855D01*
X1639549Y462115D01*
X1639850Y462368D01*
X1640156Y462614D01*
X1640469Y462851D01*
X1640787Y463081D01*
X1641111Y463304D01*
X1641440Y463518D01*
X1641774Y463724D01*
X1642114Y463921D01*
X1642458Y464111D01*
X1642806Y464292D01*
X1643159Y464464D01*
X1643516Y464627D01*
X1643877Y464782D01*
X1644242Y464928D01*
X1644610Y465065D01*
X1644981Y465192D01*
X1645355Y465311D01*
X1645733Y465420D01*
X1646112Y465521D01*
X1646494Y465611D01*
X1646879Y465693D01*
X1647265Y465764D01*
X1647652Y465827D01*
X1648041Y465880D01*
X1648432Y465923D01*
X1648823Y465957D01*
X1649215Y465981D01*
X1649607Y465995D01*
X1650000Y466000D01*
X1650393Y465995D01*
X1650785Y465981D01*
X1651177Y465957D01*
X1651568Y465923D01*
X1651959Y465880D01*
X1652348Y465827D01*
X1652735Y465764D01*
X1653121Y465693D01*
X1653506Y465611D01*
X1653888Y465521D01*
X1654267Y465420D01*
X1654645Y465311D01*
X1655019Y465192D01*
X1655390Y465065D01*
X1655758Y464928D01*
X1656123Y464782D01*
X1656484Y464627D01*
X1656841Y464464D01*
X1657194Y464292D01*
X1657542Y464111D01*
X1657886Y463921D01*
X1658226Y463724D01*
X1658560Y463518D01*
X1658889Y463304D01*
X1659213Y463081D01*
X1659531Y462851D01*
X1659844Y462614D01*
X1660150Y462368D01*
X1660451Y462115D01*
X1660745Y461855D01*
X1661033Y461588D01*
X1661314Y461314D01*
X1661588Y461033D01*
X1661855Y460745D01*
X1662115Y460451D01*
X1662368Y460150D01*
X1662614Y459844D01*
X1662851Y459531D01*
X1663081Y459213D01*
X1663304Y458889D01*
X1663518Y458560D01*
X1663724Y458226D01*
X1663921Y457886D01*
X1664111Y457542D01*
X1664292Y457194D01*
X1664464Y456841D01*
X1664627Y456484D01*
X1664782Y456123D01*
X1664928Y455758D01*
X1665065Y455390D01*
X1665192Y455019D01*
X1665311Y454645D01*
X1665420Y454267D01*
X1665521Y453888D01*
X1665611Y453506D01*
X1665693Y453121D01*
X1665764Y452735D01*
X1665827Y452348D01*
X1665880Y451959D01*
X1665923Y451568D01*
X1665957Y451177D01*
X1665981Y450785D01*
X1665995Y450393D01*
X1666000Y450000D01*
X1665995Y449607D01*
X1665981Y449215D01*
X1665957Y448823D01*
X1665923Y448432D01*
X1665880Y448041D01*
X1665827Y447652D01*
X1665764Y447265D01*
X1665693Y446879D01*
X1665611Y446494D01*
X1665521Y446112D01*
X1665420Y445733D01*
X1665311Y445355D01*
X1665192Y444981D01*
X1665065Y444610D01*
X1664928Y444242D01*
X1664782Y443877D01*
X1664627Y443516D01*
X1664464Y443159D01*
X1664292Y442806D01*
X1664111Y442458D01*
X1663921Y442114D01*
X1663724Y441774D01*
X1663518Y441440D01*
X1663304Y441111D01*
X1663081Y440787D01*
X1662851Y440469D01*
X1662614Y440156D01*
X1662368Y439850D01*
X1662115Y439549D01*
X1661855Y439255D01*
X1661588Y438967D01*
X1661314Y438686D01*
X1661033Y438412D01*
X1660745Y438145D01*
X1660451Y437885D01*
X1660150Y437632D01*
X1659844Y437386D01*
X1659531Y437149D01*
X1659213Y436919D01*
X1658889Y436696D01*
X1658560Y436482D01*
X1658226Y436276D01*
X1657886Y436079D01*
X1657542Y435889D01*
X1657194Y435708D01*
X1656841Y435536D01*
X1656484Y435373D01*
X1656123Y435218D01*
X1655758Y435072D01*
X1655390Y434935D01*
X1655019Y434808D01*
X1654645Y434689D01*
X1654267Y434580D01*
X1653888Y434479D01*
X1653506Y434389D01*
X1653121Y434307D01*
X1652735Y434236D01*
X1652348Y434173D01*
X1651959Y434120D01*
X1651568Y434077D01*
X1651177Y434043D01*
X1650785Y434019D01*
X1650393Y434005D01*
X1650000Y434000D01*
X1649607Y434005D01*
X1649215Y434019D01*
X1648823Y434043D01*
X1648432Y434077D01*
X1648041Y434120D01*
X1647652Y434173D01*
X1647265Y434236D01*
X1646879Y434307D01*
X1646494Y434389D01*
X1646112Y434479D01*
X1645733Y434580D01*
X1645355Y434689D01*
X1644981Y434808D01*
X1644610Y434935D01*
X1644242Y435072D01*
X1643877Y435218D01*
X1643516Y435373D01*
X1643159Y435536D01*
X1642806Y435708D01*
X1642458Y435889D01*
X1642114Y436079D01*
X1641774Y436276D01*
X1641440Y436482D01*
X1641111Y436696D01*
X1640787Y436919D01*
X1640469Y437149D01*
X1640156Y437386D01*
X1639850Y437632D01*
X1639549Y437885D01*
X1639255Y438145D01*
X1638967Y438412D01*
X1638686Y438686D01*
X1638412Y438967D01*
X1638145Y439255D01*
X1637885Y439549D01*
X1637632Y439850D01*
X1637386Y440156D01*
X1637149Y440469D01*
X1636919Y440787D01*
X1636696Y441111D01*
X1636482Y441440D01*
X1636276Y441774D01*
X1636079Y442114D01*
X1635889Y442458D01*
X1635708Y442806D01*
X1635536Y443159D01*
X1635373Y443516D01*
X1635218Y443877D01*
X1635072Y444242D01*
X1634935Y444610D01*
X1634808Y444981D01*
X1634689Y445355D01*
X1634580Y445733D01*
X1634479Y446112D01*
X1634389Y446494D01*
X1634307Y446879D01*
X1634236Y447265D01*
X1634173Y447652D01*
X1634120Y448041D01*
X1634077Y448432D01*
X1634043Y448823D01*
X1634019Y449215D01*
X1634005Y449607D01*
X1634000Y450000D01*
D11*
X1635000Y450000D02*
X1635005Y450368D01*
X1635018Y450736D01*
X1635041Y451103D01*
X1635072Y451470D01*
X1635113Y451836D01*
X1635162Y452201D01*
X1635221Y452564D01*
X1635288Y452926D01*
X1635364Y453287D01*
X1635450Y453645D01*
X1635543Y454001D01*
X1635646Y454354D01*
X1635757Y454705D01*
X1635877Y455053D01*
X1636005Y455398D01*
X1636142Y455740D01*
X1636287Y456079D01*
X1636440Y456413D01*
X1636602Y456744D01*
X1636771Y457071D01*
X1636949Y457393D01*
X1637134Y457712D01*
X1637327Y458025D01*
X1637528Y458334D01*
X1637736Y458637D01*
X1637952Y458935D01*
X1638175Y459228D01*
X1638405Y459516D01*
X1638642Y459798D01*
X1638886Y460073D01*
X1639136Y460343D01*
X1639393Y460607D01*
X1639657Y460864D01*
X1639927Y461114D01*
X1640202Y461358D01*
X1640484Y461595D01*
X1640772Y461825D01*
X1641065Y462048D01*
X1641363Y462264D01*
X1641666Y462472D01*
X1641975Y462673D01*
X1642288Y462866D01*
X1642607Y463051D01*
X1642929Y463229D01*
X1643256Y463398D01*
X1643587Y463560D01*
X1643921Y463713D01*
X1644260Y463858D01*
X1644602Y463995D01*
X1644947Y464123D01*
X1645295Y464243D01*
X1645646Y464354D01*
X1645999Y464457D01*
X1646355Y464550D01*
X1646713Y464636D01*
X1647074Y464712D01*
X1647436Y464779D01*
X1647799Y464838D01*
X1648164Y464887D01*
X1648530Y464928D01*
X1648897Y464959D01*
X1649264Y464982D01*
X1649632Y464995D01*
X1650000Y465000D01*
X1650368Y464995D01*
X1650736Y464982D01*
X1651103Y464959D01*
X1651470Y464928D01*
X1651836Y464887D01*
X1652201Y464838D01*
X1652564Y464779D01*
X1652926Y464712D01*
X1653287Y464636D01*
X1653645Y464550D01*
X1654001Y464457D01*
X1654354Y464354D01*
X1654705Y464243D01*
X1655053Y464123D01*
X1655398Y463995D01*
X1655740Y463858D01*
X1656079Y463713D01*
X1656413Y463560D01*
X1656744Y463398D01*
X1657071Y463229D01*
X1657393Y463051D01*
X1657712Y462866D01*
X1658025Y462673D01*
X1658334Y462472D01*
X1658637Y462264D01*
X1658935Y462048D01*
X1659228Y461825D01*
X1659516Y461595D01*
X1659798Y461358D01*
X1660073Y461114D01*
X1660343Y460864D01*
X1660607Y460607D01*
X1660864Y460343D01*
X1661114Y460073D01*
X1661358Y459798D01*
X1661595Y459516D01*
X1661825Y459228D01*
X1662048Y458935D01*
X1662264Y458637D01*
X1662472Y458334D01*
X1662673Y458025D01*
X1662866Y457712D01*
X1663051Y457393D01*
X1663229Y457071D01*
X1663398Y456744D01*
X1663560Y456413D01*
X1663713Y456079D01*
X1663858Y455740D01*
X1663995Y455398D01*
X1664123Y455053D01*
X1664243Y454705D01*
X1664354Y454354D01*
X1664457Y454001D01*
X1664550Y453645D01*
X1664636Y453287D01*
X1664712Y452926D01*
X1664779Y452564D01*
X1664838Y452201D01*
X1664887Y451836D01*
X1664928Y451470D01*
X1664959Y451103D01*
X1664982Y450736D01*
X1664995Y450368D01*
X1665000Y450000D01*
X1664995Y449632D01*
X1664982Y449264D01*
X1664959Y448897D01*
X1664928Y448530D01*
X1664887Y448164D01*
X1664838Y447799D01*
X1664779Y447436D01*
X1664712Y447074D01*
X1664636Y446713D01*
X1664550Y446355D01*
X1664457Y445999D01*
X1664354Y445646D01*
X1664243Y445295D01*
X1664123Y444947D01*
X1663995Y444602D01*
X1663858Y444260D01*
X1663713Y443921D01*
X1663560Y443587D01*
X1663398Y443256D01*
X1663229Y442929D01*
X1663051Y442607D01*
X1662866Y442288D01*
X1662673Y441975D01*
X1662472Y441666D01*
X1662264Y441363D01*
X1662048Y441065D01*
X1661825Y440772D01*
X1661595Y440484D01*
X1661358Y440202D01*
X1661114Y439927D01*
X1660864Y439657D01*
X1660607Y439393D01*
X1660343Y439136D01*
X1660073Y438886D01*
X1659798Y438642D01*
X1659516Y438405D01*
X1659228Y438175D01*
X1658935Y437952D01*
X1658637Y437736D01*
X1658334Y437528D01*
X1658025Y437327D01*
X1657712Y437134D01*
X1657393Y436949D01*
X1657071Y436771D01*
X1656744Y436602D01*
X1656413Y436440D01*
X1656079Y436287D01*
X1655740Y436142D01*
X1655398Y436005D01*
X1655053Y435877D01*
X1654705Y435757D01*
X1654354Y435646D01*
X1654001Y435543D01*
X1653645Y435450D01*
X1653287Y435364D01*
X1652926Y435288D01*
X1652564Y435221D01*
X1652201Y435162D01*
X1651836Y435113D01*
X1651470Y435072D01*
X1651103Y435041D01*
X1650736Y435018D01*
X1650368Y435005D01*
X1650000Y435000D01*
X1649632Y435005D01*
X1649264Y435018D01*
X1648897Y435041D01*
X1648530Y435072D01*
X1648164Y435113D01*
X1647799Y435162D01*
X1647436Y435221D01*
X1647074Y435288D01*
X1646713Y435364D01*
X1646355Y435450D01*
X1645999Y435543D01*
X1645646Y435646D01*
X1645295Y435757D01*
X1644947Y435877D01*
X1644602Y436005D01*
X1644260Y436142D01*
X1643921Y436287D01*
X1643587Y436440D01*
X1643256Y436602D01*
X1642929Y436771D01*
X1642607Y436949D01*
X1642288Y437134D01*
X1641975Y437327D01*
X1641666Y437528D01*
X1641363Y437736D01*
X1641065Y437952D01*
X1640772Y438175D01*
X1640484Y438405D01*
X1640202Y438642D01*
X1639927Y438886D01*
X1639657Y439136D01*
X1639393Y439393D01*
X1639136Y439657D01*
X1638886Y439927D01*
X1638642Y440202D01*
X1638405Y440484D01*
X1638175Y440772D01*
X1637952Y441065D01*
X1637736Y441363D01*
X1637528Y441666D01*
X1637327Y441975D01*
X1637134Y442288D01*
X1636949Y442607D01*
X1636771Y442929D01*
X1636602Y443256D01*
X1636440Y443587D01*
X1636287Y443921D01*
X1636142Y444260D01*
X1636005Y444602D01*
X1635877Y444947D01*
X1635757Y445295D01*
X1635646Y445646D01*
X1635543Y445999D01*
X1635450Y446355D01*
X1635364Y446713D01*
X1635288Y447074D01*
X1635221Y447436D01*
X1635162Y447799D01*
X1635113Y448164D01*
X1635072Y448530D01*
X1635041Y448897D01*
X1635018Y449264D01*
X1635005Y449632D01*
X1635000Y450000D01*
M02*
