M48
;GenerationSoftware,Autodesk,EAGLE,9.4.0*%
;CreationDate,2019-07-31T03:12:49Z*%
FMAT,2
ICI,OFF
METRIC,TZ,000.000
T5C0.350
T4C1.000
T3C1.016
T2C2.600
T1C3.000
%
G90
M71
T1
X10000Y5000
X165000Y45000
X165000Y5000
X10000Y45000
T2
X26010Y35050
X14610Y35050
X70500Y35050
X59100Y35050
X149620Y34050
X104860Y34050
X161020Y34050
X116260Y34050
T3
X107620Y12540
X62860Y12620
X55240Y10080
X55240Y12620
X57780Y10080
X57780Y12620
X60320Y10080
X60320Y12620
X62860Y10080
X65400Y10080
X65400Y12620
X67940Y10080
X67940Y12620
X70480Y10080
X70480Y12620
X73020Y10080
X73020Y12620
X100000Y10000
X100000Y12540
X102540Y10000
X102540Y12540
X105080Y10000
X105080Y12540
X107620Y10000
X110160Y10000
X110160Y12540
X112700Y10000
X112700Y12540
X115240Y10000
X115240Y12540
X117780Y10000
X117780Y12540
T4
X113060Y26550
X108060Y41050
X113060Y41050
X152820Y26550
X155320Y26550
X157820Y26550
X152820Y41050
X17810Y42050
X17810Y27550
X20310Y27550
X22810Y27550
X110560Y26550
X22810Y42050
X62300Y27550
X64800Y27550
X157820Y41050
X67300Y27550
X62300Y42050
X67300Y42050
X108060Y26550
T5
X77000Y30000
M30